SplineFontDB: 1.0
FontName: NimbusSanL-ReguCondItal
FullName: Nimbus Sans L Condensed Regular Italic
FamilyName: Nimbus Sans L Condensed
Weight: Regular
Copyright: Copyright (URW)++,Copyright 1999 by (URW)++ Design & Development; Cyrillic glyphs added by Valek Filippov (C) 2001-2004
Version: 1.06
ItalicAngle: -9.9
UnderlinePosition: -100
UnderlineWidth: 50
Ascent: 800
Descent: 200
NeedsXUIDChange: 1
UniqueID: 4157071
FSType: 12
OS2WinAscent: 0
OS2WinAOffset: 1
OS2WinDescent: 0
OS2WinDOffset: 1
HheadAscent: 0
HheadAOffset: 1
HheadDescent: 0
HheadDOffset: 1
ScriptLang: 2
 1 latn 1 dflt 
 1 DFLT 1 dflt 
Encoding: adobestandard
UnicodeInterp: none
DisplaySize: -36
AntiAlias: 1
FitToEm: 1
WinInfo: 27 27 12
BeginPrivate: 7
BlueValues 31 [-20 0 523 543 718 738 684 704]
BlueScale 8 0.039625
StdHW 4 [78]
StdVW 4 [77]
StemSnapH 191 [78 84 88] 
systemdict /internaldict known
{1183615869 systemdict /internaldict get exec
/StemSnapLength 2 copy known { get 3 lt } { pop pop true } ifelse }
{ true } ifelse { pop [78 88] } if
StemSnapV 2 []
ForceBold 5 false
EndPrivate
BeginChars: 743 636
StartChar: exclam
Encoding: 33 33 2
Width: 228
Flags: W
HStem: 0 21G<74 153> 698 20G<199 278>
DStem: 92 102 171 102 74 0 153 0 199 718 278 718 158 481 237 481
Fore
171 102 m 1
 153 0 l 1
 74 0 l 1
 92 102 l 1
 171 102 l 1
163 171 m 1
 123 171 l 1
 158 481 l 1
 199 718 l 1
 278 718 l 1
 237 481 l 1
 163 171 l 1
EndSplineSet
EndChar
StartChar: quotedbl
Encoding: 34 34 3
Width: 291
Flags: W
HStem: 698 20G<182 242 299 359>
DStem: 182 718 242 718 138 463 198 463 299 718 359 718 255 463 315 463
Fore
138 463 m 1
 182 718 l 1
 242 718 l 1
 198 463 l 1
 138 463 l 1
255 463 m 1
 299 718 l 1
 359 718 l 1
 315 463 l 1
 255 463 l 1
EndSplineSet
EndChar
StartChar: numbersign
Encoding: 35 35 4
Width: 456
Flags: W
HStem: 0 21G<84 138 240 295> 210 63<77 144 217 301 373 439> 210 268<137 301 276 439> 415 63<136 203 276 359 433 499> 668 20G<282 337 438 493>
DStem: 144 210 198 210 84 0 138 0 203 415 258 415 163 273 217 273 282 688 337 688 221 478 276 478 301 210 355 210 240 0 295 0 359 415 414 415 319 273 373 273 438 688 493 688 378 478 433 478
Fore
355 210 m 1xa8
 295 0 l 1
 240 0 l 1
 301 210 l 1xc8
 198 210 l 1xa8
 138 0 l 1
 84 0 l 1
 144 210 l 1xc8
 60 210 l 1xa8
 78 273 l 1
 163 273 l 1
 203 415 l 1
 119 415 l 1xd8
 137 478 l 1
 221 478 l 1
 282 688 l 1
 337 688 l 1
 276 478 l 1
 378 478 l 1
 438 688 l 1
 493 688 l 1
 433 478 l 1xa8
 517 478 l 1
 499 415 l 1
 414 415 l 1
 373 273 l 1
 458 273 l 1
 439 210 l 1xd8
 355 210 l 1xa8
359 415 m 1xd8
 258 415 l 1
 217 273 l 1
 319 273 l 1
 359 415 l 1xd8
EndSplineSet
EndChar
StartChar: dollar
Encoding: 36 36 5
Width: 456
Flags: W
VStem: 57 75<131 151> 124 75<471 498> 388 78<206 248> 435 71<540 570>
DStem: 205 -19 243 -19 188 -115 227 -115 264 319 300 308 218 54 256 54 319 638 358 638 280 409 316 399 343 775 382 775 332 711 371 711
Fore
504 521 m 1x50
 434 521 l 1
 435 530 435 539 435 544 c 0x50
 435 597 414 622 358 638 c 1
 316 399 l 1
 374 377 396 367 419 351 c 0
 450 329 466 295 466 248 c 0
 466 172 435 91 389 44 c 0
 348 3 307 -14 243 -19 c 1
 227 -115 l 1
 188 -115 l 1
 205 -19 l 1
 145 -12 117 -1 92 27 c 0
 71 50 57 93 57 133 c 0
 57 154 60 181 64 213 c 1
 136 213 l 1
 134 189 132 165 132 149 c 0xa0
 132 93 154 69 218 54 c 1
 264 319 l 1
 218 333 196 343 176 358 c 0
 142 382 124 422 124 471 c 0
 124 537 152 605 197 651 c 0
 237 691 273 707 332 711 c 1
 343 775 l 1
 382 775 l 1
 371 711 l 1
 411 705 428 700 449 686 c 0
 487 662 506 622 506 570 c 0
 506 556 505 539 504 521 c 1x50
280 409 m 1
 319 638 l 1
 285 636 265 627 242 605 c 1
 216 578 199 536 199 498 c 0
 199 451 224 423 280 409 c 1
300 308 m 1
 256 54 l 1
 295 56 317 66 341 90 c 0
 370 118 388 164 388 206 c 0x20
 388 246 370 279 342 291 c 2
 300 308 l 1
EndSplineSet
EndChar
StartChar: percent
Encoding: 37 37 6
Width: 729
Flags: W
HStem: -7 53<565 578> 314 53<615 633> 321 53<215 233> 642 53<272 284>
VStem: 120 57<428 462> 323 57<556 574> 469 57<108 142> 672 57<220 254>
DStem: 626 703 671 703 176 -19 221 -19
Fore
282 695 m 0xbf
 346 695 380 652 380 572 c 0
 380 511 363 443 336 396 c 0
 307 347 266 321 217 321 c 0
 154 321 120 364 120 444 c 0
 120 505 137 572 164 620 c 0
 192 668 234 695 282 695 c 0xbf
274 642 m 0
 250 642 229 628 213 601 c 0
 192 565 177 500 177 445 c 0
 177 399 195 374 226 374 c 0
 251 374 272 388 287 415 c 0
 308 453 323 516 323 571 c 0
 323 616 305 642 274 642 c 0
671 703 m 1
 221 -19 l 1
 176 -19 l 1
 626 703 l 1
 671 703 l 1
631 367 m 0xdf
 695 367 729 324 729 244 c 0
 729 184 712 115 685 68 c 0
 656 19 615 -7 567 -7 c 0
 503 -7 469 36 469 116 c 0
 469 177 486 244 513 292 c 0
 541 340 583 367 631 367 c 0xdf
623 314 m 0
 598 314 578 300 562 273 c 0
 541 237 526 171 526 117 c 0
 526 71 544 46 576 46 c 0
 600 46 621 60 636 87 c 0
 657 125 672 188 672 243 c 0
 672 289 654 314 623 314 c 0
EndSplineSet
EndChar
StartChar: ampersand
Encoding: 38 38 7
Width: 547
Flags: W
HStem: -15 76<207 229> 642 76<354 372>
VStem: 63 74<133 157> 200 73<521 546> 408 72<583 603>
DStem: 268 339 338 382 366 141 419 226 394 82 451 155 435 0 528 0
Fore
451 155 m 1
 528 0 l 1
 435 0 l 1
 394 82 l 1
 328 10 279 -15 207 -15 c 0
 115 -15 63 38 63 133 c 0
 63 191 80 249 110 291 c 0
 136 328 165 352 238 399 c 1
 207 462 200 485 200 521 c 0
 200 628 278 718 372 718 c 0
 439 718 480 674 480 603 c 0
 480 556 462 506 431 465 c 0
 410 437 389 419 338 382 c 1
 419 226 l 1
 440 270 445 283 462 338 c 1
 530 338 l 1
 515 277 489 217 451 155 c 1
366 141 m 1
 268 339 l 1
 202 293 179 273 162 243 c 0
 146 217 137 184 137 155 c 0
 137 101 175 61 227 61 c 0
 277 61 320 86 366 141 c 1
311 439 m 1
 338 459 343 464 356 476 c 0
 390 508 408 546 408 585 c 0
 408 621 388 642 355 642 c 0
 309 642 273 600 273 546 c 0
 273 514 285 481 311 439 c 1
EndSplineSet
EndChar
StartChar: quoteright
Encoding: 39 8217 8
Width: 182
Flags: W
HStem: 698 20G<169 254>
DStem: 169 718 254 718 150 612 237 620
Fore
150 612 m 1
 169 718 l 1
 254 718 l 1
 237 620 l 2
 221 529 186 480 124 463 c 1
 132 510 l 1
 165 517 183 547 194 612 c 1
 150 612 l 1
EndSplineSet
KernsSLIF: 121 -4 1 0 119 -3 1 0 118 -3 1 0 116 -9 1 0 115 -17 1 0 114 -19 1 0 46 -52 1 0 111 -29 1 0 100 -20 1 0 44 -52 1 0 262 -65 1 0 256 -65 1 0 257 -65 1 0 225 -67 1 0 65 -65 1 0
EndChar
StartChar: parenleft
Encoding: 40 40 9
Width: 273
Flags: W
HStem: 713 20G<322 372>
VStem: 89 73<94 130>
Fore
322 733 m 1
 372 733 l 1
 279 581 247 516 217 418 c 0
 182 307 162 188 162 96 c 0
 162 14 173 -56 209 -207 c 1
 161 -207 l 1
 105 -54 89 21 89 123 c 0
 89 220 110 330 148 429 c 0
 186 530 227 602 322 733 c 1
EndSplineSet
EndChar
StartChar: parenright
Encoding: 41 41 10
Width: 273
Flags: W
HStem: 713 20G<156 204>
VStem: 203 73<400 434>
Fore
43 -207 m 1
 -7 -207 l 1
 86 -55 118 10 148 108 c 0
 183 220 203 338 203 430 c 0
 203 513 192 581 156 733 c 1
 204 733 l 1
 260 580 276 505 276 403 c 0
 276 306 255 196 217 97 c 0
 179 -4 138 -76 43 -207 c 1
EndSplineSet
EndChar
StartChar: asterisk
Encoding: 42 42 11
Width: 319
Flags: W
HStem: 698 20G<260 309>
DStem: 218 557 251 525 147 465 181 431 251 525 295 557 287 431 333 465 260 718 309 718 240 608 290 608
Fore
135 591 m 1
 161 646 l 1
 240 608 l 1
 260 718 l 1
 309 718 l 1
 290 608 l 1
 382 646 l 1
 389 591 l 1
 295 557 l 1
 333 465 l 1
 287 431 l 1
 251 525 l 1
 181 431 l 1
 147 465 l 1
 218 557 l 1
 135 591 l 1
EndSplineSet
EndChar
StartChar: plus
Encoding: 43 43 12
Width: 479
Flags: W
HStem: 0 21G<210 270> 216 73<82 248 320 484>
DStem: 248 216 307 216 210 0 270 0 298 505 358 505 260 289 320 289
Fore
260 289 m 1
 298 505 l 1
 358 505 l 1
 320 289 l 1
 497 289 l 1
 484 216 l 1
 307 216 l 1
 270 0 l 1
 210 0 l 1
 248 216 l 1
 70 216 l 1
 83 289 l 1
 260 289 l 1
EndSplineSet
EndChar
StartChar: comma
Encoding: 44 44 13
Width: 228
Flags: W
HStem: -20 20G<72 115>
DStem: 90 106 175 106 72 0 158 8
Fore
72 0 m 1
 90 106 l 1
 175 106 l 1
 158 8 l 1
 142 -82 103 -136 46 -147 c 1
 54 -101 l 1
 83 -97 103 -64 115 0 c 1
 72 0 l 1
EndSplineSet
KernsSLIF: 39 -38 1 0 186 -27 1 0 49 -88 1 0
EndChar
StartChar: hyphen
Encoding: 45 45 14
Width: 273
Flags: W
HStem: 232 90<92 277>
Fore
293 322 m 1
 277 232 l 1
 77 232 l 1
 93 322 l 1
 293 322 l 1
EndSplineSet
KernsSLIF: 89 -72 1 0 87 -13 1 0 86 -34 1 0 84 -65 1 0 262 -8 1 0 256 -8 1 0 257 -8 1 0 225 -8 1 0 65 -8 1 0
EndChar
StartChar: period
Encoding: 46 46 15
Width: 228
Flags: W
HStem: 0 21G<71 156>
DStem: 90 106 175 106 71 0 156 0
Fore
175 106 m 1
 156 0 l 1
 71 0 l 1
 90 106 l 1
 175 106 l 1
EndSplineSet
KernsSLIF: 39 -39 1 0 186 -28 1 0 49 -88 1 0
EndChar
StartChar: slash
Encoding: 47 47 16
Width: 228
Flags: W
HStem: -19 21G<-17 38> 717 20G<316 370>
DStem: 316 737 370 737 -17 -19 38 -19
Fore
370 737 m 1
 38 -19 l 1
 -17 -19 l 1
 316 737 l 1
 370 737 l 1
EndSplineSet
EndChar
StartChar: zero
Encoding: 48 48 17
Width: 456
Flags: W
HStem: -19 79<225 241> 624 79<332 351>
VStem: 77 77<172 222> 422 77<460 510>
Fore
351 703 m 0
 448 703 499 628 499 483 c 0
 499 365 466 220 417 124 c 0
 370 30 303 -19 225 -19 c 0
 129 -19 77 57 77 198 c 0
 77 319 109 462 159 560 c 0
 206 653 273 703 351 703 c 0
337 624 m 0
 293 624 255 593 225 535 c 0
 185 455 154 308 154 199 c 0
 154 110 185 60 239 60 c 0
 283 60 323 92 351 149 c 0
 392 233 422 375 422 484 c 0
 422 574 391 624 337 624 c 0
EndSplineSet
KernsSLIF: 55 -28 1 0 49 -40 1 0 52 -2 1 0
EndChar
StartChar: one
Encoding: 49 49 18
Width: 456
Flags: W
HStem: 0 21G<217 295> 683 20G<360 417>
DStem: 304 499 417 703 217 0 295 0
Fore
417 703 m 1
 295 0 l 1
 217 0 l 1
 304 499 l 1
 170 499 l 1
 182 569 l 1
 291 577 320 599 360 703 c 1
 417 703 l 1
EndSplineSet
KernsSLIF: 48 -50 1 0 50 -57 1 0 51 -57 1 0 54 -51 1 0 55 -71 1 0 46 -59 1 0 49 -96 1 0 57 -53 1 0 52 -65 1 0 53 -53 1 0 56 -53 1 0 44 -59 1 0
EndChar
StartChar: two
Encoding: 50 50 19
Width: 456
Flags: W
HStem: 0 83<117 416> 624 79<333 354>
VStem: 427 79<523 543>
Fore
187 451 m 1
 114 451 l 1
 131 533 147 572 179 615 c 0
 221 670 285 703 354 703 c 0
 447 703 506 641 506 543 c 0
 506 483 487 422 455 377 c 0
 425 336 391 308 306 258 c 2
 240 218 l 2
 175 180 131 131 117 83 c 1
 430 83 l 1
 416 0 l 1
 21 0 l 1
 48 131 103 214 205 279 c 2
 291 333 l 2
 359 376 380 394 399 424 c 0
 417 453 427 491 427 525 c 0
 427 587 392 624 333 624 c 0
 258 624 214 572 187 451 c 1
EndSplineSet
KernsSLIF: 55 -21 1 0 49 -37 1 0 52 -46 1 0
EndChar
StartChar: three
Encoding: 51 51 20
Width: 456
Flags: W
HStem: -19 79<218 242> 324 74<240 293> 624 79<331 350>
VStem: 61 75<143 174> 389 80<229 253> 423 77<535 558>
Fore
240 324 m 1xf8
 253 400 l 1
 275 398 283 398 291 398 c 0
 369 398 423 455 423 537 c 0
 423 592 390 624 333 624 c 0
 261 624 221 580 195 473 c 1
 124 473 l 1
 139 545 154 582 184 622 c 0
 223 674 281 703 348 703 c 0
 443 703 500 649 500 558 c 0xf4
 500 472 460 400 395 372 c 1
 417 361 429 353 438 344 c 0
 457 323 469 288 469 253 c 0
 469 192 445 122 408 73 c 0
 363 14 296 -19 220 -19 c 0
 120 -19 61 41 61 145 c 0
 61 163 62 187 65 215 c 1
 140 215 l 1
 137 193 136 175 136 160 c 0
 136 96 172 60 235 60 c 0
 322 60 389 134 389 229 c 0
 389 268 375 296 347 310 c 0
 329 319 304 325 283 325 c 2
 272 325 l 2
 258 324 254 324 240 324 c 1xf8
EndSplineSet
KernsSLIF: 55 -23 1 0 49 -41 1 0
EndChar
StartChar: four
Encoding: 52 52 21
Width: 456
Flags: W
HStem: 0 21G<272 344> 171 76<130 302 387 459> 683 20G<407 467>
DStem: 302 171 374 171 272 0 344 0 371 569 467 703 315 247 387 247 407 703 371 569 65 257 130 247
Fore
459 171 m 1
 374 171 l 1
 344 0 l 1
 272 0 l 1
 302 171 l 1
 50 171 l 1
 65 257 l 1
 407 703 l 1
 467 703 l 1
 387 247 l 1
 472 247 l 1
 459 171 l 1
371 569 m 1
 130 247 l 1
 315 247 l 1
 371 569 l 1
EndSplineSet
KernsSLIF: 55 -47 1 0 49 -72 1 0 52 1 1 0
EndChar
StartChar: five
Encoding: 53 53 22
Width: 456
Flags: W
HStem: -19 76<211 232> 374 79<282 310> 602 86<210 494>
VStem: 55 75<138 174> 385 80<256 280>
DStem: 210 688 249 602 101 311 191 409
Fore
249 602 m 1
 191 409 l 1
 232 440 267 453 310 453 c 0
 401 453 465 382 465 280 c 0
 465 209 438 130 396 74 c 0
 350 13 286 -19 211 -19 c 0
 112 -19 55 39 55 139 c 0
 55 148 55 161 56 175 c 1
 131 175 l 1
 130 168 130 160 130 155 c 0
 130 95 168 57 228 57 c 0
 314 57 385 148 385 258 c 0
 385 329 345 374 282 374 c 0
 239 374 204 354 163 307 c 1
 101 311 l 1
 210 688 l 1
 509 688 l 1
 494 602 l 1
 249 602 l 1
EndSplineSet
KernsSLIF: 55 -23 1 0 49 -63 1 0 52 -3 1 0
EndChar
StartChar: six
Encoding: 54 54 23
Width: 456
Flags: W
HStem: -19 79<228 251> 369 79<297 319> 624 79<345 367>
VStem: 74 75<172 192> 391 77<257 282> 431 73<516 559>
Fore
502 516 m 1xf4
 431 516 l 1xf4
 431 591 407 624 353 624 c 0
 269 624 204 531 168 358 c 1
 210 420 258 448 319 448 c 0
 408 448 468 381 468 282 c 0
 468 200 441 125 391 65 c 0xf8
 342 6 294 -19 228 -19 c 0
 130 -19 74 57 74 190 c 0
 74 287 101 418 140 509 c 0
 195 635 273 703 365 703 c 0
 447 703 504 644 504 559 c 0
 504 547 503 533 502 516 c 1xf4
297 369 m 0
 215 369 149 283 149 176 c 0
 149 105 186 60 245 60 c 0
 324 60 391 151 391 259 c 0xf8
 391 329 357 369 297 369 c 0
EndSplineSet
KernsSLIF: 55 -21 1 0 49 -39 1 0 52 -1 1 0
EndChar
StartChar: seven
Encoding: 55 55 24
Width: 456
Flags: W
HStem: 0 21G<112 192> 602 86<149 453>
Fore
135 602 m 1
 150 688 l 1
 549 688 l 1
 536 611 l 1
 385 446 271 243 192 0 c 1
 112 0 l 1
 172 200 294 415 453 602 c 1
 135 602 l 1
EndSplineSet
KernsSLIF: 50 -22 1 0 51 -22 1 0 54 -32 1 0 55 -3 1 0 46 -99 1 0 49 -42 1 0 52 -76 1 0 53 -30 1 0 56 -24 1 0 44 -99 1 0 58 -55 1 0
EndChar
StartChar: eight
Encoding: 56 56 25
Width: 456
Flags: W
HStem: -19 79<226 244> 330 76<283 301> 624 79<330 349>
VStem: 60 80<141 165> 136 76<475 493> 384 79<227 246> 421 76<539 558>
Fore
193 373 m 1xf4
 177 383 168 390 161 398 c 0
 146 417 136 446 136 475 c 0
 136 524 156 582 189 624 c 0
 228 675 283 703 347 703 c 0
 440 703 497 648 497 558 c 0xea
 497 513 482 463 458 428 c 0
 442 406 426 392 394 374 c 1
 443 342 463 305 463 246 c 0
 463 187 439 118 403 69 c 0
 360 13 297 -19 228 -19 c 0
 127 -19 60 45 60 141 c 0
 60 204 80 270 111 309 c 0
 133 337 152 352 193 373 c 1xf4
286 330 m 0
 203 330 140 259 140 165 c 0
 140 97 176 60 242 60 c 0
 327 60 384 128 384 229 c 0xf4
 384 292 347 330 286 330 c 0
332 624 m 0
 263 624 212 567 212 491 c 0
 212 441 247 406 296 406 c 0
 364 406 421 468 421 541 c 0xea
 421 593 387 624 332 624 c 0
EndSplineSet
KernsSLIF: 55 -24 1 0 49 -43 1 0 52 -1 1 0
EndChar
StartChar: nine
Encoding: 57 57 26
Width: 456
Flags: W
HStem: -19 73<205 222> 235 79<255 277> 624 79<329 346>
VStem: 67 74<124 142> 110 76<396 417> 423 76<502 526>
Fore
70 169 m 1xf4
 142 169 l 1
 141 157 141 148 141 140 c 0xf4
 141 87 171 54 220 54 c 0
 258 54 289 72 319 112 c 0
 351 154 373 208 406 325 c 1
 370 266 318 235 255 235 c 0
 166 235 110 300 110 402 c 0xec
 110 478 136 558 179 615 c 0
 223 673 279 703 344 703 c 0
 444 703 499 633 499 504 c 0
 499 392 463 241 411 138 c 0
 359 35 289 -19 207 -19 c 0
 122 -19 67 38 67 126 c 0
 67 136 68 151 70 169 c 1xf4
331 624 m 0
 250 624 186 532 186 415 c 0xec
 186 349 218 314 277 314 c 0
 321 314 357 334 383 374 c 0
 407 410 423 468 423 518 c 0
 423 585 389 624 331 624 c 0
EndSplineSet
KernsSLIF: 55 -27 1 0 49 -40 1 0 52 -6 1 0
EndChar
StartChar: colon
Encoding: 58 58 27
Width: 228
Flags: W
HStem: 0 21G<71 157>
DStem: 90 106 175 106 71 0 157 0 161 516 247 516 143 410 228 410
Fore
175 106 m 1
 157 0 l 1
 71 0 l 1
 90 106 l 1
 175 106 l 1
247 516 m 1
 228 410 l 1
 143 410 l 1
 161 516 l 1
 247 516 l 1
EndSplineSet
EndChar
StartChar: semicolon
Encoding: 59 59 28
Width: 228
Flags: W
HStem: -20 20G<72 115>
DStem: 90 106 176 106 72 0 158 8 162 516 247 516 143 410 229 410
Fore
72 0 m 1
 90 106 l 1
 176 106 l 1
 158 8 l 1
 142 -82 103 -136 46 -147 c 1
 54 -101 l 1
 84 -97 103 -64 115 0 c 1
 72 0 l 1
229 410 m 1
 143 410 l 1
 162 516 l 1
 247 516 l 1
 229 410 l 1
EndSplineSet
EndChar
StartChar: less
Encoding: 60 60 29
Width: 479
Flags: W
DStem: 77 217 165 253 441 10 455 92 526 496 512 414 89 289 165 253
Fore
441 10 m 1
 77 217 l 1
 89 289 l 1
 526 496 l 1
 512 414 l 1
 165 253 l 1
 455 92 l 1
 441 10 l 1
EndSplineSet
EndChar
StartChar: equal
Encoding: 61 61 30
Width: 479
Flags: W
HStem: 115 73<64 467> 317 73<99 502>
Fore
515 390 m 1
 502 317 l 1
 87 317 l 1
 100 390 l 1
 515 390 l 1
480 188 m 1
 467 115 l 1
 52 115 l 1
 65 188 l 1
 480 188 l 1
EndSplineSet
EndChar
StartChar: greater
Encoding: 62 62 31
Width: 479
Flags: W
DStem: 111 414 126 496 402 253 490 289 402 253 478 217 55 92 41 10
Fore
41 10 m 1
 55 92 l 1
 402 253 l 1
 111 414 l 1
 126 496 l 1
 490 289 l 1
 478 217 l 1
 41 10 l 1
EndSplineSet
EndChar
StartChar: question
Encoding: 63 63 32
Width: 456
Flags: W
HStem: 0 21G<181 261> 651 76<338 356>
VStem: 422 78<559 578>
DStem: 199 102 279 102 181 0 261 0
Fore
204 493 m 1
 132 493 l 1
 151 582 167 618 204 658 c 1
 247 702 301 727 356 727 c 0
 444 727 500 668 500 576 c 0
 500 531 488 486 467 452 c 0
 452 429 431 406 390 366 c 0
 315 294 302 271 287 183 c 1
 215 183 l 1
 234 287 249 316 330 398 c 0
 377 446 391 463 401 480 c 0
 414 502 422 534 422 563 c 0
 422 619 392 651 340 651 c 0
 268 651 225 601 204 493 c 1
279 102 m 1
 261 0 l 1
 181 0 l 1
 199 102 l 1
 279 102 l 1
EndSplineSet
EndChar
StartChar: at
Encoding: 64 64 33
Width: 832
Flags: W
HStem: -19 62<427 449> 136 72<384 413> 675 62<536 564>
VStem: 176 60<268 302> 291 69<257 278> 736 55<460 496>
DStem: 639 556 695 556 612 494 628 392
Fore
612 494 m 1
 639 556 l 1
 695 556 l 1
 628 392 l 1
 571 257 563 234 563 217 c 0
 563 206 567 201 576 201 c 0
 647 201 736 352 736 474 c 0
 736 593 660 675 549 675 c 0
 384 675 236 490 236 286 c 0
 236 143 320 43 442 43 c 0
 520 43 590 80 662 157 c 1
 717 157 l 1
 682 109 665 89 635 64 c 0
 571 10 499 -19 429 -19 c 0
 281 -19 176 105 176 280 c 0
 176 517 361 737 560 737 c 0
 694 737 791 632 791 487 c 0
 791 404 760 315 707 246 c 0
 657 181 588 136 538 136 c 0
 514 136 497 155 497 183 c 0
 497 188 497 193 498 200 c 1
 454 155 420 136 384 136 c 0
 330 136 291 187 291 257 c 0
 291 324 323 411 372 475 c 0
 419 538 476 572 532 572 c 0
 575 572 598 550 612 494 c 1
520 500 m 0
 453 504 360 375 360 278 c 0
 360 236 381 208 413 208 c 0
 456 208 505 252 541 322 c 0
 562 363 573 400 573 429 c 0
 573 470 552 498 520 500 c 0
EndSplineSet
EndChar
StartChar: A
Encoding: 65 65 34
Width: 547
Flags: W
HStem: 0 21G<11 93 449 536> 209 86<231 427> 698 20G<358 448>
DStem: 358 718 381 614 11 0 231 295 358 718 191 209 11 0 93 0
Fore
427 209 m 1
 191 209 l 1
 93 0 l 1
 11 0 l 1
 358 718 l 1
 448 718 l 1
 536 0 l 1
 449 0 l 1
 427 209 l 1
231 295 m 1
 414 295 l 1
 381 614 l 1
 231 295 l 1
EndSplineSet
KernsSLIF: 121 -31 0 0 119 -25 0 0 118 -30 0 0 117 -15 0 0 116 -17 0 0 39 -51 0 0 186 -40 0 0 113 -13 0 0 46 1 0 0 111 -16 0 0 45 -6 0 0 172 -39 0 0 171 -43 0 0 103 -16 0 0 101 -15 0 0 100 -13 0 0 332 -11 0 0 99 -11 0 0 98 -6 0 0 97 -11 0 0 89 -82 0 0 87 -43 0 0 86 -61 0 0 300 -32 0 0 298 -32 0 0 301 -32 0 0 299 -32 0 0 85 -32 0 0 84 -81 0 0 81 -30 0 0 286 -30 0 0 79 -30 0 0 71 -33 0 0 264 -29 0 0 67 -29 0 0
EndChar
StartChar: B
Encoding: 66 66 35
Width: 547
Flags: W
HStem: 0 83<155 334> 335 79<212 366> 635 83<186 414>
VStem: 474 81<239 260> 501 82<556 577>
DStem: 186 718 251 635 61 0 212 414 186 718 199 335 61 0 155 83
Fore
61 0 m 1xf0
 186 718 l 1
 445 718 l 2
 531 718 583 665 583 577 c 0xe8
 583 542 574 503 558 472 c 0
 539 434 517 412 475 387 c 1
 534 355 555 321 555 258 c 0
 555 114 449 0 314 0 c 2
 61 0 l 1xf0
251 635 m 1
 212 414 l 1
 356 414 l 2
 413 414 451 431 475 465 c 0
 490 488 501 526 501 558 c 0
 501 610 466 635 395 635 c 2
 251 635 l 1
199 335 m 1
 155 83 l 1
 324 83 l 2
 413 83 474 149 474 244 c 0xf0
 474 305 434 335 355 335 c 2
 199 335 l 1
EndSplineSet
KernsSLIF: 89 -42 0 0 87 -17 0 0 86 -34 0 0 233 -7 0 0 288 -9 0 0 286 -9 0 0 289 -9 0 0 287 -9 0 0 234 -5 0 0 79 -9 0 0 261 -22 0 0 262 -22 0 0 256 -22 0 0 259 -22 0 0 257 -22 0 0 225 -21 0 0 65 -22 0 0
EndChar
StartChar: C
Encoding: 67 67 36
Width: 592
Flags: W
HStem: -19 86<297 319> 651 86<423 441>
VStem: 88 83<236 270>
Fore
639 502 m 1
 562 502 l 1
 560 559 551 586 526 612 c 0
 503 637 467 651 425 651 c 0
 356 651 293 613 247 543 c 0
 201 475 171 360 171 255 c 0
 171 134 223 67 319 67 c 0
 375 67 421 91 462 140 c 0
 488 172 504 202 527 264 c 1
 604 264 l 1
 563 149 533 99 480 53 c 0
 427 6 362 -19 297 -19 c 0
 166 -19 88 79 88 242 c 0
 88 377 130 518 198 607 c 0
 262 692 346 737 439 737 c 0
 562 737 640 656 640 528 c 0
 640 521 640 513 639 502 c 1
EndSplineSet
KernsSLIF: 286 -13 0 0 287 -13 0 0 79 -13 0 0 75 -13 0 0 72 -13 0 0 262 -32 0 0 256 -32 0 0 257 -32 0 0 225 -31 0 0 65 -32 0 0
EndChar
StartChar: D
Encoding: 68 68 37
Width: 592
Flags: W
HStem: 0 83<160 323> 635 83<191 419>
VStem: 543 83<447 481>
DStem: 191 718 256 635 66 0 160 83
Fore
66 0 m 1
 191 718 l 1
 430 718 l 2
 553 718 626 626 626 472 c 0
 626 345 583 206 515 116 c 0
 457 38 386 0 302 0 c 2
 66 0 l 1
256 635 m 1
 160 83 l 1
 314 83 l 2
 374 83 427 116 468 178 c 0
 512 245 543 361 543 461 c 0
 543 573 494 635 405 635 c 2
 256 635 l 1
EndSplineSet
KernsSLIF: 89 -55 0 0 88 -42 0 0 87 -19 0 0 86 -37 0 0 84 -36 0 0 74 -9 0 0 261 -39 0 0 262 -39 0 0 258 -39 0 0 256 -39 0 0 259 -39 0 0 257 -39 0 0 65 -39 0 0
EndChar
StartChar: E
Encoding: 69 69 38
Width: 547
Flags: W
HStem: 0 86<166 506> 326 86<222 530> 632 86<196 610>
DStem: 196 718 261 632 71 0 222 412 196 718 207 326 71 0 166 86
Fore
521 86 m 1
 506 0 l 1
 71 0 l 1
 196 718 l 1
 625 718 l 1
 610 632 l 1
 261 632 l 1
 222 412 l 1
 545 412 l 1
 530 326 l 1
 207 326 l 1
 166 86 l 1
 521 86 l 1
EndSplineSet
EndChar
StartChar: F
Encoding: 70 70 39
Width: 501
Flags: W
HStem: 0 21G<71 150> 326 86<222 495> 632 86<196 588>
DStem: 196 718 260 632 71 0 222 412 196 718 207 326 71 0 150 0
Fore
207 326 m 1
 150 0 l 1
 71 0 l 1
 196 718 l 1
 603 718 l 1
 588 632 l 1
 260 632 l 1
 222 412 l 1
 510 412 l 1
 495 326 l 1
 207 326 l 1
EndSplineSet
KernsSLIF: 117 -34 0 0 114 -38 0 0 46 -107 0 0 249 -24 0 0 250 -24 0 0 351 -26 0 0 352 -26 0 0 111 -26 0 0 106 -15 0 0 105 -15 0 0 45 -18 0 0 335 -26 0 0 101 -26 0 0 44 -107 0 0 328 -32 0 0 241 -32 0 0 322 -32 0 0 323 -32 0 0 97 -32 0 0 286 -22 0 0 79 -22 0 0 74 -59 0 0 261 -64 0 0 262 -64 0 0 258 -64 0 0 256 -64 0 0 259 -64 0 0 257 -64 0 0 65 -64 0 0
EndChar
StartChar: G
Encoding: 71 71 40
Width: 638
Flags: W
HStem: -19 83<305 331> 301 83<385 555> 651 86<426 447>
VStem: 91 84<236 270>
Fore
372 301 m 1
 386 384 l 1
 644 384 l 1
 578 0 l 1
 526 0 l 1
 523 93 l 1
 458 16 390 -19 305 -19 c 0
 240 -19 190 3 155 47 c 0
 113 100 91 168 91 246 c 0
 91 370 136 513 203 602 c 0
 270 690 354 737 445 737 c 0
 570 737 655 651 655 524 c 2
 655 500 l 1
 578 500 l 1
 574 557 564 585 538 612 c 1
 513 636 474 651 432 651 c 0
 288 651 175 476 175 252 c 0
 175 128 228 64 331 64 c 0
 387 64 436 85 478 129 c 0
 519 171 539 215 555 301 c 1
 372 301 l 1
EndSplineSet
KernsSLIF: 89 -58 0 0 87 -23 0 0 86 -40 0 0 84 -38 0 0 261 -11 0 0 262 -11 0 0 258 -11 0 0 256 -11 0 0 259 -11 0 0 257 -11 0 0 225 -9 0 0 65 -11 0 0
EndChar
StartChar: H
Encoding: 72 72 41
Width: 592
Flags: W
HStem: 0 21G<63 143 450 530> 335 86<216 509> 698 20G<188 268 575 655>
DStem: 188 718 268 718 63 0 216 421 188 718 201 335 63 0 143 0 509 335 655 718 450 0 530 0 575 718 655 718 524 421 530 0
Fore
524 421 m 1
 575 718 l 1
 655 718 l 1
 530 0 l 1
 450 0 l 1
 509 335 l 1
 201 335 l 1
 143 0 l 1
 63 0 l 1
 188 718 l 1
 268 718 l 1
 216 421 l 1
 524 421 l 1
EndSplineSet
EndChar
StartChar: I
Encoding: 73 73 42
Width: 228
Flags: W
HStem: 0 21G<75 154> 698 20G<200 279>
DStem: 200 718 279 718 75 0 154 0
Fore
279 718 m 1
 154 0 l 1
 75 0 l 1
 200 718 l 1
 279 718 l 1
EndSplineSet
EndChar
StartChar: J
Encoding: 74 74 43
Width: 410
Flags: W
HStem: -19 83<176 191> 698 20G<397 476>
VStem: 39 78<120 141>
DStem: 397 718 476 718 304 188 385 194
Fore
55 231 m 1
 129 231 l 1
 121 181 l 1
 118 167 117 154 117 139 c 0
 117 89 141 64 189 64 c 0
 252 64 290 104 304 188 c 1
 397 718 l 1
 476 718 l 1
 385 194 l 1
 361 58 286 -19 178 -19 c 0
 89 -19 39 31 39 120 c 0
 39 133 40 147 42 160 c 1
 55 231 l 1
EndSplineSet
KernsSLIF: 262 -30 0 0 256 -30 0 0 225 -29 0 0 65 -30 0 0
EndChar
StartChar: K
Encoding: 75 75 44
Width: 547
Flags: W
HStem: 0 21G<62 142 440 543> 698 20G<187 267 552 662>
DStem: 187 718 267 718 62 0 206 370 187 718 185 252 62 0 142 0 297 360 366 428 440 0 543 0 552 718 662 718 206 370 366 428
Fore
185 252 m 1
 142 0 l 1
 62 0 l 1
 187 718 l 1
 267 718 l 1
 206 370 l 1
 552 718 l 1
 662 718 l 1
 366 428 l 1
 543 0 l 1
 440 0 l 1
 297 360 l 1
 185 252 l 1
EndSplineSet
KernsSLIF: 121 -59 0 0 362 -29 0 0 117 -29 0 0 351 -36 0 0 352 -36 0 0 111 -36 0 0 45 -43 0 0 101 -35 0 0 328 -15 0 0 241 -15 0 0 322 -15 0 0 97 -15 0 0 84 15 0 0 83 -38 0 0 286 -42 0 0 287 -42 0 0 234 -37 0 0 79 -42 0 0 71 -45 0 0 67 -41 0 0
EndChar
StartChar: L
Encoding: 76 76 45
Width: 456
Flags: W
HStem: 0 86<157 440> 698 20G<187 267>
DStem: 187 718 267 718 62 0 157 86
Fore
267 718 m 1
 157 86 l 1
 455 86 l 1
 440 0 l 1
 62 0 l 1
 187 718 l 1
 267 718 l 1
EndSplineSet
KernsSLIF: 121 -53 0 0 362 -16 0 0 117 -16 0 0 39 -120 0 0 186 -108 0 0 45 -114 0 0 89 -99 0 0 87 -58 0 0 86 -87 0 0 298 -34 0 0 85 -34 0 0 84 -87 0 0 83 -20 0 0 290 -38 0 0 288 -38 0 0 286 -38 0 0 289 -38 0 0 287 -38 0 0 79 -38 0 0 71 -40 0 0 264 -39 0 0 67 -36 0 0 262 10 0 0 256 10 0 0 257 10 0 0 225 12 0 0 65 10 0 0
EndChar
StartChar: M
Encoding: 77 77 46
Width: 683
Flags: W
HStem: 0 21G<60 137 303 381 547 624> 698 20G<185 299 636 749>
DStem: 185 718 211 424 60 0 137 0 241 608 299 718 303 0 362 108 621 424 749 718 547 0 624 0 636 718 655 609 362 108 381 0
Fore
624 0 m 1
 547 0 l 1
 621 424 l 1
 621 424 625 448 629 469 c 0
 633 487 643 547 655 609 c 1
 381 0 l 1
 303 0 l 1
 241 608 l 1
 230 544 222 490 218 470 c 0
 215 448 212 432 211 424 c 1
 137 0 l 1
 60 0 l 1
 185 718 l 1
 299 718 l 1
 362 108 l 1
 636 718 l 1
 749 718 l 1
 624 0 l 1
EndSplineSet
EndChar
StartChar: N
Encoding: 78 78 47
Width: 592
Flags: W
HStem: 0 21G<62 139 440 530> 698 20G<187 282 578 655>
DStem: 187 718 241 583 62 0 139 0 241 583 282 718 440 0 476 135 578 718 655 718 476 135 530 0
Fore
476 135 m 1
 578 718 l 1
 655 718 l 1
 530 0 l 1
 440 0 l 1
 241 583 l 1
 139 0 l 1
 62 0 l 1
 187 718 l 1
 282 718 l 1
 476 135 l 1
EndSplineSet
KernsSLIF: 362 -5 0 0 117 -4 0 0 46 -9 0 0 249 -1 0 0 351 -6 0 0 352 -6 0 0 111 -6 0 0 335 -5 0 0 101 -5 0 0 44 -10 0 0 328 -8 0 0 241 -8 0 0 322 -8 0 0 323 -8 0 0 97 -8 0 0 286 -6 0 0 287 -6 0 0 79 -6 0 0 71 -10 0 0 264 -5 0 0 67 -6 0 0 262 -12 0 0 256 -12 0 0 257 -12 0 0 225 -10 0 0 65 -12 0 0
EndChar
StartChar: O
Encoding: 79 79 48
Width: 638
Flags: W
HStem: -19 86<314 332> 651 86<430 449>
VStem: 86 83<252 286> 594 83<428 462>
Fore
447 737 m 0
 593 737 677 634 677 456 c 0
 677 335 635 207 566 115 c 0
 499 26 415 -19 316 -19 c 0
 251 -19 193 3 156 42 c 0
 114 86 86 173 86 261 c 0
 86 383 128 512 196 603 c 0
 263 691 349 737 447 737 c 0
432 651 m 0
 287 651 169 482 169 274 c 0
 169 145 230 67 330 67 c 0
 415 67 491 121 540 216 c 0
 574 283 594 366 594 445 c 0
 594 573 533 651 432 651 c 0
EndSplineSet
KernsSLIF: 89 -53 0 0 88 -39 0 0 87 -16 0 0 86 -34 0 0 84 -34 0 0 262 -36 0 0 256 -36 0 0 257 -36 0 0 225 -37 0 0 65 -36 0 0
EndChar
StartChar: P
Encoding: 80 80 49
Width: 547
Flags: W
HStem: 0 21G<71 150> 303 83<218 392> 635 83<196 440>
VStem: 521 83<543 565>
DStem: 196 718 261 635 71 0 218 386 196 718 203 303 71 0 150 0
Fore
203 303 m 1
 150 0 l 1
 71 0 l 1
 196 718 l 1
 461 718 l 2
 549 718 604 659 604 565 c 0
 604 501 581 432 544 383 c 0
 504 330 451 303 388 303 c 2
 203 303 l 1
261 635 m 1
 218 386 l 1
 376 386 l 2
 429 386 466 404 491 440 c 0
 509 467 521 512 521 549 c 0
 521 606 487 635 422 635 c 2
 261 635 l 1
EndSplineSet
KernsSLIF: 46 -126 0 0 249 -29 0 0 250 -28 0 0 351 -31 0 0 352 -31 0 0 111 -31 0 0 45 -36 0 0 335 -31 0 0 101 -31 0 0 44 -126 0 0 328 -27 0 0 241 -27 0 0 322 -27 0 0 323 -27 0 0 97 -27 0 0 74 -78 0 0 262 -71 0 0 256 -71 0 0 257 -71 0 0 225 -72 0 0 65 -71 0 0
EndChar
StartChar: Q
Encoding: 81 81 50
Width: 638
Flags: W
HStem: -19 86<314 343> 651 86<421 449>
VStem: 86 83<247 281> 594 83<423 458>
DStem: 476 29 534 78 551 -56 601 2
Fore
601 2 m 1
 551 -56 l 1
 476 29 l 1
 422 -5 375 -19 316 -19 c 0
 251 -19 193 3 156 42 c 0
 113 87 86 173 86 261 c 0
 86 384 127 511 197 603 c 0
 264 692 348 737 447 737 c 0
 512 737 570 715 607 676 c 0
 650 631 677 545 677 456 c 0
 677 377 660 296 627 220 c 0
 602 162 582 132 534 78 c 1
 601 2 l 1
370 148 m 1
 421 208 l 1
 483 137 l 1
 521 179 538 206 558 255 c 0
 581 314 594 381 594 443 c 0
 594 573 533 651 433 651 c 0
 287 651 169 482 169 274 c 0
 169 145 230 67 331 67 c 0
 363 67 390 74 422 90 c 1
 370 148 l 1
EndSplineSet
EndChar
StartChar: R
Encoding: 82 82 51
Width: 592
Flags: W
HStem: 0 21G<72 152 463 561> 308 83<220 409> 635 83<197 472>
VStem: 463 81<17 54> 486 82<230 263> 549 85<551 575>
DStem: 197 718 262 635 72 0 220 391 197 718 205 308 72 0 152 0
Fore
205 308 m 1xe8
 152 0 l 1
 72 0 l 1
 197 718 l 1
 470 718 l 2
 577 718 634 668 634 575 c 0xe4
 634 520 617 459 590 420 c 0
 572 393 555 378 518 353 c 1
 557 331 568 312 568 263 c 0xe8
 568 251 567 233 565 218 c 2
 547 88 l 2
 545 74 544 63 544 54 c 0
 544 38 549 29 564 16 c 1
 561 0 l 1
 463 0 l 1
 463 17 l 2xf0
 463 48 470 115 481 180 c 0
 484 200 486 217 486 230 c 0
 486 281 455 308 398 308 c 2
 205 308 l 1xe8
262 635 m 1
 220 391 l 1
 404 391 l 2
 459 391 496 408 520 444 c 0
 537 470 549 514 549 552 c 0
 549 608 521 635 461 635 c 2
 262 635 l 1
EndSplineSet
KernsSLIF: 121 -10 0 0 362 -8 0 0 363 -8 0 0 117 -8 0 0 250 -9 0 0 351 -10 0 0 352 -10 0 0 111 -10 0 0 335 -9 0 0 101 -9 0 0 328 -11 0 0 241 -11 0 0 322 -11 0 0 323 -11 0 0 97 -11 0 0 89 -39 0 0 87 -17 0 0 86 -33 0 0 298 -13 0 0 85 -13 0 0 84 -19 0 0 286 -11 0 0 287 -11 0 0 234 -7 0 0 79 -11 0 0 71 -14 0 0 264 -10 0 0 67 -11 0 0
EndChar
StartChar: S
Encoding: 83 83 52
Width: 547
Flags: W
HStem: -19 83<270 299> 654 83<377 400>
VStem: 74 78<157 186> 146 81<475 506> 467 80<217 246> 507 77<539 569>
Fore
580 508 m 1xd4
 505 508 l 1
 506 521 507 532 507 541 c 0
 507 611 460 654 384 654 c 0
 292 654 227 593 227 506 c 0xd4
 227 470 245 448 283 437 c 2
 442 390 l 2
 511 370 547 320 547 246 c 0
 547 89 435 -19 272 -19 c 0
 193 -19 144 2 109 50 c 0
 87 82 74 120 74 157 c 0
 74 176 76 202 81 232 c 1
 156 232 l 1
 153 214 152 197 152 186 c 0
 152 110 205 64 291 64 c 0
 399 64 467 123 467 217 c 0xe8
 467 265 441 288 360 312 c 2
 246 346 l 2
 180 366 146 410 146 475 c 0
 146 532 169 598 205 645 c 0
 251 706 315 737 398 737 c 0
 515 737 584 674 584 569 c 0
 584 554 583 532 580 508 c 1xd4
EndSplineSet
KernsSLIF: 116 -10 0 0 89 -42 0 0 87 -20 0 0 86 -36 0 0 84 -22 0 0 262 -22 0 0 256 -22 0 0 257 -22 0 0 225 -21 0 0 65 -22 0 0
EndChar
StartChar: T
Encoding: 84 84 53
Width: 501
Flags: W
HStem: 0 21G<211 291> 632 86<136 321 137 600>
DStem: 321 632 401 632 211 0 291 0
Fore
122 632 m 1
 137 718 l 1
 615 718 l 1
 600 632 l 1
 401 632 l 1
 291 0 l 1
 211 0 l 1
 321 632 l 1
 122 632 l 1
EndSplineSet
KernsSLIF: 121 -88 0 0 119 -85 0 0 118 -87 0 0 117 -79 0 0 59 -102 0 0 115 -78 0 0 114 -81 0 0 46 -84 0 0 249 -76 0 0 111 -81 0 0 106 -9 0 0 105 -9 0 0 45 -65 0 0 172 -100 0 0 171 -104 0 0 103 -78 0 0 101 -80 0 0 44 -84 0 0 58 -106 0 0 99 -76 0 0 241 -83 0 0 97 -83 0 0 89 9 0 0 87 10 0 0 86 7 0 0 83 -23 0 0 290 -34 0 0 233 -36 0 0 288 -34 0 0 286 -34 0 0 289 -34 0 0 287 -34 0 0 234 -28 0 0 79 -34 0 0 74 -88 0 0 71 -39 0 0 67 -34 0 0 261 -86 0 0 262 -86 0 0 258 -86 0 0 256 -86 0 0 259 -86 0 0 257 -86 0 0 225 -84 0 0 65 -86 0 0
EndChar
StartChar: U
Encoding: 85 85 54
Width: 592
Flags: W
HStem: -19 86<287 309> 698 20G<190 269 574 653>
VStem: 101 84<176 202>
DStem: 190 718 269 718 106 239 191 266 574 718 653 718 494 264 572 252
Fore
574 718 m 1
 653 718 l 1
 572 252 l 1
 543 87 433 -19 289 -19 c 0
 169 -19 101 52 101 176 c 0
 101 197 103 218 106 239 c 1
 190 718 l 1
 269 718 l 1
 191 266 l 1
 187 245 185 223 185 202 c 0
 185 115 228 67 307 67 c 0
 404 67 473 139 494 264 c 1
 574 718 l 1
EndSplineSet
KernsSLIF: 114 -14 0 0 46 -27 0 0 112 -7 0 0 110 -9 0 0 109 -9 0 0 44 -30 0 0 261 -37 0 0 262 -37 0 0 256 -37 0 0 259 -37 0 0 257 -37 0 0 225 -38 0 0 65 -37 0 0
EndChar
StartChar: V
Encoding: 86 86 55
Width: 547
Flags: W
HStem: 0 21G<232 316> 698 20G<142 231 567 656>
Fore
292 103 m 1
 567 718 l 1
 656 718 l 1
 316 0 l 1
 232 0 l 1
 142 718 l 1
 231 718 l 1
 292 103 l 1
EndSplineSet
KernsSLIF: 121 -19 0 0 117 -40 0 0 59 -48 0 0 114 -43 0 0 46 -77 0 0 249 -45 0 0 111 -51 0 0 105 -10 0 0 45 -33 0 0 172 -68 0 0 171 -72 0 0 103 -47 0 0 101 -50 0 0 44 -77 0 0 58 -48 0 0 241 -52 0 0 97 -52 0 0 84 12 0 0 83 -33 0 0 290 -36 0 0 233 -33 0 0 288 -36 0 0 286 -36 0 0 289 -36 0 0 287 -36 0 0 79 -36 0 0 71 -39 0 0 67 -36 0 0 261 -63 0 0 262 -63 0 0 258 -63 0 0 256 -63 0 0 259 -63 0 0 257 -63 0 0 225 -64 0 0 65 -63 0 0
EndChar
StartChar: W
Encoding: 87 87 56
Width: 774
Flags: W
HStem: 0 21G<166 250 522 606> 698 20G<138 224 468 555 798 886>
DStem: 468 718 491 599 232 130 250 0 491 599 555 718 522 0 585 130
Fore
491 599 m 1
 250 0 l 1
 166 0 l 1
 138 718 l 1
 224 718 l 1
 232 130 l 1
 468 718 l 1
 555 718 l 1
 585 130 l 1
 798 718 l 1
 886 718 l 1
 606 0 l 1
 522 0 l 1
 491 599 l 1
EndSplineSet
KernsSLIF: 121 -10 0 0 117 -28 0 0 59 -38 0 0 114 -30 0 0 46 -50 0 0 249 -25 0 0 111 -30 0 0 105 -9 0 0 45 -14 0 0 172 -48 0 0 171 -52 0 0 103 -27 0 0 101 -29 0 0 44 -50 0 0 58 -38 0 0 241 -32 0 0 97 -32 0 0 84 13 0 0 83 -25 0 0 290 -20 0 0 233 -17 0 0 288 -20 0 0 286 -20 0 0 289 -20 0 0 287 -20 0 0 79 -20 0 0 71 -23 0 0 67 -20 0 0 261 -46 0 0 262 -46 0 0 258 -46 0 0 256 -46 0 0 259 -46 0 0 257 -46 0 0 225 -47 0 0 65 -46 0 0
EndChar
StartChar: X
Encoding: 88 88 57
Width: 547
Flags: W
HStem: 0 21G<16 112 433 531> 698 20G<154 254 552 647>
DStem: 154 718 254 718 290 368 355 443 290 368 326 295 16 0 112 0 326 295 389 368 433 0 531 0 552 718 647 718 355 443 389 368
Fore
389 368 m 1
 531 0 l 1
 433 0 l 1
 326 295 l 1
 112 0 l 1
 16 0 l 1
 290 368 l 1
 154 718 l 1
 254 718 l 1
 355 443 l 1
 552 718 l 1
 647 718 l 1
 389 368 l 1
EndSplineSet
KernsSLIF: 121 -50 0 0 117 -35 0 0 111 -41 0 0 45 -45 0 0 101 -40 0 0 97 -20 0 0 81 -37 0 0 286 -37 0 0 79 -37 0 0 67 -37 0 0
EndChar
StartChar: Y
Encoding: 89 89 58
Width: 547
Flags: W
HStem: 0 21G<234 314> 698 20G<137 230 568 661>
DStem: 284 289 364 289 234 0 314 0
Fore
364 289 m 1
 314 0 l 1
 234 0 l 1
 284 289 l 1
 137 718 l 1
 230 718 l 1
 338 373 l 1
 568 718 l 1
 661 718 l 1
 364 289 l 1
EndSplineSet
MinimumDistance: x4,8 
KernsSLIF: 118 -38 0 0 117 -60 0 0 59 -67 0 0 46 -95 0 0 112 -53 0 0 249 -72 0 0 111 -78 0 0 105 -8 0 0 45 -72 0 0 172 -102 0 0 171 -106 0 0 103 -75 0 0 101 -77 0 0 44 -95 0 0 58 -67 0 0 241 -79 0 0 97 -79 0 0 84 14 0 0 83 -39 0 0 290 -49 0 0 233 -50 0 0 288 -49 0 0 286 -49 0 0 289 -49 0 0 287 -49 0 0 79 -49 0 0 71 -53 0 0 67 -48 0 0 261 -84 0 0 262 -84 0 0 258 -84 0 0 256 -84 0 0 259 -84 0 0 257 -84 0 0 225 -85 0 0 65 -84 0 0
EndChar
StartChar: Z
Encoding: 90 90 59
Width: 501
Flags: W
HStem: 0 86<135 482> 632 86<170 490>
DStem: 490 632 592 634 33 81 135 86
Fore
497 86 m 1
 482 0 l 1
 19 0 l 1
 33 81 l 1
 490 632 l 1
 156 632 l 1
 171 718 l 1
 607 718 l 1
 592 634 l 1
 135 86 l 1
 497 86 l 1
EndSplineSet
KernsSLIF: 121 -33 0 0 118 -32 0 0
EndChar
StartChar: bracketleft
Encoding: 91 91 60
Width: 228
Flags: W
HStem: -196 71<94 171> 651 71<177 319>
DStem: 177 722 230 651 17 -196 94 -125
Fore
230 651 m 1
 94 -125 l 1
 183 -125 l 1
 171 -196 l 1
 17 -196 l 1
 177 722 l 1
 331 722 l 1
 319 651 l 1
 230 651 l 1
EndSplineSet
EndChar
StartChar: backslash
Encoding: 92 92 61
Width: 228
Flags: W
HStem: -19 21G<184 239> 717 20G<115 169>
DStem: 115 737 169 737 184 -19 239 -19
Fore
184 -19 m 1
 115 737 l 1
 169 737 l 1
 239 -19 l 1
 184 -19 l 1
EndSplineSet
EndChar
StartChar: bracketright
Encoding: 93 93 62
Width: 228
Flags: W
HStem: -196 71<0 142> 651 71<148 225>
DStem: 225 651 302 722 90 -125 142 -196
Fore
90 -125 m 1
 225 651 l 1
 136 651 l 1
 149 722 l 1
 302 722 l 1
 142 -196 l 1
 -11 -196 l 1
 1 -125 l 1
 90 -125 l 1
EndSplineSet
EndChar
StartChar: asciicircum
Encoding: 94 94 63
Width: 385
Flags: W
HStem: 668 20G<283 342>
DStem: 283 688 299 608 35 264 99 264 299 608 342 688 379 264 442 264
Fore
442 264 m 1
 379 264 l 1
 299 608 l 1
 99 264 l 1
 35 264 l 1
 283 688 l 1
 342 688 l 1
 442 264 l 1
EndSplineSet
EndChar
StartChar: underscore
Encoding: 95 95 64
Width: 456
Flags: W
HStem: -125 50<-14 434>
Fore
434 -125 m 1
 -22 -125 l 1
 -13 -75 l 1
 443 -75 l 1
 434 -125 l 1
EndSplineSet
EndChar
StartChar: quoteleft
Encoding: 96 8216 65
Width: 182
Flags: W
DStem: 152 568 239 576 135 470 220 470
Fore
239 576 m 1
 220 470 l 1
 135 470 l 1
 152 568 l 2
 168 659 203 707 265 725 c 1
 257 678 l 1
 224 671 206 641 195 576 c 1
 239 576 l 1
EndSplineSet
KernsSLIF: 89 -4 1 0 87 15 1 0 86 7 1 0 84 -2 1 0 262 -57 1 0 256 -57 1 0 257 -57 1 0 225 -60 1 0 65 -57 1 0
EndChar
StartChar: a
Encoding: 97 97 66
Width: 456
Flags: W
HStem: -15 73<164 190> 465 73<296 318>
VStem: 50 77<101 123> 384 74<400 423>
DStem: 361 267 455 392 346 181 403 91
Fore
180 364 m 1
 114 364 l 1
 126 416 137 441 159 469 c 0
 193 513 250 538 316 538 c 0
 405 538 458 495 458 423 c 0
 458 413 457 402 455 392 c 1
 403 91 l 2
 402 85 401 81 401 80 c 0
 400 69 408 60 420 60 c 0
 426 60 433 61 446 64 c 1
 434 0 l 1
 425 -3 l 2
 409 -9 402 -10 391 -10 c 0
 351 -10 329 10 329 46 c 0
 329 51 330 61 331 70 c 1
 274 10 225 -15 164 -15 c 0
 93 -15 50 29 50 101 c 0
 50 206 115 286 212 300 c 2
 334 318 l 2
 366 323 384 353 384 400 c 0
 384 442 354 465 298 465 c 0
 235 465 203 438 180 364 c 1
346 181 m 1
 361 267 l 1
 344 253 322 248 236 234 c 0
 160 221 127 187 127 121 c 0
 127 80 149 58 190 58 c 0
 263 58 335 114 346 181 c 1
EndSplineSet
KernsSLIF: 121 -24 0 0 119 -16 0 0 118 -21 0 0 39 -13 0 0 106 -9 0 0
EndChar
StartChar: b
Encoding: 98 98 67
Width: 456
Flags: W
HStem: -15 76<232 247> 459 79<313 341> 698 20G<173 245>
VStem: 404 75<336 357>
DStem: 173 718 245 718 48 0 199 455 173 718 128 68 48 0 116 0
Fore
116 0 m 1
 48 0 l 1
 173 718 l 1
 245 718 l 1
 199 455 l 1
 247 514 288 538 341 538 c 0
 426 538 479 468 479 355 c 0
 479 256 445 145 391 73 c 0
 348 15 295 -15 234 -15 c 0
 179 -15 149 8 128 68 c 1
 116 0 l 1
313 459 m 0
 266 459 227 431 200 378 c 0
 173 323 153 240 153 179 c 0
 153 107 189 61 245 61 c 0
 290 61 331 92 359 147 c 0
 386 199 404 281 404 348 c 0
 404 419 371 459 313 459 c 0
EndSplineSet
KernsSLIF: 121 -19 0 0 119 -9 0 0 118 -15 0 0
EndChar
StartChar: c
Encoding: 99 99 68
Width: 410
Flags: W
HStem: -15 76<212 229> 459 79<300 323>
VStem: 61 78<160 194>
Fore
452 347 m 1
 382 347 l 1
 381 384 381 387 377 403 c 0
 366 440 340 459 300 459 c 0
 252 459 211 429 182 372 c 0
 156 321 139 245 139 180 c 0
 139 103 170 61 227 61 c 0
 282 61 324 102 354 185 c 1
 424 185 l 1
 383 52 313 -15 214 -15 c 0
 119 -15 61 55 61 172 c 0
 61 269 94 375 145 443 c 0
 192 505 253 538 323 538 c 0
 404 538 454 482 454 390 c 0
 454 379 453 364 452 347 c 1
EndSplineSet
KernsSLIF: 107 -4 0 0 104 -3 0 0
EndChar
StartChar: d
Encoding: 100 100 69
Width: 456
Flags: W
HStem: -15 76<214 230> 459 79<292 310> 698 20G<462 534>
VStem: 69 74<176 210>
DStem: 354 75 534 718 341 0 409 0 462 718 534 718 414 444 409 0
Fore
534 718 m 1
 409 0 l 1
 341 0 l 1
 354 75 l 1
 311 10 272 -15 214 -15 c 0
 121 -15 69 57 69 185 c 0
 69 381 171 538 300 538 c 0
 358 538 392 511 414 444 c 1
 462 718 l 1
 534 718 l 1
299 459 m 0
 251 459 209 430 185 380 c 0
 159 328 143 253 143 186 c 0
 143 107 174 61 228 61 c 0
 269 61 309 85 337 128 c 0
 366 170 387 257 387 334 c 0
 387 417 358 459 299 459 c 0
EndSplineSet
EndChar
StartChar: e
Encoding: 101 101 70
Width: 456
Flags: W
HStem: -15 76<226 246> 233 70<162 463> 459 79<308 329>
VStem: 69 75<160 194> 403 71<336 370>
Fore
373 164 m 1
 445 164 l 1
 407 51 326 -15 226 -15 c 0
 126 -15 69 53 69 172 c 0
 69 269 102 375 153 443 c 0
 199 505 261 538 329 538 c 0
 380 538 421 518 442 482 c 0
 461 449 474 399 474 354 c 0
 474 323 470 282 463 233 c 1
 150 233 l 1
 146 208 144 187 144 171 c 0
 144 103 181 61 242 61 c 0
 300 61 355 104 373 164 c 1
162 303 m 1
 401 303 l 1
 402 321 403 337 403 350 c 0
 403 417 368 459 312 459 c 0
 243 459 183 396 162 303 c 1
EndSplineSet
KernsSLIF: 121 -22 0 0 120 -22 0 0 119 -12 0 0 118 -18 0 0 116 -12 0 0 39 -8 0 0
EndChar
StartChar: f
Encoding: 102 102 71
Width: 228
Flags: W
HStem: 0 21G<71 143> 450 73<102 149 234 293> 649 79<291 312>
DStem: 149 450 221 450 71 0 143 0
Fore
293 450 m 1
 221 450 l 1
 143 0 l 1
 71 0 l 1
 149 450 l 1
 90 450 l 1
 103 523 l 1
 162 523 l 1
 177 613 l 1
 190 688 235 728 307 728 c 0
 315 728 319 728 341 726 c 1
 327 647 l 1
 314 648 304 649 298 649 c 0
 268 649 253 631 245 588 c 1
 234 523 l 1
 306 523 l 1
 293 450 l 1
EndSplineSet
KernsSLIF: 116 11 0 0 115 -10 0 0 39 1 0 0 249 -11 0 0 250 -16 0 0 351 -17 0 0 352 -17 0 0 111 -17 0 0 108 -10 0 0 106 -10 0 0 105 -10 0 0 102 11 0 0 335 -16 0 0 101 -16 0 0 328 -14 0 0 241 -14 0 0 322 -14 0 0 323 -14 0 0 97 -14 0 0
EndChar
StartChar: g
Encoding: 103 103 72
Width: 456
Flags: W
HStem: -220 73<171 195> -15 76<216 234> 459 79<289 307>
VStem: 72 74<163 213>
DStem: 432 523 500 523 418 446 416 43
Fore
500 523 m 1
 416 43 l 1
 402 -41 382 -93 350 -136 c 0
 309 -191 247 -220 173 -220 c 0
 130 -220 96 -209 72 -188 c 0
 44 -162 34 -133 34 -74 c 2
 34 -64 l 1
 106 -64 l 1
 109 -122 133 -147 188 -147 c 0
 238 -147 276 -128 302 -88 c 0
 321 -60 332 -27 343 37 c 1
 347 58 l 1
 309 7 270 -15 216 -15 c 0
 125 -15 72 58 72 184 c 0
 72 381 175 538 303 538 c 0
 361 538 391 514 418 446 c 1
 432 523 l 1
 500 523 l 1
302 459 m 0
 254 459 212 430 188 380 c 0
 162 329 146 253 146 185 c 0
 146 107 178 61 232 61 c 0
 272 61 313 85 341 128 c 0
 370 170 391 257 391 334 c 0
 391 417 361 459 302 459 c 0
EndSplineSet
KernsSLIF: 114 -3 0 0 351 -3 0 0 352 -3 0 0 335 -3 0 0 101 -3 0 0 328 -5 0 0 241 -5 0 0 322 -5 0 0 97 -5 0 0
EndChar
StartChar: h
Encoding: 104 104 73
Width: 456
Flags: W
HStem: 0 21G<53 125 331 403> 459 79<327 351> 698 20G<178 251>
VStem: 395 75<388 410>
DStem: 178 718 251 718 53 0 204 451 178 718 175 285 53 0 125 0 390 342 465 356 331 0 403 0
Fore
251 718 m 1
 204 451 l 1
 257 516 294 538 351 538 c 0
 426 538 470 491 470 410 c 0
 470 393 468 375 465 356 c 1
 403 0 l 1
 331 0 l 1
 390 342 l 1
 393 358 395 378 395 390 c 0
 395 437 373 459 327 459 c 0
 250 459 194 396 175 285 c 1
 125 0 l 1
 53 0 l 1
 178 718 l 1
 251 718 l 1
EndSplineSet
KernsSLIF: 121 -18 0 0 39 -6 0 0
EndChar
StartChar: i
Encoding: 105 105 74
Width: 182
Flags: W
HStem: 0 21G<55 127> 503 20G<146 218> 698 20G<180 252>
DStem: 146 523 218 523 55 0 127 0 180 718 252 718 163 618 235 618
Fore
218 523 m 1
 127 0 l 1
 55 0 l 1
 146 523 l 1
 218 523 l 1
235 618 m 1
 163 618 l 1
 180 718 l 1
 252 718 l 1
 235 618 l 1
EndSplineSet
KernsSLIF: 106 -3 0 0 84 -9 0 0
EndChar
StartChar: j
Encoding: 106 106 75
Width: 182
Flags: W
HStem: -210 79<-36 0> 503 20G<146 218> 698 20G<180 252>
DStem: 146 523 218 523 43 -67 114 -77 180 718 252 718 163 618 235 618
Fore
218 523 m 1
 114 -77 l 1
 98 -168 57 -210 -17 -210 c 0
 -28 -210 -38 -209 -49 -207 c 1
 -36 -131 l 1
 -21 -131 l 2
 25 -131 34 -122 43 -67 c 1
 146 523 l 1
 218 523 l 1
252 718 m 1
 235 618 l 1
 163 618 l 1
 180 718 l 1
 252 718 l 1
EndSplineSet
EndChar
StartChar: k
Encoding: 107 107 76
Width: 410
Flags: W
HStem: 0 21G<55 125 318 411> 503 20G<400 492> 698 20G<180 250>
DStem: 180 718 250 718 55 0 177 302 180 718 159 198 55 0 125 0 231 264 294 328 318 0 411 0 400 523 492 523 177 302 294 328
Fore
294 328 m 1
 411 0 l 1
 318 0 l 1
 231 264 l 1
 159 198 l 1
 125 0 l 1
 55 0 l 1
 180 718 l 1
 250 718 l 1
 177 302 l 1
 400 523 l 1
 492 523 l 1
 294 328 l 1
EndSplineSet
KernsSLIF: 362 -8 0 0 117 -8 0 0 115 -16 0 0 46 -4 0 0 351 -23 0 0 352 -23 0 0 111 -23 0 0 45 -35 0 0 103 -20 0 0 335 -22 0 0 101 -22 0 0 44 -5 0 0 328 -12 0 0 241 -13 0 0 322 -12 0 0 323 -12 0 0 97 -12 0 0
EndChar
StartChar: l
Encoding: 108 108 77
Width: 182
Flags: W
HStem: 0 21G<55 127> 698 20G<180 252>
DStem: 180 718 252 718 55 0 127 0
Fore
252 718 m 1
 127 0 l 1
 55 0 l 1
 180 718 l 1
 252 718 l 1
EndSplineSet
KernsSLIF: 121 -10 0 0 118 -9 0 0
EndChar
StartChar: m
Encoding: 109 109 78
Width: 683
Flags: W
HStem: 0 21G<53 125 306 378 559 631> 459 79<320 348 561 590>
VStem: 622 77<387 414>
DStem: 144 523 213 523 53 0 199 446 144 523 175 285 53 0 125 0 369 362 434 319 306 0 378 0 618 338 694 362 559 0 631 0
Fore
53 0 m 1
 144 523 l 1
 213 523 l 1
 199 446 l 1
 248 511 291 538 348 538 c 0
 401 538 430 513 446 453 c 1
 508 520 538 538 590 538 c 0
 658 538 699 491 699 414 c 0
 699 397 697 379 694 362 c 2
 631 0 l 1
 559 0 l 1
 618 338 l 1
 621 354 622 369 622 387 c 0
 622 434 601 459 561 459 c 0
 503 459 448 398 434 319 c 2
 378 0 l 1
 306 0 l 1
 369 362 l 1
 371 372 372 384 372 393 c 0
 372 436 353 459 320 459 c 0
 250 459 193 391 175 285 c 1
 125 0 l 1
 53 0 l 1
EndSplineSet
KernsSLIF: 121 -18 0 0 119 -10 0 0 118 -15 0 0
EndChar
StartChar: n
Encoding: 110 110 79
Width: 456
Flags: W
HStem: 0 21G<53 125 331 403> 459 79<323 352>
VStem: 392 78<382 410>
DStem: 144 523 212 523 53 0 199 446 144 523 175 285 53 0 125 0 387 322 465 356 331 0 403 0
Fore
212 523 m 1
 199 446 l 1
 249 511 293 538 352 538 c 0
 426 538 470 490 470 410 c 0
 470 393 468 375 465 356 c 1
 403 0 l 1
 331 0 l 1
 387 322 l 1
 390 342 392 362 392 382 c 0
 392 433 369 459 323 459 c 0
 250 459 194 393 175 285 c 2
 125 0 l 1
 53 0 l 1
 144 523 l 1
 212 523 l 1
EndSplineSet
KernsSLIF: 121 -18 0 0 119 -11 0 0 118 -16 0 0 39 -6 0 0 112 -1 0 0 84 -79 0 0
EndChar
StartChar: o
Encoding: 111 111 80
Width: 456
Flags: W
HStem: -14 76<224 245> 462 76<306 322>
VStem: 68 75<177 211> 404 75<321 338>
Fore
322 538 m 0
 420 538 479 462 479 336 c 0
 479 244 448 149 397 81 c 0
 350 18 292 -14 225 -14 c 0
 127 -14 68 62 68 189 c 0
 68 278 100 377 150 443 c 0
 197 505 256 538 322 538 c 0
308 462 m 0
 258 462 215 430 184 370 c 0
 158 320 143 256 143 198 c 0
 143 110 177 62 239 62 c 0
 289 62 332 94 363 154 c 0
 389 204 404 268 404 325 c 0
 404 413 370 462 308 462 c 0
EndSplineSet
KernsSLIF: 121 -20 0 0 120 -20 0 0 119 -10 0 0 118 -16 0 0 116 -10 0 0 39 -10 0 0 84 -80 0 0
EndChar
StartChar: p
Encoding: 112 112 81
Width: 456
Flags: W
HStem: -15 76<232 252> 459 79<313 341>
VStem: 404 75<336 357>
DStem: 138 523 207 523 11 -207 193 446 138 523 130 58 11 -207 83 -207
Fore
11 -207 m 1
 138 523 l 1
 207 523 l 1
 193 446 l 1
 245 515 282 538 341 538 c 0
 426 538 479 468 479 355 c 0
 479 256 445 145 391 73 c 0
 348 15 295 -15 234 -15 c 0
 181 -15 149 7 130 58 c 1
 83 -207 l 1
 11 -207 l 1
313 459 m 0
 266 459 226 430 200 378 c 0
 172 320 153 239 153 178 c 0
 153 107 189 61 245 61 c 0
 283 61 319 84 346 125 c 0
 378 173 404 273 404 348 c 0
 404 419 372 459 313 459 c 0
EndSplineSet
KernsSLIF: 121 -19 0 0 116 -9 0 0
EndChar
StartChar: q
Encoding: 113 113 82
Width: 456
Flags: W
HStem: -15 76<213 230> 459 79<292 310>
VStem: 69 74<176 210>
DStem: 343 58 496 523 297 -207 369 -207 428 523 496 523 415 446 369 -207
Fore
496 523 m 1
 369 -207 l 1
 297 -207 l 1
 343 58 l 1
 305 7 266 -15 213 -15 c 0
 121 -15 69 58 69 185 c 0
 69 381 171 538 300 538 c 0
 357 538 387 514 415 446 c 1
 428 523 l 1
 496 523 l 1
299 459 m 0
 251 459 210 431 184 380 c 0
 159 331 143 254 143 186 c 0
 143 107 174 61 228 61 c 0
 321 61 387 174 387 335 c 0
 387 417 357 459 299 459 c 0
EndSplineSet
KernsSLIF: 117 -3 0 0
EndChar
StartChar: r
Encoding: 114 114 83
Width: 273
Flags: W
HStem: 0 21G<63 135> 444 94<334 349>
DStem: 154 523 222 523 63 0 206 433 154 523 188 304 63 0 135 0
Fore
349 444 m 1
 322 444 l 2
 259 444 202 385 188 304 c 2
 135 0 l 1
 63 0 l 1
 154 523 l 1
 222 523 l 1
 206 433 l 1
 258 509 296 538 347 538 c 0
 354 538 359 537 365 535 c 1
 349 444 l 1
EndSplineSet
KernsSLIF: 121 16 0 0 120 12 0 0 119 15 0 0 118 17 0 0 117 -5 0 0 116 17 0 0 59 -12 0 0 115 -4 0 0 114 -9 0 0 39 3 0 0 113 -9 0 0 46 -52 0 0 112 -1 0 0 249 -15 0 0 353 -18 0 0 250 -15 0 0 351 -18 0 0 354 -18 0 0 352 -18 0 0 111 -18 0 0 110 -4 0 0 109 -4 0 0 108 -5 0 0 107 -5 0 0 106 -5 0 0 105 -5 0 0 45 -34 0 0 104 -4 0 0 103 -8 0 0 102 17 0 0 336 -16 0 0 337 -16 0 0 335 -16 0 0 101 -16 0 0 100 -9 0 0 44 -52 0 0 58 -12 0 0 332 -8 0 0 99 -11 0 0 328 -9 0 0 324 -9 0 0 241 -9 0 0 322 -9 0 0 325 -9 0 0 323 -9 0 0 97 -9 0 0
EndChar
StartChar: s
Encoding: 115 115 84
Width: 410
Flags: W
HStem: -15 76<202 220> 462 76<279 298>
VStem: 52 72<116 141> 103 74<342 372> 335 76<158 189> 364 70<394 408>
Fore
432 374 m 1xd4
 362 374 l 1
 363 383 364 391 364 396 c 0
 364 438 333 462 281 462 c 0
 219 462 177 425 177 372 c 0xd4
 177 346 191 335 243 318 c 2
 312 296 l 2
 382 273 411 242 411 189 c 0
 411 147 394 97 367 62 c 0
 328 12 271 -15 204 -15 c 0
 107 -15 52 33 52 116 c 0
 52 128 53 147 56 168 c 1
 126 168 l 1
 125 157 124 147 124 139 c 0
 124 89 158 61 218 61 c 0
 286 61 335 101 335 158 c 0xe8
 335 186 316 202 261 219 c 2
 182 244 l 2
 129 261 103 293 103 342 c 0
 103 452 189 538 298 538 c 0
 382 538 434 489 434 408 c 0
 434 400 433 388 432 374 c 1xd4
EndSplineSet
KernsSLIF: 116 -11 0 0 39 -6 0 0
EndChar
StartChar: t
Encoding: 116 116 85
Width: 228
Flags: W
HStem: -7 76<151 197> 450 73<102 148 233 289>
VStem: 84 76<63 98>
DStem: 148 450 220 450 88 105 161 110 186 669 259 669 161 523 233 523
Fore
289 450 m 1
 220 450 l 1
 161 110 l 1
 160 106 160 103 160 98 c 0
 160 77 171 69 197 69 c 2
 223 69 l 1
 211 0 l 1
 194 -2 189 -3 177 -4 c 0
 163 -6 157 -7 151 -7 c 0
 108 -7 84 18 84 63 c 0
 84 76 85 91 88 105 c 1
 148 450 l 1
 90 450 l 1
 103 523 l 1
 161 523 l 1
 186 669 l 1
 259 669 l 1
 233 523 l 1
 302 523 l 1
 289 450 l 1
EndSplineSet
KernsSLIF: 59 -19 0 0 39 2 0 0 351 -13 0 0 352 -13 0 0 111 -13 0 0 104 -6 0 0 335 -12 0 0 101 -12 0 0 58 -19 0 0 328 -5 0 0 241 -5 0 0 322 -5 0 0 323 -5 0 0 97 -5 0 0 83 -14 0 0
EndChar
StartChar: u
Encoding: 117 117 86
Width: 456
Flags: W
HStem: -15 76<195 222> 503 20G<146 219 420 492>
VStem: 77 78<103 136>
DStem: 146 523 219 523 81 147 158 176 347 81 492 523 333 0 401 0 420 523 492 523 370 235 401 0
Fore
401 0 m 1
 333 0 l 1
 347 81 l 1
 296 9 258 -15 195 -15 c 0
 120 -15 77 28 77 103 c 0
 77 118 78 132 81 147 c 1
 146 523 l 1
 219 523 l 1
 158 176 l 1
 156 163 155 153 155 136 c 0
 155 87 178 61 222 61 c 0
 294 61 351 128 370 235 c 1
 420 523 l 1
 492 523 l 1
 401 0 l 1
EndSplineSet
EndChar
StartChar: v
Encoding: 118 118 87
Width: 410
Flags: W
HStem: 0 21G<163 241> 503 20G<98 182 416 495>
Fore
219 94 m 1
 416 523 l 1
 495 523 l 1
 241 0 l 1
 163 0 l 1
 98 523 l 1
 182 523 l 1
 219 94 l 1
EndSplineSet
KernsSLIF: 59 -14 0 0 115 -15 0 0 46 -54 0 0 249 -16 0 0 353 -20 0 0 351 -20 0 0 352 -20 0 0 111 -20 0 0 108 -7 0 0 45 -7 0 0 103 -17 0 0 336 -19 0 0 337 -19 0 0 335 -19 0 0 101 -19 0 0 44 -54 0 0 58 -14 0 0 99 -15 0 0 327 -20 0 0 328 -20 0 0 324 -20 0 0 241 -20 0 0 322 -20 0 0 325 -20 0 0 323 -20 0 0 97 -20 0 0
EndChar
StartChar: w
Encoding: 119 119 88
Width: 592
Flags: W
HStem: 0 21G<136 210 383 457> 503 20G<103 182 348 429 601 673>
DStem: 348 523 366 409 192 108 210 0 366 409 429 523 383 0 441 108
Fore
366 409 m 1
 210 0 l 1
 136 0 l 1
 103 523 l 1
 182 523 l 1
 192 108 l 1
 348 523 l 1
 429 523 l 1
 441 108 l 1
 601 523 l 1
 673 523 l 1
 457 0 l 1
 383 0 l 1
 366 409 l 1
EndSplineSet
KernsSLIF: 59 -16 0 0 115 -11 0 0 46 -40 0 0 249 -8 0 0 353 -13 0 0 351 -13 0 0 352 -13 0 0 111 -13 0 0 108 -9 0 0 103 -11 0 0 336 -12 0 0 337 -12 0 0 335 -12 0 0 101 -12 0 0 44 -40 0 0 58 -16 0 0 99 -8 0 0 327 -16 0 0 328 -16 0 0 324 -16 0 0 241 -16 0 0 322 -16 0 0 325 -16 0 0 323 -16 0 0 97 -16 0 0
EndChar
StartChar: x
Encoding: 120 120 89
Width: 410
Flags: W
HStem: 0 21G<9 100 310 402> 503 20G<107 200 399 487>
DStem: 107 523 200 523 207 269 267 339 207 269 238 197 9 0 100 0 238 197 298 269 310 0 402 0 399 523 487 523 267 339 298 269
Fore
298 269 m 1
 402 0 l 1
 310 0 l 1
 238 197 l 1
 100 0 l 1
 9 0 l 1
 207 269 l 1
 107 523 l 1
 200 523 l 1
 267 339 l 1
 399 523 l 1
 487 523 l 1
 298 269 l 1
EndSplineSet
KernsSLIF: 113 -17 0 0 111 -21 0 0 335 -20 0 0 101 -20 0 0 99 -16 0 0 97 -17 0 0
EndChar
StartChar: y
Encoding: 121 121 90
Width: 410
Flags: W
HStem: -214 79<47 70> 503 20G<100 182 412 492>
Fore
222 94 m 1
 412 523 l 1
 492 523 l 1
 248 10 l 1
 148 -195 131 -214 47 -214 c 0
 35 -214 31 -213 18 -208 c 2
 15 -207 l 1
 12 -206 l 1
 26 -126 l 1
 40 -132 53 -135 68 -135 c 0
 98 -135 113 -121 138 -68 c 1
 165 -14 l 1
 100 523 l 1
 182 523 l 1
 222 94 l 1
EndSplineSet
KernsSLIF: 59 -15 0 0 115 -16 0 0 46 -53 0 0 249 -16 0 0 353 -21 0 0 351 -21 0 0 352 -21 0 0 111 -21 0 0 108 -8 0 0 45 -6 0 0 103 -19 0 0 336 -20 0 0 337 -20 0 0 335 -20 0 0 101 -20 0 0 44 -54 0 0 58 -15 0 0 99 -16 0 0 327 -21 0 0 328 -21 0 0 324 -21 0 0 241 -21 0 0 322 -21 0 0 325 -21 0 0 323 -21 0 0 97 -21 0 0
EndChar
StartChar: z
Encoding: 122 122 91
Width: 410
Flags: W
HStem: 0 73<134 384> 450 73<135 362>
DStem: 362 450 455 451 37 69 134 73
Fore
455 451 m 1
 134 73 l 1
 397 73 l 1
 384 0 l 1
 25 0 l 1
 37 69 l 1
 362 450 l 1
 123 450 l 1
 136 523 l 1
 468 523 l 1
 455 451 l 1
EndSplineSet
EndChar
StartChar: braceleft
Encoding: 123 123 92
Width: 274
Flags: W
HStem: -196 65<172 205> 657 65<310 354>
VStem: 86 67<-103 -83> 122 67<139 157>
DStem: 119 104 186 120 89 -67 157 -49 204 593 266 575 174 421 236 405
Fore
75 234 m 1xd0
 85 294 l 1
 124 295 161 347 174 421 c 2
 204 593 l 2
 217 667 262 722 310 722 c 2
 365 722 l 1
 354 657 l 1
 318 657 l 2
 293 657 275 629 266 575 c 1
 236 405 l 1
 226 344 179 277 137 264 c 1
 171 246 189 209 189 155 c 0xd0
 189 141 188 131 186 120 c 2
 157 -49 l 1
 154 -64 153 -77 153 -88 c 0
 153 -116 163 -131 180 -131 c 2
 216 -131 l 1
 205 -196 l 1
 150 -196 l 2
 112 -196 86 -158 86 -103 c 0xe0
 86 -89 87 -79 89 -67 c 2
 119 104 l 1
 121 118 122 129 122 149 c 0
 122 180 112 214 99 225 c 0
 94 230 87 232 75 234 c 1xd0
EndSplineSet
EndChar
StartChar: bar
Encoding: 124 124 93
Width: 213
Flags: W
HStem: -19 21G<74 134> 717 20G<205 265>
DStem: 205 737 265 737 74 -19 134 -19
Fore
74 -19 m 1
 205 737 l 1
 265 737 l 1
 134 -19 l 1
 74 -19 l 1
EndSplineSet
EndChar
StartChar: braceright
Encoding: 125 125 94
Width: 274
Flags: W
HStem: 702 20G<160 215>
VStem: 176 67<363 380> 213 67<613 629>
DStem: 129 120 191 104 100 -49 161 -67 209 575 277 593 179 405 247 421
Fore
291 294 m 1xc0
 281 234 l 1
 242 233 206 180 191 104 c 1
 161 -67 l 1
 149 -140 103 -196 55 -196 c 2
 0 -196 l 1
 11 -131 l 1
 48 -131 l 2
 72 -131 90 -102 100 -49 c 1
 129 120 l 2
 140 185 184 248 229 264 c 1
 196 279 176 320 176 373 c 0xc0
 176 383 177 394 179 405 c 2
 209 575 l 1
 211 591 213 606 213 615 c 0
 213 642 203 657 185 657 c 2
 149 657 l 1
 160 722 l 1
 215 722 l 2
 254 722 280 684 280 629 c 0xa0
 280 618 279 605 277 593 c 2
 247 421 l 1
 244 407 243 393 243 378 c 0
 243 347 253 315 266 303 c 0
 272 298 278 296 291 294 c 1xc0
EndSplineSet
EndChar
StartChar: asciitilde
Encoding: 126 126 95
Width: 479
Flags: W
Fore
441 305 m 1
 476 267 l 1
 431 205 398 181 357 181 c 0
 333 181 313 190 280 214 c 0
 246 239 222 249 194 249 c 0
 168 249 149 236 124 200 c 1
 91 236 l 1
 129 296 164 322 208 322 c 0
 235 322 254 314 315 277 c 0
 340 263 361 254 373 254 c 0
 394 254 412 268 441 305 c 1
EndSplineSet
EndChar
StartChar: exclamdown
Encoding: 161 161 96
Width: 273
Flags: W
HStem: 503 20G<188 267>
DStem: 104 42 183 42 63 -195 142 -195 188 523 267 523 170 421 249 421
Fore
170 421 m 1
 188 523 l 1
 267 523 l 1
 249 421 l 1
 170 421 l 1
178 352 m 1
 218 352 l 1
 183 42 l 1
 142 -195 l 1
 63 -195 l 1
 104 42 l 1
 178 352 l 1
EndSplineSet
EndChar
StartChar: cent
Encoding: 162 162 97
Width: 456
Flags: W
HStem: -19 76<232 255> 462 76<317 337>
VStem: 78 74<167 192>
DStem: 155 -1 184 -12 107 -115 141 -115 343 459 373 447 187 78 215 61 409 623 441 623 372 532 403 523
Fore
478 345 m 1
 411 345 l 1
 409 405 399 432 373 447 c 1
 215 61 l 1
 224 58 229 57 242 57 c 0
 309 57 346 90 383 183 c 1
 453 183 l 1
 411 52 334 -19 234 -19 c 0
 222 -19 214 -18 184 -12 c 1
 141 -115 l 1
 107 -115 l 1
 155 -1 l 1
 134 15 123 25 114 37 c 0
 92 69 78 120 78 169 c 0
 78 267 113 381 163 447 c 0
 210 507 268 538 337 538 c 0
 353 538 363 536 372 532 c 1
 409 623 l 1
 441 623 l 1
 403 523 l 1
 453 499 479 450 479 379 c 0
 479 370 479 359 478 345 c 1
187 78 m 1
 343 459 l 1
 337 461 332 462 324 462 c 0
 277 462 240 440 209 393 c 0
 178 345 152 254 152 190 c 0
 152 139 163 103 187 78 c 1
EndSplineSet
EndChar
StartChar: sterling
Encoding: 163 163 98
Width: 456
Flags: W
HStem: -16 83<337 357> 29 73<172 225> 317 63<92 170 233 360> 642 76<351 371>
VStem: 135 79<475 499> 175 72<269 300> 445 75<533 555>
Fore
233 380 m 1x7a
 371 380 l 1
 360 317 l 1
 246 317 l 1
 247 310 247 303 247 300 c 0
 247 276 243 250 237 229 c 0
 219 168 180 119 105 61 c 1
 154 90 188 102 225 102 c 0x76
 246 102 269 96 304 82 c 0
 330 72 347 67 357 67 c 0
 378 67 403 78 426 98 c 1
 448 32 l 1
 403 -3 372 -16 337 -16 c 0xb6
 318 -16 298 -10 262 5 c 0
 221 22 194 29 172 29 c 0
 143 29 112 17 68 -11 c 1
 40 58 l 1
 93 98 117 124 142 167 c 0
 165 205 175 237 175 269 c 0x76
 175 282 174 294 170 317 c 1
 82 317 l 1
 93 380 l 1
 150 380 l 1
 138 431 135 452 135 477 c 0
 135 610 241 718 371 718 c 0
 467 718 520 660 520 555 c 0
 520 538 519 521 516 505 c 2
 513 490 l 1
 441 490 l 1
 442 499 l 1
 444 511 445 519 445 535 c 0
 445 601 410 642 353 642 c 0
 278 642 214 572 214 490 c 0
 214 462 219 436 233 380 c 1x7a
EndSplineSet
EndChar
StartChar: fraction
Encoding: 164 8260 99
Width: 137
Flags: W
HStem: -19 21G<-139 -92> 683 20G<349 396>
DStem: 349 703 396 703 -139 -19 -92 -19
Fore
396 703 m 1
 -92 -19 l 1
 -139 -19 l 1
 349 703 l 1
 396 703 l 1
EndSplineSet
EndChar
StartChar: yen
Encoding: 165 165 100
Width: 456
Flags: W
HStem: 0 21G<192 264> 185 57<76 224 306 454> 327 57<101 249 362 479> 668 20G<123 204 491 573>
DStem: 123 688 204 688 228 384 296 393 224 185 296 185 192 0 264 0 249 327 321 327 234 242 306 242
Fore
92 327 m 1
 102 384 l 1
 228 384 l 1
 123 688 l 1
 204 688 l 1
 296 393 l 1
 491 688 l 1
 573 688 l 1
 362 384 l 1
 489 384 l 1
 479 327 l 1
 321 327 l 1
 306 242 l 1
 464 242 l 1
 454 185 l 1
 296 185 l 1
 264 0 l 1
 192 0 l 1
 224 185 l 1
 67 185 l 1
 77 242 l 1
 234 242 l 1
 249 327 l 1
 92 327 l 1
EndSplineSet
EndChar
StartChar: florin
Encoding: 166 402 101
Width: 456
Flags: W
HStem: -207 79<3 23> 391 70<173 251 350 431> 661 76<465 478>
DStem: 251 391 327 391 139 46 220 64 319 585 384 564 275 461 350 461
Fore
537 722 m 1
 511 644 l 1
 485 658 478 661 467 661 c 0
 435 661 404 625 384 564 c 2
 350 461 l 1
 443 461 l 1
 431 391 l 1
 327 391 l 1
 220 64 l 1
 160 -124 93 -207 3 -207 c 0
 -17 -207 -29 -204 -43 -195 c 1
 -17 -114 l 1
 -1 -124 10 -128 23 -128 c 0
 68 -128 95 -88 139 46 c 1
 251 391 l 1
 162 391 l 1
 174 461 l 1
 275 461 l 1
 319 585 l 1
 352 676 416 737 478 737 c 0
 500 737 514 734 537 722 c 1
EndSplineSet
EndChar
StartChar: section
Encoding: 167 167 102
Width: 456
Flags: W
HStem: -191 76<189 208> -23 20G<68 140> 661 76<342 357>
VStem: 63 73<-61 -41> 87 72<279 307> 175 76<540 566> 302 74<-19 1> 393 73<245 281> 407 72<590 612>
DStem: 122 187 184 246 269 47 317 124 233 428 296 490 357 321 401 404
Fore
474 554 m 1xee80
 404 554 l 1
 406 569 407 582 407 592 c 0xee80
 407 635 383 661 344 661 c 0
 293 661 251 618 251 566 c 0
 251 539 265 516 296 490 c 2
 401 404 l 2
 447 366 466 330 466 281 c 0
 466 239 452 193 429 159 c 0
 410 131 392 113 350 84 c 1
 370 50 376 30 376 1 c 0
 376 -102 290 -191 191 -191 c 0
 113 -191 63 -140 63 -61 c 0
 63 -47 65 -26 68 -3 c 1
 140 -3 l 1
 137 -19 136 -33 136 -43 c 0xf7
 136 -89 160 -115 201 -115 c 0
 259 -115 302 -73 302 -17 c 0
 302 6 292 25 269 47 c 2
 122 187 l 2
 100 208 87 241 87 279 c 0
 87 318 102 366 124 399 c 0
 142 425 159 440 199 467 c 1
 181 499 175 516 175 540 c 0
 175 580 194 632 222 668 c 0
 255 713 302 737 355 737 c 0
 431 737 479 689 479 612 c 0
 479 598 477 577 474 554 c 1xee80
184 246 m 2
 317 124 l 1
 372 163 393 197 393 245 c 0xef
 393 274 381 301 357 321 c 2
 233 428 l 1
 182 397 159 359 159 307 c 0
 159 281 167 261 184 246 c 2
EndSplineSet
EndChar
StartChar: currency
Encoding: 168 164 103
Width: 456
Flags: W
HStem: 102 70<244 260> 528 70<318 334>
VStem: 83 62<293 315> 433 62<385 408>
DStem: 103 200 133 157 49 144 78 99 378 157 423 200 413 99 458 144 499 603 530 555 443 547 475 501
Fore
499 603 m 1
 530 555 l 1
 475 501 l 1
 490 467 495 445 495 408 c 0
 495 331 471 263 423 200 c 1
 458 144 l 1
 413 99 l 1
 378 157 l 1
 333 119 294 102 246 102 c 0
 198 102 164 118 133 157 c 1
 78 99 l 1
 49 144 l 1
 103 200 l 1
 88 235 83 259 83 295 c 0
 83 371 108 443 156 501 c 1
 120 555 l 1
 168 603 l 1
 205 547 l 1
 247 582 287 598 332 598 c 0
 377 598 411 582 443 547 c 1
 499 603 l 1
320 528 m 0
 231 528 145 423 145 313 c 0
 145 231 192 172 258 172 c 0
 346 172 433 278 433 387 c 0
 433 468 385 528 320 528 c 0
EndSplineSet
EndChar
StartChar: quotesingle
Encoding: 169 39 104
Width: 157
Flags: W
HStem: 698 20G<173 233>
DStem: 173 718 233 718 129 463 189 463
Fore
129 463 m 1
 173 718 l 1
 233 718 l 1
 189 463 l 1
 129 463 l 1
EndSplineSet
EndChar
StartChar: quotedblleft
Encoding: 170 8220 105
Width: 273
Flags: W
DStem: 130 568 217 576 113 470 198 470 265 568 352 576 248 470 334 470
Fore
352 576 m 1
 334 470 l 1
 248 470 l 1
 265 568 l 2
 281 659 316 708 378 725 c 1
 370 678 l 1
 337 671 320 641 309 576 c 1
 352 576 l 1
217 576 m 1
 198 470 l 1
 113 470 l 1
 130 568 l 2
 146 659 181 707 243 725 c 1
 235 678 l 1
 202 671 184 641 173 576 c 1
 217 576 l 1
EndSplineSet
KernsSLIF: 89 7 1 0 87 26 1 0 86 19 1 0 84 9 1 0 262 -46 1 0 256 -46 1 0 257 -46 1 0 225 -49 1 0 65 -46 1 0
EndChar
StartChar: guillemotleft
Encoding: 171 171 106
Width: 456
Flags: W
DStem: 120 231 171 277 227 108 243 196 286 446 271 358 136 323 171 277 288 231 339 277 395 108 410 196 454 446 439 358 304 323 339 277
Fore
243 196 m 1
 227 108 l 1
 120 231 l 1
 136 323 l 1
 286 446 l 1
 271 358 l 1
 171 277 l 1
 243 196 l 1
410 196 m 1
 395 108 l 1
 288 231 l 1
 304 323 l 1
 454 446 l 1
 439 358 l 1
 339 277 l 1
 410 196 l 1
EndSplineSet
EndChar
StartChar: guilsinglleft
Encoding: 172 8249 107
Width: 273
Flags: W
DStem: 112 231 163 277 220 108 235 196 279 446 264 358 128 323 163 277
Fore
235 196 m 1
 220 108 l 1
 112 231 l 1
 128 323 l 1
 279 446 l 1
 264 358 l 1
 163 277 l 1
 235 196 l 1
EndSplineSet
EndChar
StartChar: guilsinglright
Encoding: 173 8250 108
Width: 273
Flags: W
DStem: 135 358 150 446 206 277 257 323 206 277 241 231 106 196 91 108
Fore
91 108 m 1
 106 196 l 1
 206 277 l 1
 135 358 l 1
 150 446 l 1
 257 323 l 1
 241 231 l 1
 91 108 l 1
EndSplineSet
KernsSLIF: 89 -103 1 0 87 -46 1 0 86 -68 1 0 84 -100 1 0 262 -43 1 0 256 -43 1 0 257 -43 1 0 225 -44 1 0 65 -43 1 0
EndChar
StartChar: fi
Encoding: 174 64257 109
Width: 410
Flags: W
HStem: 0 21G<71 143 284 356> 450 73<102 149 234 293> 649 79<291 312>
DStem: 149 450 221 450 71 0 143 0 375 523 447 523 284 0 356 0 409 718 481 718 392 618 464 618
Fore
293 450 m 1
 221 450 l 1
 143 0 l 1
 71 0 l 1
 149 450 l 1
 90 450 l 1
 103 523 l 1
 162 523 l 1
 178 613 l 1
 191 688 236 728 307 728 c 0
 315 728 320 728 342 726 c 1
 328 647 l 1
 315 648 304 649 298 649 c 0
 269 649 253 631 245 588 c 1
 234 523 l 1
 306 523 l 1
 293 450 l 1
447 523 m 1
 356 0 l 1
 284 0 l 1
 375 523 l 1
 447 523 l 1
464 618 m 1
 392 618 l 1
 409 718 l 1
 481 718 l 1
 464 618 l 1
EndSplineSet
Ligature: 0 0 'liga' f i
EndChar
StartChar: fl
Encoding: 175 64258 110
Width: 410
Flags: W
HStem: 0 21G<71 143 282 354> 450 73<102 149 234 293> 649 79<291 312>
DStem: 149 450 221 450 71 0 143 0 407 718 479 718 282 0 354 0
Fore
293 450 m 1
 221 450 l 1
 143 0 l 1
 71 0 l 1
 149 450 l 1
 90 450 l 1
 103 523 l 1
 162 523 l 1
 178 613 l 1
 191 688 236 728 307 728 c 0
 314 728 321 728 335 727 c 2
 341 726 l 1
 328 647 l 1
 314 648 304 649 298 649 c 0
 268 649 253 631 245 588 c 1
 234 523 l 1
 306 523 l 1
 293 450 l 1
479 718 m 1
 354 0 l 1
 282 0 l 1
 407 718 l 1
 479 718 l 1
EndSplineSet
Ligature: 0 0 'liga' f l
EndChar
StartChar: endash
Encoding: 177 8211 111
Width: 456
Flags: W
HStem: 240 73<54 497>
Fore
510 313 m 1
 497 240 l 1
 42 240 l 1
 55 313 l 1
 510 313 l 1
EndSplineSet
EndChar
StartChar: dagger
Encoding: 178 8224 112
Width: 456
Flags: W
HStem: 431 76<122 265 356 497> 698 20G<315 392>
DStem: 265 431 342 431 162 -159 239 -159 315 718 392 718 278 507 356 507
Fore
342 431 m 1
 239 -159 l 1
 162 -159 l 1
 265 431 l 1
 110 431 l 1
 123 507 l 1
 278 507 l 1
 315 718 l 1
 392 718 l 1
 356 507 l 1
 510 507 l 1
 497 431 l 1
 342 431 l 1
EndSplineSet
EndChar
StartChar: daggerdbl
Encoding: 179 8225 113
Width: 456
Flags: W
HStem: 43 76<55 198 288 429> 439 76<124 267 357 498> 698 20G<315 392>
DStem: 198 43 275 43 163 -159 240 -159 267 439 344 439 211 119 288 119 315 718 392 718 280 515 357 515
Fore
344 439 m 1
 288 119 l 1
 442 119 l 1
 429 43 l 1
 275 43 l 1
 240 -159 l 1
 163 -159 l 1
 198 43 l 1
 43 43 l 1
 56 119 l 1
 211 119 l 1
 267 439 l 1
 112 439 l 1
 125 515 l 1
 280 515 l 1
 315 718 l 1
 392 718 l 1
 357 515 l 1
 511 515 l 1
 498 439 l 1
 344 439 l 1
EndSplineSet
EndChar
StartChar: periodcentered
Encoding: 180 183 114
Width: 228
Flags: W
Fore
170 315 m 0
 193 315 211 293 211 264 c 0
 211 227 179 190 147 190 c 0
 124 190 106 211 106 239 c 0
 106 278 137 315 170 315 c 0
EndSplineSet
EndChar
StartChar: paragraph
Encoding: 182 182 115
Width: 440
Flags: W
HStem: 658 60<329 462>
DStem: 250 344 365 658 160 -173 219 -173 462 658 533 718 317 -173 377 -173
Fore
160 -173 m 1
 250 344 l 1
 211 346 193 350 171 363 c 0
 127 388 103 433 103 490 c 0
 103 543 122 601 152 640 c 0
 191 691 252 718 329 718 c 2
 533 718 l 1
 377 -173 l 1
 317 -173 l 1
 462 658 l 1
 365 658 l 1
 219 -173 l 1
 160 -173 l 1
EndSplineSet
EndChar
StartChar: bullet
Encoding: 183 8226 116
Width: 287
Flags: W
Fore
234 517 m 0
 295 517 339 464 339 392 c 0
 339 293 261 202 177 202 c 0
 118 202 74 254 74 326 c 0
 74 425 151 517 234 517 c 0
EndSplineSet
EndChar
StartChar: quotesinglbase
Encoding: 184 8218 117
Width: 182
Flags: W
HStem: -20 20G<43 87>
DStem: 62 106 147 106 43 0 130 8
Fore
43 0 m 1
 62 106 l 1
 147 106 l 1
 130 8 l 2
 114 -83 79 -131 17 -149 c 1
 25 -102 l 1
 58 -95 76 -65 87 0 c 1
 43 0 l 1
EndSplineSet
EndChar
StartChar: quotedblbase
Encoding: 185 8222 118
Width: 273
Flags: W
HStem: -20 20G<21 64 156 200>
DStem: 39 106 125 106 21 0 108 8 175 106 260 106 156 0 243 8
Fore
21 0 m 1
 39 106 l 1
 125 106 l 1
 108 8 l 1
 91 -83 57 -131 -5 -149 c 1
 3 -102 l 1
 36 -95 53 -65 64 0 c 1
 21 0 l 1
156 0 m 1
 175 106 l 1
 260 106 l 1
 243 8 l 2
 227 -83 192 -131 130 -149 c 1
 138 -102 l 1
 171 -95 189 -65 200 0 c 1
 156 0 l 1
EndSplineSet
KernsSLIF: 89 -76 1 0 87 -30 1 0 86 -57 1 0 84 -64 1 0 225 19 1 0 65 18 1 0
EndChar
StartChar: quotedblright
Encoding: 186 8221 119
Width: 273
Flags: W
HStem: 698 20G<146 232 282 367>
DStem: 146 718 232 718 128 612 215 620 282 718 367 718 263 612 350 620
Fore
128 612 m 1
 146 718 l 1
 232 718 l 1
 215 620 l 2
 199 529 164 481 102 463 c 1
 110 510 l 1
 143 517 161 547 171 612 c 1
 128 612 l 1
263 612 m 1
 282 718 l 1
 367 718 l 1
 350 620 l 2
 334 529 299 480 237 463 c 1
 245 510 l 1
 278 517 296 547 307 612 c 1
 263 612 l 1
EndSplineSet
KernsSLIF: 87 19 1 0 86 11 1 0 84 3 1 0 262 -54 1 0 256 -54 1 0 257 -54 1 0 225 -56 1 0 65 -54 1 0
EndChar
StartChar: guillemotright
Encoding: 187 187 120
Width: 456
Flags: W
DStem: 142 358 157 446 214 277 265 323 214 277 248 231 113 196 98 108 310 358 325 446 382 277 433 323 382 277 417 231 282 196 266 108
Fore
248 231 m 1
 98 108 l 1
 113 196 l 1
 214 277 l 1
 142 358 l 1
 157 446 l 1
 265 323 l 1
 248 231 l 1
417 231 m 1
 266 108 l 1
 282 196 l 1
 382 277 l 1
 310 358 l 1
 325 446 l 1
 433 323 l 1
 417 231 l 1
EndSplineSet
KernsSLIF: 89 -106 1 0 87 -50 1 0 86 -72 1 0 84 -104 1 0 262 -47 1 0 256 -47 1 0 257 -47 1 0 225 -47 1 0 65 -47 1 0
EndChar
StartChar: ellipsis
Encoding: 188 8230 121
Width: 820
Flags: W
HStem: 0 106<111 179 385 452 658 726>
DStem: 112 106 198 106 94 0 179 0 386 106 471 106 367 0 452 0 659 106 744 106 640 0 726 0
Fore
198 106 m 1
 179 0 l 1
 94 0 l 1
 112 106 l 1
 198 106 l 1
471 106 m 1
 452 0 l 1
 367 0 l 1
 386 106 l 1
 471 106 l 1
744 106 m 1
 726 0 l 1
 640 0 l 1
 659 106 l 1
 744 106 l 1
EndSplineSet
Ligature: 0 1 'liga' period period period
EndChar
StartChar: perthousand
Encoding: 189 8240 122
Width: 820
Flags: W
HStem: -7 53<395 408 680 697> 314 53<450 463 735 748> 321 53<184 201> 642 53<240 253>
VStem: 88 57<428 462> 291 57<556 574> 299 57<108 142> 502 57<220 254> 584 57<108 142> 787 57<220 254>
DStem: 524 703 569 703 72 -19 117 -19
Fore
569 703 m 1x99c0
 117 -19 l 1
 72 -19 l 1
 524 703 l 1
 569 703 l 1x99c0
251 695 m 0
 314 695 348 652 348 572 c 0
 348 511 331 443 304 396 c 0
 275 347 234 321 185 321 c 0xbdc0
 122 321 88 365 88 444 c 0
 88 505 105 573 132 620 c 0
 160 669 202 695 251 695 c 0
242 642 m 0
 217 642 197 628 181 601 c 0
 160 565 145 500 145 445 c 0
 145 399 163 374 195 374 c 0
 219 374 240 388 255 415 c 0
 276 453 291 516 291 571 c 0
 291 617 273 642 242 642 c 0
461 367 m 0xdbc0
 525 367 559 324 559 244 c 0
 559 183 542 114 515 68 c 0
 486 19 445 -7 396 -7 c 0
 334 -7 299 37 299 116 c 0
 299 177 316 245 343 292 c 0
 371 340 413 367 461 367 c 0xdbc0
452 314 m 0
 428 314 408 300 392 273 c 0
 371 237 356 171 356 117 c 0
 356 71 374 46 406 46 c 0
 430 46 451 61 466 87 c 0
 487 125 502 188 502 243 c 0
 502 289 484 314 452 314 c 0
746 367 m 0
 810 367 844 324 844 244 c 0
 844 183 827 114 800 68 c 0
 771 19 730 -7 681 -7 c 0
 618 -7 584 37 584 116 c 0
 584 177 601 244 628 292 c 0
 656 340 698 367 746 367 c 0
737 314 m 0
 713 314 693 300 677 273 c 0
 656 237 641 172 641 117 c 0
 641 71 659 46 691 46 c 0
 715 46 736 60 751 87 c 0
 772 125 787 188 787 243 c 0
 787 289 769 314 737 314 c 0
EndSplineSet
EndChar
StartChar: questiondown
Encoding: 191 191 123
Width: 501
Flags: W
HStem: -201 76<213 232> 505 20G<309 388>
VStem: 70 78<-52 -36>
DStem: 309 525 388 525 291 423 371 423
Fore
366 33 m 1
 438 33 l 1
 419 -56 403 -92 366 -132 c 1
 323 -176 269 -201 213 -201 c 0
 127 -201 70 -142 70 -50 c 0
 70 -5 82 40 103 74 c 0
 118 96 138 120 180 160 c 0
 255 232 268 255 283 343 c 1
 355 343 l 1
 336 238 320 210 240 128 c 0
 194 81 178 63 169 46 c 0
 156 24 148 -8 148 -38 c 0
 148 -93 178 -125 230 -125 c 0
 302 -125 345 -75 366 33 c 1
291 423 m 1
 309 525 l 1
 388 525 l 1
 371 423 l 1
 291 423 l 1
EndSplineSet
EndChar
StartChar: grave
Encoding: 193 96 124
Width: 273
Flags: W
HStem: 714 20G<139 228>
Fore
221 593 m 1
 139 734 l 1
 228 734 l 1
 276 593 l 1
 221 593 l 1
EndSplineSet
EndChar
StartChar: acute
Encoding: 194 180 125
Width: 273
Flags: W
HStem: 714 20G<301 390>
Fore
390 734 m 1
 258 593 l 1
 203 593 l 1
 301 734 l 1
 390 734 l 1
EndSplineSet
Ligature: 0 1 'liga' space acutecomb
EndChar
StartChar: circumflex
Encoding: 195 710 126
Width: 273
Flags: W
HStem: 714 20G<227 303>
DStem: 227 734 256 686 121 593 186 593 256 686 303 734 294 593 359 593
Fore
256 686 m 1
 186 593 l 1
 121 593 l 1
 227 734 l 1
 303 734 l 1
 359 593 l 1
 294 593 l 1
 256 686 l 1
EndSplineSet
EndChar
StartChar: tilde
Encoding: 196 732 127
Width: 273
Flags: W
HStem: 702 20G<361 402>
Fore
361 722 m 1
 402 722 l 1
 380 651 345 613 300 613 c 0
 288 613 275 617 255 626 c 2
 235 635 l 2
 212 646 198 650 188 650 c 0
 168 650 155 638 141 606 c 1
 102 606 l 1
 125 680 157 713 206 713 c 0
 222 713 241 708 259 698 c 2
 276 689 l 2
 291 681 305 676 314 676 c 0
 336 676 349 689 361 722 c 1
EndSplineSet
Ligature: 0 1 'liga' space tildecomb
EndChar
StartChar: macron
Encoding: 197 175 128
Width: 273
Flags: W
HStem: 627 57<126 374>
Fore
384 684 m 1
 374 627 l 1
 117 627 l 1
 127 684 l 1
 384 684 l 1
EndSplineSet
Ligature: 0 1 'liga' space uni0304
EndChar
StartChar: breve
Encoding: 198 728 129
Width: 273
Flags: W
HStem: 711 20G<138 178 352 391>
Fore
352 731 m 1
 391 731 l 1
 378 687 368 667 349 644 c 0
 322 612 283 595 238 595 c 0
 172 595 137 632 137 702 c 1
 138 731 l 1
 178 731 l 1
 180 709 181 703 185 693 c 0
 195 666 219 652 253 652 c 0
 302 652 327 673 352 731 c 1
EndSplineSet
Ligature: 0 1 'liga' space uni0306
EndChar
StartChar: dotaccent
Encoding: 199 729 130
Width: 273
Flags: W
DStem: 222 706 297 706 204 604 279 604
Fore
297 706 m 1
 279 604 l 1
 204 604 l 1
 222 706 l 1
 297 706 l 1
EndSplineSet
Ligature: 0 1 'liga' space uni0307
EndChar
StartChar: dieresis
Encoding: 200 168 131
Width: 273
Flags: W
HStem: 604 102<155 213 287 345>
DStem: 156 706 230 706 138 604 213 604 288 706 363 706 271 604 345 604
Fore
230 706 m 1
 213 604 l 1
 138 604 l 1
 156 706 l 1
 230 706 l 1
363 706 m 1
 345 604 l 1
 271 604 l 1
 288 706 l 1
 363 706 l 1
EndSplineSet
Ligature: 0 1 'liga' space uni0308
EndChar
StartChar: ring
Encoding: 202 730 132
Width: 273
Flags: W
HStem: 572 40<234 245> 716 40<260 269>
VStem: 175 34<642 655> 296 34<673 685>
Fore
269 756 m 0
 305 756 330 727 330 685 c 0
 330 624 286 572 236 572 c 0
 200 572 175 600 175 643 c 0
 175 704 218 756 269 756 c 0
262 716 m 0
 234 716 209 686 209 653 c 0
 209 629 223 612 243 612 c 0
 270 612 296 643 296 675 c 0
 296 699 281 716 262 716 c 0
EndSplineSet
Ligature: 0 1 'liga' space uni030A
EndChar
StartChar: cedilla
Encoding: 203 184 133
Width: 273
Flags: W
HStem: -225 47<60 83> -97 39<94 135> -20 20G<118 156>
VStem: 127 64<-130 -116>
DStem: 118 0 156 0 50 -86 108 -62
Fore
50 -86 m 1
 118 0 l 1
 156 0 l 1
 108 -62 l 1
 121 -59 127 -58 135 -58 c 0
 170 -58 191 -80 191 -116 c 0
 191 -177 141 -225 77 -225 c 0
 52 -225 31 -219 2 -203 c 1
 23 -163 l 1
 44 -174 56 -178 72 -178 c 0
 105 -178 127 -158 127 -128 c 0
 127 -110 113 -97 94 -97 c 0
 87 -97 78 -99 61 -105 c 1
 50 -86 l 1
EndSplineSet
Ligature: 0 1 'liga' space uni0327
EndChar
StartChar: hungarumlaut
Encoding: 205 733 134
Width: 273
Flags: W
HStem: 714 20G<226 316 374 463>
Fore
316 734 m 1
 184 593 l 1
 129 593 l 1
 226 734 l 1
 316 734 l 1
463 734 m 1
 331 593 l 1
 276 593 l 1
 374 734 l 1
 463 734 l 1
EndSplineSet
Ligature: 0 1 'liga' space uni030B
EndChar
StartChar: ogonek
Encoding: 206 731 135
Width: 273
Flags: W
HStem: -225 47<115 138> -20 20G<149 204>
VStem: 35 64<-153 -141>
Fore
193 -163 m 1
 200 -203 l 1
 167 -218 141 -225 115 -225 c 0
 67 -225 35 -196 35 -152 c 0
 35 -129 43 -101 57 -76 c 0
 79 -37 102 -18 149 0 c 1
 204 0 l 1
 203 -4 l 1
 154 -35 134 -52 119 -75 c 0
 107 -94 99 -122 99 -143 c 0
 99 -166 113 -178 138 -178 c 0
 155 -178 167 -175 193 -163 c 1
EndSplineSet
Ligature: 0 1 'liga' space uni0328
EndChar
StartChar: caron
Encoding: 207 711 136
Width: 273
Flags: W
HStem: 714 20G<145 210 318 384>
DStem: 145 734 210 734 202 593 248 641 318 734 384 734 248 641 278 593
Fore
210 734 m 1
 248 641 l 1
 318 734 l 1
 384 734 l 1
 278 593 l 1
 202 593 l 1
 145 734 l 1
 210 734 l 1
EndSplineSet
EndChar
StartChar: emdash
Encoding: 208 8212 137
Width: 820
Flags: W
HStem: 240 73<54 862>
Fore
875 313 m 1
 862 240 l 1
 42 240 l 1
 55 313 l 1
 875 313 l 1
EndSplineSet
EndChar
StartChar: AE
Encoding: 225 198 138
Width: 820
Flags: W
HStem: 0 86<469 780> 209 86<238 411> 326 86<526 803> 632 86<371 485 371 884>
DStem: 371 718 406 632 7 0 238 295 371 718 194 209 7 0 93 0 411 209 511 326 375 0 469 86 485 632 564 632 426 295 526 412
Fore
194 209 m 1
 93 0 l 1
 7 0 l 1
 371 718 l 1
 899 718 l 1
 884 632 l 1
 564 632 l 1
 526 412 l 1
 818 412 l 1
 803 326 l 1
 511 326 l 1
 469 86 l 1
 795 86 l 1
 780 0 l 1
 375 0 l 1
 411 209 l 1
 194 209 l 1
426 295 m 1
 485 632 l 1
 406 632 l 1
 238 295 l 1
 426 295 l 1
EndSplineSet
EndChar
StartChar: ordfeminine
Encoding: 227 170 139
Width: 303
Flags: W
HStem: 304 48<89 324> 405 52<180 199> 685 52<257 276>
VStem: 105 54<477 494> 316 52<652 666>
Fore
363 454 m 1
 355 410 l 1
 349 408 l 2
 339 406 334 405 327 405 c 0
 301 405 287 417 287 439 c 0
 287 445 287 450 288 456 c 1
 251 420 219 405 180 405 c 0
 134 405 105 433 105 477 c 0
 105 542 148 589 216 598 c 2
 290 608 l 2
 305 610 316 629 316 652 c 0
 316 673 296 685 262 685 c 0
 221 685 199 670 188 632 c 1
 144 632 l 1
 161 704 202 737 274 737 c 0
 333 737 368 711 368 666 c 0
 368 661 367 655 366 649 c 2
 335 471 l 1
 335 464 l 2
 335 456 339 452 347 452 c 0
 350 452 355 453 363 454 c 1
296 531 m 1
 303 570 l 1
 295 563 279 558 224 550 c 0
 176 543 159 527 159 492 c 0
 159 469 173 457 199 457 c 0
 247 457 289 489 296 531 c 1
90 352 m 1
 333 352 l 1
 324 304 l 1
 82 304 l 1
 90 352 l 1
EndSplineSet
EndChar
StartChar: Lslash
Encoding: 232 321 140
Width: 456
Flags: W
HStem: 0 86<157 440> 698 20G<187 267>
DStem: 122 344 211 395 62 0 157 86 187 718 267 718 132 402 221 453 329 520 319 462 221 453 211 395
Fore
329 520 m 1
 319 462 l 1
 211 395 l 1
 157 86 l 1
 455 86 l 1
 440 0 l 1
 62 0 l 1
 122 344 l 1
 34 289 l 1
 44 347 l 1
 132 402 l 1
 187 718 l 1
 267 718 l 1
 221 453 l 1
 329 520 l 1
EndSplineSet
EndChar
StartChar: Oslash
Encoding: 233 216 141
Width: 638
Flags: W
HStem: -19 86<313 340> 651 86<431 451>
VStem: 86 83<252 286> 594 83<428 462>
DStem: 119 99 137 68 35 9 56 -19 563 578 578 543 185 171 202 138 710 737 730 707 628 648 646 616
Fore
730 707 m 1
 646 616 l 1
 670 556 677 518 677 455 c 0
 677 335 635 207 566 115 c 0
 499 26 415 -19 315 -19 c 0
 236 -19 183 6 137 68 c 1
 56 -19 l 1
 35 9 l 1
 119 99 l 1
 94 159 86 199 86 263 c 0
 86 382 128 512 197 603 c 0
 264 692 348 737 449 737 c 0
 529 737 582 711 628 648 c 1
 710 737 l 1
 730 707 l 1
578 543 m 1
 202 138 l 1
 235 88 273 67 330 67 c 0
 403 67 469 107 519 181 c 0
 565 250 594 352 594 443 c 0
 594 481 590 505 578 543 c 1
185 171 m 1
 563 578 l 1
 530 629 491 651 433 651 c 0
 360 651 293 611 244 537 c 0
 199 469 169 366 169 276 c 0
 169 237 173 211 185 171 c 1
EndSplineSet
KernsSLIF: 65 -33 0 0
EndChar
StartChar: OE
Encoding: 234 338 142
Width: 820
Flags: W
HStem: -19 83<269 294> 0 86<518 791> 326 86<575 834> 632 86<554 900> 654 83<394 410>
VStem: 80 81<220 270>
DStem: 509 492 560 326 464 230 518 86
Fore
541 642 m 1xac
 554 718 l 1
 915 718 l 1
 900 632 l 1
 614 632 l 1
 575 412 l 1
 849 412 l 1
 834 326 l 1
 560 326 l 1
 518 86 l 1
 806 86 l 1
 791 0 l 1
 428 0 l 1x74
 441 78 l 1
 383 5 340 -19 269 -19 c 0
 217 -19 173 -2 142 31 c 0
 105 70 80 151 80 235 c 0
 80 342 108 459 156 553 c 0
 216 672 305 737 408 737 c 0
 478 737 517 709 541 642 c 1xac
464 230 m 1
 509 492 l 1
 512 505 513 519 513 531 c 0
 513 607 468 654 396 654 c 0
 328 654 271 612 230 533 c 0
 191 456 161 330 161 242 c 0
 161 124 206 64 294 64 c 0xac
 379 64 446 130 464 230 c 1
EndSplineSet
EndChar
StartChar: ordmasculine
Encoding: 235 186 143
Width: 299
Flags: W
HStem: 304 48<89 325> 405 52<219 232> 685 52<268 281>
VStem: 116 56<518 545> 328 56<607 625>
Fore
279 737 m 0
 346 737 384 695 384 621 c 0
 384 565 364 499 337 463 c 0
 308 426 267 405 221 405 c 0
 154 405 116 447 116 520 c 0
 116 647 184 737 279 737 c 0
270 685 m 0
 238 685 213 667 196 633 c 0
 181 606 172 565 172 533 c 0
 172 483 192 457 230 457 c 0
 262 457 287 475 304 509 c 0
 319 537 328 577 328 609 c 0
 328 659 308 685 270 685 c 0
90 352 m 1
 333 352 l 1
 325 304 l 1
 82 304 l 1
 90 352 l 1
EndSplineSet
EndChar
StartChar: ae
Encoding: 241 230 144
Width: 729
Flags: W
HStem: -15 73<167 190> 233 70<434 735> 459 79<582 601>
VStem: 50 77<101 124> 675 71<336 370>
Fore
645 164 m 1
 717 164 l 1
 679 51 598 -15 497 -15 c 0
 419 -15 378 16 355 94 c 1
 295 16 241 -15 167 -15 c 0
 94 -15 50 28 50 101 c 0
 50 206 115 286 212 300 c 2
 334 318 l 2
 366 323 384 353 384 400 c 0
 384 442 354 465 298 465 c 0
 235 465 203 437 180 364 c 1
 114 364 l 1
 126 416 137 441 159 469 c 0
 195 515 250 538 322 538 c 0
 385 538 414 521 448 464 c 1
 504 520 541 538 601 538 c 0
 652 538 692 518 714 482 c 0
 733 449 746 399 746 354 c 0
 746 323 742 282 735 233 c 1
 422 233 l 1
 418 208 416 186 416 171 c 0
 416 103 453 61 513 61 c 0
 572 61 627 104 645 164 c 1
434 303 m 1
 673 303 l 1
 674 321 675 337 675 350 c 0
 675 417 640 459 584 459 c 0
 515 459 454 396 434 303 c 1
346 181 m 1
 361 267 l 1
 344 253 322 247 236 234 c 0
 160 221 127 187 127 122 c 0
 127 80 149 58 190 58 c 0
 263 58 334 114 346 181 c 1
EndSplineSet
KernsSLIF: 121 -23 0 0 119 -13 0 0 118 -18 0 0
EndChar
StartChar: dotlessi
Encoding: 245 305 145
Width: 228
Flags: W
HStem: 0 21G<78 150> 503 20G<169 241>
DStem: 169 523 241 523 78 0 150 0
Fore
241 523 m 1
 150 0 l 1
 78 0 l 1
 169 523 l 1
 241 523 l 1
EndSplineSet
EndChar
StartChar: lslash
Encoding: 248 322 146
Width: 182
Flags: W
HStem: 0 21G<55 127> 698 20G<180 252>
DStem: 114 339 194 385 55 0 127 0 180 718 252 718 124 397 204 443
Fore
274 435 m 1
 194 385 l 1
 127 0 l 1
 55 0 l 1
 114 339 l 1
 34 289 l 1
 44 347 l 1
 124 397 l 1
 180 718 l 1
 252 718 l 1
 204 443 l 1
 284 493 l 1
 274 435 l 1
EndSplineSet
EndChar
StartChar: oslash
Encoding: 249 248 147
Width: 501
Flags: W
HStem: -14 76<223 241> 462 76<307 325>
VStem: 68 76<179 203> 405 75<313 347>
DStem: 89 76 106 46 24 4 45 -22 389 410 400 373 149 143 162 108 510 545 531 519 445 473 461 441
Fore
531 519 m 1
 461 441 l 1
 475 401 480 376 480 335 c 0
 480 245 449 148 398 81 c 0
 350 18 292 -14 225 -14 c 0
 173 -14 137 4 106 46 c 1
 45 -22 l 1
 24 4 l 1
 89 76 l 1
 73 118 68 145 68 189 c 0
 68 278 100 376 150 443 c 0
 198 506 256 538 323 538 c 0
 377 538 413 519 445 473 c 1
 510 545 l 1
 531 519 l 1
149 143 m 1
 389 410 l 1
 370 447 346 462 309 462 c 0
 251 462 204 421 173 343 c 0
 154 296 144 246 144 197 c 0
 144 178 145 167 149 143 c 1
400 373 m 1
 162 108 l 1
 179 76 203 62 239 62 c 0
 297 62 344 103 376 181 c 0
 395 227 405 279 405 326 c 0
 405 341 404 351 400 373 c 1
EndSplineSet
EndChar
StartChar: oe
Encoding: 250 339 148
Width: 774
Flags: W
HStem: -14 76<226 245 542 560> 233 70<478 780> 459 79<627 645>
VStem: 68 75<172 210> 720 71<324 370>
Fore
690 164 m 1
 762 164 l 1
 724 50 643 -15 542 -15 c 0
 470 -15 430 13 397 86 c 1
 352 17 299 -14 228 -14 c 0
 127 -14 68 61 68 188 c 0
 68 280 99 375 150 443 c 0
 197 506 256 538 321 538 c 0
 368 538 407 521 434 488 c 0
 447 473 453 461 464 432 c 1
 522 509 572 538 645 538 c 0
 697 538 737 518 759 482 c 0
 779 449 791 399 791 354 c 0
 791 323 787 282 780 233 c 1
 466 233 l 1
 462 209 460 187 460 173 c 0
 460 104 498 61 558 61 c 0
 617 61 672 104 690 164 c 1
478 303 m 1
 718 303 l 1
 719 321 720 338 720 350 c 0
 720 417 685 459 629 459 c 0
 559 459 499 397 478 303 c 1
308 462 m 0
 258 462 215 430 185 370 c 0
 159 320 143 255 143 198 c 0
 143 110 177 62 239 62 c 0
 289 62 332 94 363 154 c 0
 388 204 404 269 404 325 c 0
 404 413 370 462 308 462 c 0
EndSplineSet
EndChar
StartChar: germandbls
Encoding: 251 223 149
Width: 501
Flags: W
HStem: -15 79<246 280> 354 73<310 328> 652 76<354 376>
VStem: 435 77<252 272> 464 75<561 584>
DStem: 148 532 216 510 55 0 127 0
Fore
216 -8 m 1xf0
 230 67 l 1
 242 65 254 64 266 64 c 0
 325 64 371 86 400 130 c 0
 421 161 435 211 435 254 c 0xf0
 435 321 396 354 315 354 c 0
 303 354 293 353 283 350 c 1
 297 429 l 1
 302 428 313 427 319 427 c 0
 406 427 464 482 464 563 c 0
 464 620 425 652 356 652 c 0
 276 652 234 609 216 510 c 1
 127 0 l 1
 55 0 l 1
 148 532 l 2
 169 653 254 728 371 728 c 0
 476 728 539 674 539 584 c 0xe8
 539 507 506 444 443 400 c 1
 459 393 467 387 475 380 c 1
 497 357 512 312 512 270 c 0
 512 207 486 132 445 77 c 0
 401 17 335 -15 259 -15 c 0
 244 -15 235 -14 219 -9 c 2
 216 -8 l 1xf0
EndSplineSet
EndChar
StartChar: Adieresis
Encoding: 256 196 150
Width: 547
Flags: W
HStem: 0 21G<11 93 449 536> 209 86<231 427> 698 20G<358 448> 799 102<326 384 458 516>
DStem: 327 901 401 901 309 799 384 799 358 718 381 614 11 0 231 295 358 718 191 209 11 0 93 0 459 901 534 901 442 799 516 799
Fore
427 209 m 1
 191 209 l 1
 93 0 l 1
 11 0 l 1
 358 718 l 1
 448 718 l 1
 536 0 l 1
 449 0 l 1
 427 209 l 1
231 295 m 1
 414 295 l 1
 381 614 l 1
 231 295 l 1
401 901 m 1
 384 799 l 1
 309 799 l 1
 327 901 l 1
 401 901 l 1
534 901 m 1
 516 799 l 1
 442 799 l 1
 459 901 l 1
 534 901 l 1
EndSplineSet
KernsSLIF: 121 -31 0 0 119 -25 0 0 118 -30 0 0 117 -15 0 0 116 -17 0 0 39 -51 0 0 186 -40 0 0 113 -13 0 0 46 1 0 0 111 -16 0 0 45 -6 0 0 172 -39 0 0 171 -43 0 0 103 -16 0 0 100 -13 0 0 99 -11 0 0 98 -6 0 0 97 -11 0 0 89 -82 0 0 87 -43 0 0 86 -61 0 0 85 -32 0 0 84 -81 0 0 81 -30 0 0 79 -30 0 0 71 -33 0 0 67 -29 0 0
Ligature: 0 0 'liga' A uni0308
EndChar
StartChar: Aacute
Encoding: 257 193 151
Width: 547
Flags: W
HStem: 0 21G<11 93 449 536> 209 86<231 427> 698 20G<358 448>
DStem: 358 718 381 614 11 0 231 295 358 718 191 209 11 0 93 0
Fore
427 209 m 1
 191 209 l 1
 93 0 l 1
 11 0 l 1
 358 718 l 1
 448 718 l 1
 536 0 l 1
 449 0 l 1
 427 209 l 1
231 295 m 1
 414 295 l 1
 381 614 l 1
 231 295 l 1
561 929 m 1
 429 788 l 1
 374 788 l 1
 472 929 l 1
 561 929 l 1
EndSplineSet
KernsSLIF: 121 -31 0 0 119 -25 0 0 118 -30 0 0 117 -16 0 0 116 -18 0 0 39 -51 0 0 113 -14 0 0 111 -17 0 0 45 -6 0 0 172 -40 0 0 171 -44 0 0 103 -16 0 0 101 -16 0 0 100 -14 0 0 99 -12 0 0 98 -6 0 0 97 -12 0 0 89 -82 0 0 87 -43 0 0 86 -61 0 0 85 -33 0 0 84 -81 0 0 81 -31 0 0 79 -31 0 0 71 -34 0 0 67 -31 0 0
Ligature: 0 0 'liga' A acutecomb
EndChar
StartChar: Agrave
Encoding: 258 192 152
Width: 547
Flags: W
HStem: 0 21G<11 93 449 536> 209 86<231 427> 698 20G<358 448>
DStem: 358 718 381 614 11 0 231 295 358 718 191 209 11 0 93 0
Fore
427 209 m 1
 191 209 l 1
 93 0 l 1
 11 0 l 1
 358 718 l 1
 448 718 l 1
 536 0 l 1
 449 0 l 1
 427 209 l 1
231 295 m 1
 414 295 l 1
 381 614 l 1
 231 295 l 1
393 788 m 1
 311 929 l 1
 400 929 l 1
 448 788 l 1
 393 788 l 1
EndSplineSet
KernsSLIF: 46 1 0 0 89 -82 0 0 87 -43 0 0 86 -61 0 0 85 -32 0 0 84 -81 0 0 81 -30 0 0 79 -30 0 0 71 -33 0 0 67 -29 0 0
Ligature: 0 0 'liga' A gravecomb
EndChar
StartChar: Acircumflex
Encoding: 259 194 153
Width: 547
Flags: W
HStem: 0 21G<11 93 449 536> 209 86<231 427> 698 20G<358 448>
DStem: 358 718 381 614 11 0 231 295 358 718 191 209 11 0 93 0 398 929 427 881 292 788 357 788 427 881 474 929 465 788 530 788
Fore
427 209 m 1
 191 209 l 1
 93 0 l 1
 11 0 l 1
 358 718 l 1
 448 718 l 1
 536 0 l 1
 449 0 l 1
 427 209 l 1
231 295 m 1
 414 295 l 1
 381 614 l 1
 231 295 l 1
427 881 m 1
 357 788 l 1
 292 788 l 1
 398 929 l 1
 474 929 l 1
 530 788 l 1
 465 788 l 1
 427 881 l 1
EndSplineSet
KernsSLIF: 46 1 0 0 89 -82 0 0 87 -43 0 0 86 -61 0 0 85 -32 0 0 84 -81 0 0 81 -30 0 0 79 -30 0 0 71 -33 0 0 67 -29 0 0
Ligature: 0 0 'liga' A uni0302
EndChar
StartChar: Abreve
Encoding: 260 258 154
Width: 547
Flags: W
HStem: 0 21G<11 93 449 536> 209 86<231 427> 698 20G<358 448> 790 57<408 428>
DStem: 358 718 381 614 11 0 231 295 358 718 191 209 11 0 93 0
Fore
427 209 m 1
 191 209 l 1
 93 0 l 1
 11 0 l 1
 358 718 l 1
 448 718 l 1
 536 0 l 1
 449 0 l 1
 427 209 l 1
231 295 m 1
 414 295 l 1
 381 614 l 1
 231 295 l 1
523 926 m 1
 562 926 l 1
 549 882 539 862 520 839 c 0
 493 807 454 790 409 790 c 0
 343 790 308 827 308 897 c 1
 309 926 l 1
 349 926 l 1
 351 904 352 898 356 888 c 0
 366 861 390 847 424 847 c 0
 473 847 498 868 523 926 c 1
EndSplineSet
Ligature: 0 0 'liga' A uni0306
EndChar
StartChar: Atilde
Encoding: 261 195 155
Width: 547
Flags: W
HStem: 0 21G<11 93 449 536> 209 86<231 427> 698 20G<358 448> 808 63<471 485> 845 63<359 377>
DStem: 358 718 381 614 11 0 231 295 358 718 191 209 11 0 93 0
Fore
427 209 m 1xe0
 191 209 l 1
 93 0 l 1
 11 0 l 1
 358 718 l 1
 448 718 l 1
 536 0 l 1
 449 0 l 1
 427 209 l 1xe0
231 295 m 1
 414 295 l 1
 381 614 l 1
 231 295 l 1
532 917 m 1
 573 917 l 1
 551 846 516 808 471 808 c 0xf0
 459 808 446 812 426 821 c 2
 406 830 l 2
 383 841 369 845 359 845 c 0
 339 845 326 833 312 801 c 1
 273 801 l 1
 296 875 328 908 377 908 c 0xe8
 393 908 412 903 430 893 c 2
 447 884 l 2
 462 876 476 871 485 871 c 0xf0
 507 871 520 884 532 917 c 1
EndSplineSet
KernsSLIF: 89 -82 0 0 87 -43 0 0 86 -61 0 0 85 -34 0 0 84 -81 0 0 81 -31 0 0 79 -31 0 0 71 -35 0 0 67 -31 0 0
Ligature: 0 0 'liga' A tildecomb
EndChar
StartChar: Aring
Encoding: 262 197 156
Width: 547
Flags: W
HStem: 0 21G<11 93 449 536> 209 86<231 427> 698 20G<358 448> 760 40<404 417> 904 40<426 439>
VStem: 345 34<830 843> 466 34<861 873>
DStem: 358 718 381 614 11 0 231 295 358 718 191 209 11 0 93 0
Fore
427 209 m 1
 191 209 l 1
 93 0 l 1
 11 0 l 1
 358 718 l 1
 448 718 l 1
 536 0 l 1
 449 0 l 1
 427 209 l 1
231 295 m 1
 414 295 l 1
 381 614 l 1
 231 295 l 1
439 944 m 0
 475 944 500 915 500 873 c 0
 500 812 456 760 406 760 c 0
 370 760 345 788 345 831 c 0
 345 892 388 944 439 944 c 0
432 904 m 0
 404 904 379 874 379 841 c 0
 379 817 393 800 413 800 c 0
 440 800 466 831 466 863 c 0
 466 887 451 904 432 904 c 0
EndSplineSet
KernsSLIF: 121 -31 0 0 119 -25 0 0 118 -30 0 0 117 -15 0 0 116 -17 0 0 39 -51 0 0 186 -40 0 0 113 -13 0 0 46 1 0 0 111 -16 0 0 45 -6 0 0 172 -39 0 0 171 -43 0 0 103 -16 0 0 101 -15 0 0 100 -13 0 0 99 -11 0 0 98 -6 0 0 97 -11 0 0 89 -82 0 0 87 -43 0 0 86 -61 0 0 85 -32 0 0 84 -81 0 0 81 -30 0 0 79 -30 0 0 71 -33 0 0 67 -29 0 0
Ligature: 0 0 'liga' A uni030A
EndChar
StartChar: Aogonek
Encoding: 263 260 157
Width: 547
Flags: W
HStem: -225 47<447 470> -20 20G<449 481> 209 86<231 427> 698 20G<358 448>
VStem: 367 64<-153 -141>
DStem: 358 718 381 614 11 0 231 295 358 718 191 209 11 0 93 0
Fore
448 718 m 1
 536 0 l 1
 486 -34 466 -52 451 -76 c 0
 439 -94 431 -122 431 -143 c 0
 431 -166 445 -178 470 -178 c 0
 487 -178 499 -175 525 -163 c 1
 532 -203 l 1
 499 -218 473 -225 447 -225 c 0
 399 -225 367 -196 367 -152 c 0
 367 -119 384 -77 409 -48 c 0
 429 -24 443 -15 481 0 c 1
 449 0 l 1
 427 209 l 1
 191 209 l 1
 93 0 l 1
 11 0 l 1
 358 718 l 1
 448 718 l 1
231 295 m 1
 414 295 l 1
 381 614 l 1
 231 295 l 1
EndSplineSet
Ligature: 0 0 'liga' A uni0328
EndChar
StartChar: Ccedilla
Encoding: 264 199 158
Width: 592
Flags: W
HStem: -225 47<219 238> -97 39<253 294> -19 86<300 319> 651 86<423 441>
VStem: 88 83<238 272> 286 64<-130 -116>
DStem: 264 -17 300 -19 209 -86 267 -62
Fore
300 -19 m 1
 267 -62 l 1
 280 -59 286 -58 294 -58 c 0
 329 -58 350 -80 350 -116 c 0
 350 -177 300 -225 236 -225 c 0
 211 -225 190 -219 161 -203 c 1
 182 -163 l 1
 204 -175 215 -178 231 -178 c 0
 264 -178 286 -158 286 -128 c 0
 286 -110 272 -97 253 -97 c 0
 246 -97 237 -99 220 -105 c 1
 209 -86 l 1
 264 -17 l 1
 151 0 88 93 88 243 c 0
 88 377 130 518 198 607 c 0
 262 692 346 737 439 737 c 0
 562 737 640 656 640 527 c 0
 640 521 640 513 639 502 c 1
 562 502 l 1
 560 559 551 586 526 612 c 0
 503 637 467 651 425 651 c 0
 356 651 293 613 247 543 c 0
 201 475 171 360 171 255 c 0
 171 133 223 67 319 67 c 0
 374 67 421 91 462 140 c 0
 488 172 503 201 527 264 c 1
 604 264 l 1
 552 122 518 73 434 19 c 1
 393 -5 347 -18 300 -19 c 1
EndSplineSet
KernsSLIF: 65 -37 0 0
Ligature: 0 0 'liga' C uni0327
EndChar
StartChar: Cacute
Encoding: 265 262 159
Width: 592
Flags: W
HStem: -19 86<297 319> 651 86<423 441>
VStem: 88 83<236 270>
Fore
639 502 m 1
 562 502 l 1
 560 559 551 586 526 612 c 0
 503 637 467 651 425 651 c 0
 356 651 293 613 247 543 c 0
 201 475 171 360 171 255 c 0
 171 134 223 67 319 67 c 0
 375 67 421 91 462 140 c 0
 488 172 504 202 527 264 c 1
 604 264 l 1
 563 149 533 99 480 53 c 0
 427 6 362 -19 297 -19 c 0
 166 -19 88 79 88 242 c 0
 88 377 130 518 198 607 c 0
 262 692 346 737 439 737 c 0
 562 737 640 656 640 528 c 0
 640 521 640 513 639 502 c 1
583 929 m 1
 451 788 l 1
 396 788 l 1
 494 929 l 1
 583 929 l 1
EndSplineSet
Ligature: 0 0 'liga' C acutecomb
EndChar
StartChar: Ccaron
Encoding: 266 268 160
Width: 592
Flags: W
HStem: -19 86<297 319> 651 86<415 441>
VStem: 88 83<236 270>
DStem: 358 929 423 929 415 788 461 836 531 929 597 929 461 836 491 788
Fore
639 502 m 1
 562 502 l 1
 560 559 551 586 526 612 c 0
 503 637 467 651 425 651 c 0
 356 651 293 613 247 543 c 0
 201 475 171 360 171 255 c 0
 171 134 223 67 319 67 c 0
 375 67 421 91 462 140 c 0
 488 172 504 202 527 264 c 1
 604 264 l 1
 563 149 533 99 480 53 c 0
 427 6 362 -19 297 -19 c 0
 166 -19 88 79 88 242 c 0
 88 377 130 518 198 607 c 0
 262 692 346 737 439 737 c 0
 562 737 640 656 640 528 c 0
 640 521 640 513 639 502 c 1
423 929 m 1
 461 836 l 1
 531 929 l 1
 597 929 l 1
 491 788 l 1
 415 788 l 1
 358 929 l 1
 423 929 l 1
EndSplineSet
Ligature: 0 0 'liga' C uni030C
EndChar
StartChar: Dcaron
Encoding: 267 270 161
Width: 592
Flags: W
HStem: 0 83<160 323> 635 83<191 419>
VStem: 543 83<447 481>
DStem: 191 718 256 635 66 0 160 83 338 929 403 929 395 788 441 836 511 929 577 929 441 836 471 788
Fore
66 0 m 1
 191 718 l 1
 430 718 l 2
 553 718 626 626 626 472 c 0
 626 345 583 206 515 116 c 0
 457 38 386 0 302 0 c 2
 66 0 l 1
256 635 m 1
 160 83 l 1
 314 83 l 2
 374 83 427 116 468 178 c 0
 512 245 543 361 543 461 c 0
 543 573 494 635 405 635 c 2
 256 635 l 1
403 929 m 1
 441 836 l 1
 511 929 l 1
 577 929 l 1
 471 788 l 1
 395 788 l 1
 338 929 l 1
 403 929 l 1
EndSplineSet
Ligature: 0 0 'liga' D uni030C
EndChar
StartChar: Edieresis
Encoding: 268 203 162
Width: 547
Flags: W
HStem: 0 86<166 506> 326 86<222 530> 632 86<196 610> 799 102<327 385 459 517>
DStem: 196 718 261 632 71 0 222 412 196 718 207 326 71 0 166 86 328 901 402 901 310 799 385 799 460 901 535 901 443 799 517 799
Fore
521 86 m 1
 506 0 l 1
 71 0 l 1
 196 718 l 1
 625 718 l 1
 610 632 l 1
 261 632 l 1
 222 412 l 1
 545 412 l 1
 530 326 l 1
 207 326 l 1
 166 86 l 1
 521 86 l 1
402 901 m 1
 385 799 l 1
 310 799 l 1
 328 901 l 1
 402 901 l 1
535 901 m 1
 517 799 l 1
 443 799 l 1
 460 901 l 1
 535 901 l 1
EndSplineSet
Ligature: 0 0 'liga' E uni0308
EndChar
StartChar: Eacute
Encoding: 269 201 163
Width: 547
Flags: W
HStem: 0 86<166 506> 326 86<222 530> 632 86<196 610>
DStem: 196 718 261 632 71 0 222 412 196 718 207 326 71 0 166 86
Fore
521 86 m 1
 506 0 l 1
 71 0 l 1
 196 718 l 1
 625 718 l 1
 610 632 l 1
 261 632 l 1
 222 412 l 1
 545 412 l 1
 530 326 l 1
 207 326 l 1
 166 86 l 1
 521 86 l 1
562 929 m 1
 430 788 l 1
 375 788 l 1
 473 929 l 1
 562 929 l 1
EndSplineSet
Ligature: 0 0 'liga' E acutecomb
EndChar
StartChar: Egrave
Encoding: 270 200 164
Width: 547
Flags: W
HStem: 0 86<166 506> 326 86<222 530> 632 86<196 610>
DStem: 196 718 261 632 71 0 222 412 196 718 207 326 71 0 166 86
Fore
521 86 m 1
 506 0 l 1
 71 0 l 1
 196 718 l 1
 625 718 l 1
 610 632 l 1
 261 632 l 1
 222 412 l 1
 545 412 l 1
 530 326 l 1
 207 326 l 1
 166 86 l 1
 521 86 l 1
393 788 m 1
 311 929 l 1
 400 929 l 1
 448 788 l 1
 393 788 l 1
EndSplineSet
Ligature: 0 0 'liga' E gravecomb
EndChar
StartChar: Ecircumflex
Encoding: 271 202 165
Width: 547
Flags: W
HStem: 0 86<166 506> 326 86<222 530> 632 86<196 610>
DStem: 196 718 261 632 71 0 222 412 196 718 207 326 71 0 166 86 398 929 427 881 292 788 357 788 427 881 474 929 465 788 530 788
Fore
521 86 m 1
 506 0 l 1
 71 0 l 1
 196 718 l 1
 625 718 l 1
 610 632 l 1
 261 632 l 1
 222 412 l 1
 545 412 l 1
 530 326 l 1
 207 326 l 1
 166 86 l 1
 521 86 l 1
427 881 m 1
 357 788 l 1
 292 788 l 1
 398 929 l 1
 474 929 l 1
 530 788 l 1
 465 788 l 1
 427 881 l 1
EndSplineSet
Ligature: 0 0 'liga' E uni0302
EndChar
StartChar: Ecaron
Encoding: 272 282 166
Width: 547
Flags: W
HStem: 0 86<166 506> 326 86<222 530> 632 86<196 610>
DStem: 196 718 261 632 71 0 222 412 196 718 207 326 71 0 166 86 316 929 381 929 373 788 419 836 489 929 555 929 419 836 449 788
Fore
521 86 m 1
 506 0 l 1
 71 0 l 1
 196 718 l 1
 625 718 l 1
 610 632 l 1
 261 632 l 1
 222 412 l 1
 545 412 l 1
 530 326 l 1
 207 326 l 1
 166 86 l 1
 521 86 l 1
381 929 m 1
 419 836 l 1
 489 929 l 1
 555 929 l 1
 449 788 l 1
 373 788 l 1
 316 929 l 1
 381 929 l 1
EndSplineSet
Ligature: 0 0 'liga' E uni030C
EndChar
StartChar: Edotaccent
Encoding: 273 278 167
Width: 547
Flags: W
HStem: 0 86<166 506> 326 86<222 530> 632 86<196 610>
DStem: 196 718 261 632 71 0 222 412 196 718 207 326 71 0 166 86 393 901 468 901 375 799 450 799
Fore
521 86 m 1
 506 0 l 1
 71 0 l 1
 196 718 l 1
 625 718 l 1
 610 632 l 1
 261 632 l 1
 222 412 l 1
 545 412 l 1
 530 326 l 1
 207 326 l 1
 166 86 l 1
 521 86 l 1
468 901 m 1
 450 799 l 1
 375 799 l 1
 393 901 l 1
 468 901 l 1
EndSplineSet
Ligature: 0 0 'liga' E uni0307
EndChar
StartChar: Eogonek
Encoding: 274 280 168
Width: 547
Flags: W
HStem: -225 47<417 440> 0 86<166 451> 326 86<222 530> 632 86<196 610>
VStem: 337 64<-153 -141>
DStem: 196 718 261 632 71 0 222 412 196 718 207 326 71 0 166 86
Fore
625 718 m 1
 610 632 l 1
 261 632 l 1
 222 412 l 1
 545 412 l 1
 530 326 l 1
 207 326 l 1
 166 86 l 1
 521 86 l 1
 506 0 l 1
 456 -34 436 -52 421 -76 c 0
 409 -94 401 -122 401 -143 c 0
 401 -166 415 -178 440 -178 c 0
 456 -178 469 -175 494 -163 c 1
 501 -203 l 1
 468 -218 442 -225 417 -225 c 0
 369 -225 337 -196 337 -152 c 0
 337 -119 354 -77 378 -48 c 0
 398 -24 413 -15 451 0 c 1
 71 0 l 1
 196 718 l 1
 625 718 l 1
EndSplineSet
Ligature: 0 0 'liga' E uni0328
EndChar
StartChar: Gbreve
Encoding: 275 286 169
Width: 638
Flags: W
HStem: -19 83<305 331> 301 83<385 555> 651 86<426 447> 790 57<453 471>
VStem: 91 84<236 270>
Fore
372 301 m 1
 386 384 l 1
 644 384 l 1
 578 0 l 1
 526 0 l 1
 523 93 l 1
 458 16 390 -19 305 -19 c 0
 240 -19 190 3 155 47 c 0
 113 100 91 168 91 246 c 0
 91 370 136 513 203 602 c 0
 270 690 354 737 445 737 c 0
 570 737 655 651 655 524 c 2
 655 500 l 1
 578 500 l 1
 574 557 564 585 538 612 c 1
 513 636 474 651 432 651 c 0
 288 651 175 476 175 252 c 0
 175 128 228 64 331 64 c 0
 387 64 436 85 478 129 c 0
 519 171 539 215 555 301 c 1
 372 301 l 1
568 926 m 1
 607 926 l 1
 594 882 584 862 565 839 c 0
 538 807 499 790 454 790 c 0
 388 790 353 827 353 897 c 1
 354 926 l 1
 394 926 l 1
 396 904 397 898 401 888 c 0
 411 861 435 847 469 847 c 0
 518 847 543 868 568 926 c 1
EndSplineSet
Ligature: 0 0 'liga' G uni0306
EndChar
StartChar: Idieresis
Encoding: 276 207 170
Width: 228
Flags: W
HStem: 0 21G<75 154> 698 20G<200 279> 799 102<167 225 300 357>
DStem: 168 901 242 901 150 799 225 799 200 718 279 718 75 0 154 0 301 901 375 901 283 799 357 799
Fore
279 718 m 1
 154 0 l 1
 75 0 l 1
 200 718 l 1
 279 718 l 1
242 901 m 1
 225 799 l 1
 150 799 l 1
 168 901 l 1
 242 901 l 1
375 901 m 1
 357 799 l 1
 283 799 l 1
 301 901 l 1
 375 901 l 1
EndSplineSet
Ligature: 0 0 'liga' I uni0308
EndChar
StartChar: Iacute
Encoding: 277 205 171
Width: 228
Flags: W
HStem: 0 21G<75 154> 698 20G<200 279>
DStem: 200 718 279 718 75 0 154 0
Fore
279 718 m 1
 154 0 l 1
 75 0 l 1
 200 718 l 1
 279 718 l 1
401 929 m 1
 269 788 l 1
 214 788 l 1
 312 929 l 1
 401 929 l 1
EndSplineSet
Ligature: 0 0 'liga' I acutecomb
EndChar
StartChar: Igrave
Encoding: 278 204 172
Width: 228
Flags: W
HStem: 0 21G<75 154> 698 20G<200 279>
DStem: 200 718 279 718 75 0 154 0
Fore
279 718 m 1
 154 0 l 1
 75 0 l 1
 200 718 l 1
 279 718 l 1
233 788 m 1
 151 929 l 1
 240 929 l 1
 288 788 l 1
 233 788 l 1
EndSplineSet
Ligature: 0 0 'liga' I gravecomb
EndChar
StartChar: Icircumflex
Encoding: 279 206 173
Width: 228
Flags: W
HStem: 0 21G<75 154> 698 20G<200 279>
DStem: 200 718 279 718 75 0 154 0 238 929 267 881 132 788 197 788 267 881 314 929 305 788 370 788
Fore
279 718 m 1
 154 0 l 1
 75 0 l 1
 200 718 l 1
 279 718 l 1
267 881 m 1
 197 788 l 1
 132 788 l 1
 238 929 l 1
 314 929 l 1
 370 788 l 1
 305 788 l 1
 267 881 l 1
EndSplineSet
Ligature: 0 0 'liga' I uni0302
EndChar
StartChar: Idotaccent
Encoding: 280 304 174
Width: 228
Flags: W
HStem: 0 21G<75 154> 698 20G<200 279>
DStem: 200 718 279 718 75 0 154 0 233 901 308 901 215 799 290 799
Fore
279 718 m 1
 154 0 l 1
 75 0 l 1
 200 718 l 1
 279 718 l 1
308 901 m 1
 290 799 l 1
 215 799 l 1
 233 901 l 1
 308 901 l 1
EndSplineSet
Ligature: 0 0 'liga' I uni0307
EndChar
StartChar: Lacute
Encoding: 281 313 175
Width: 456
Flags: W
HStem: 0 86<157 440> 698 20G<187 267>
DStem: 187 718 267 718 62 0 157 86
Fore
267 718 m 1
 157 86 l 1
 455 86 l 1
 440 0 l 1
 62 0 l 1
 187 718 l 1
 267 718 l 1
435 929 m 1
 303 788 l 1
 248 788 l 1
 346 929 l 1
 435 929 l 1
EndSplineSet
Ligature: 0 0 'liga' L acutecomb
EndChar
StartChar: Lcaron
Encoding: 282 317 176
Width: 456
Flags: W
HStem: 0 86<157 440> 698 20G<187 267 459 536>
DStem: 187 718 267 718 62 0 157 86 459 718 536 718 441 617 520 624
Fore
267 718 m 1
 157 86 l 1
 455 86 l 1
 440 0 l 1
 62 0 l 1
 187 718 l 1
 267 718 l 1
459 718 m 1
 536 718 l 1
 520 624 l 1
 506 544 469 496 420 492 c 1
 427 531 l 1
 455 534 473 563 481 617 c 1
 441 617 l 1
 459 718 l 1
EndSplineSet
Ligature: 0 0 'liga' L uni030C
EndChar
StartChar: Nacute
Encoding: 283 323 177
Width: 592
Flags: W
HStem: 0 21G<62 139 440 530> 698 20G<187 282 578 655>
DStem: 187 718 241 583 62 0 139 0 241 583 282 718 440 0 476 135 578 718 655 718 476 135 530 0
Fore
476 135 m 1
 578 718 l 1
 655 718 l 1
 530 0 l 1
 440 0 l 1
 241 583 l 1
 139 0 l 1
 62 0 l 1
 187 718 l 1
 282 718 l 1
 476 135 l 1
583 929 m 1
 451 788 l 1
 396 788 l 1
 494 929 l 1
 583 929 l 1
EndSplineSet
Ligature: 0 0 'liga' N acutecomb
EndChar
StartChar: Ncaron
Encoding: 284 327 178
Width: 592
Flags: W
HStem: 0 21G<62 139 440 530> 698 20G<187 282 578 655>
DStem: 187 718 241 583 62 0 139 0 241 583 282 718 440 0 476 135 338 929 403 929 395 788 441 836 511 929 577 929 441 836 471 788 578 718 655 718 476 135 530 0
Fore
476 135 m 1
 578 718 l 1
 655 718 l 1
 530 0 l 1
 440 0 l 1
 241 583 l 1
 139 0 l 1
 62 0 l 1
 187 718 l 1
 282 718 l 1
 476 135 l 1
403 929 m 1
 441 836 l 1
 511 929 l 1
 577 929 l 1
 471 788 l 1
 395 788 l 1
 338 929 l 1
 403 929 l 1
EndSplineSet
Ligature: 0 0 'liga' N uni030C
EndChar
StartChar: Ntilde
Encoding: 285 209 179
Width: 592
Flags: W
HStem: 0 21G<62 139 440 530> 698 20G<187 282 578 655> 808 63<494 508> 845 63<382 400>
DStem: 187 718 241 583 62 0 139 0 241 583 282 718 440 0 476 135 578 718 655 718 476 135 530 0
Fore
476 135 m 1xc0
 578 718 l 1
 655 718 l 1
 530 0 l 1
 440 0 l 1
 241 583 l 1
 139 0 l 1
 62 0 l 1
 187 718 l 1
 282 718 l 1
 476 135 l 1xc0
555 917 m 1
 596 917 l 1
 574 846 539 808 494 808 c 0xe0
 482 808 469 812 449 821 c 2
 429 830 l 2
 406 841 392 845 382 845 c 0
 362 845 349 833 335 801 c 1
 296 801 l 1
 319 875 351 908 400 908 c 0xd0
 416 908 435 903 453 893 c 2
 470 884 l 2
 485 876 499 871 508 871 c 0xe0
 530 871 543 884 555 917 c 1
EndSplineSet
Ligature: 0 0 'liga' N tildecomb
EndChar
StartChar: Odieresis
Encoding: 286 214 180
Width: 638
Flags: W
HStem: -19 86<314 332> 651 86<428 449> 799 102<372 430 504 562>
VStem: 86 83<252 286> 594 83<428 462>
DStem: 373 901 447 901 355 799 430 799 505 901 580 901 488 799 562 799
Fore
447 737 m 0
 593 737 677 634 677 456 c 0
 677 335 635 207 566 115 c 0
 499 26 415 -19 316 -19 c 0
 251 -19 193 3 156 42 c 0
 114 86 86 173 86 261 c 0
 86 383 128 512 196 603 c 0
 263 691 349 737 447 737 c 0
432 651 m 0
 287 651 169 482 169 274 c 0
 169 145 230 67 330 67 c 0
 415 67 491 121 540 216 c 0
 574 283 594 366 594 445 c 0
 594 573 533 651 432 651 c 0
447 901 m 1
 430 799 l 1
 355 799 l 1
 373 901 l 1
 447 901 l 1
580 901 m 1
 562 799 l 1
 488 799 l 1
 505 901 l 1
 580 901 l 1
EndSplineSet
KernsSLIF: 89 -53 0 0 88 -39 0 0 87 -16 0 0 86 -34 0 0 84 -34 0 0 65 -36 0 0
Ligature: 0 0 'liga' O uni0308
EndChar
StartChar: Oacute
Encoding: 287 211 181
Width: 638
Flags: W
HStem: -19 86<314 332> 651 86<430 449>
VStem: 86 83<252 286> 594 83<428 462>
Fore
447 737 m 0
 593 737 677 634 677 456 c 0
 677 335 635 207 566 115 c 0
 499 26 415 -19 316 -19 c 0
 251 -19 193 3 156 42 c 0
 114 86 86 173 86 261 c 0
 86 383 128 512 196 603 c 0
 263 691 349 737 447 737 c 0
432 651 m 0
 287 651 169 482 169 274 c 0
 169 145 230 67 330 67 c 0
 415 67 491 121 540 216 c 0
 574 283 594 366 594 445 c 0
 594 573 533 651 432 651 c 0
607 929 m 1
 475 788 l 1
 420 788 l 1
 518 929 l 1
 607 929 l 1
EndSplineSet
KernsSLIF: 89 -53 0 0 87 -16 0 0 86 -34 0 0 84 -34 0 0 65 -36 0 0
Ligature: 0 0 'liga' O acutecomb
EndChar
StartChar: Ograve
Encoding: 288 210 182
Width: 638
Flags: W
HStem: -19 86<314 332> 651 86<430 449>
VStem: 86 83<252 286> 594 83<428 462>
Fore
447 737 m 0
 593 737 677 634 677 456 c 0
 677 335 635 207 566 115 c 0
 499 26 415 -19 316 -19 c 0
 251 -19 193 3 156 42 c 0
 114 86 86 173 86 261 c 0
 86 383 128 512 196 603 c 0
 263 691 349 737 447 737 c 0
432 651 m 0
 287 651 169 482 169 274 c 0
 169 145 230 67 330 67 c 0
 415 67 491 121 540 216 c 0
 574 283 594 366 594 445 c 0
 594 573 533 651 432 651 c 0
438 788 m 1
 356 929 l 1
 445 929 l 1
 493 788 l 1
 438 788 l 1
EndSplineSet
KernsSLIF: 89 -53 0 0 86 -34 0 0 84 -34 0 0
Ligature: 0 0 'liga' O gravecomb
EndChar
StartChar: Ocircumflex
Encoding: 289 212 183
Width: 638
Flags: W
HStem: -19 86<314 339> 651 86<430 449>
VStem: 86 83<252 286> 594 83<428 462>
DStem: 443 929 472 881 337 788 402 788 472 881 519 929 510 788 575 788
Fore
447 737 m 0
 593 737 677 634 677 456 c 0
 677 335 635 207 566 115 c 0
 499 26 415 -19 316 -19 c 0
 251 -19 193 3 156 42 c 0
 114 86 86 173 86 261 c 0
 86 383 128 512 196 603 c 0
 263 691 349 737 447 737 c 0
432 651 m 0
 287 651 169 482 169 274 c 0
 169 145 230 67 330 67 c 0
 415 67 491 121 540 216 c 0
 574 283 594 366 594 445 c 0
 594 573 533 651 432 651 c 0
472 881 m 1
 402 788 l 1
 337 788 l 1
 443 929 l 1
 519 929 l 1
 575 788 l 1
 510 788 l 1
 472 881 l 1
EndSplineSet
KernsSLIF: 89 -53 0 0 86 -34 0 0 84 -34 0 0
Ligature: 0 0 'liga' O uni0302
EndChar
StartChar: Otilde
Encoding: 290 213 184
Width: 638
Flags: W
HStem: -19 86<314 332> 651 86<422 452> 808 63<517 531> 845 63<405 423>
VStem: 86 83<252 286> 594 83<428 462>
Fore
447 737 m 0xcc
 593 737 677 634 677 456 c 0
 677 335 635 207 566 115 c 0
 499 26 415 -19 316 -19 c 0
 251 -19 193 3 156 42 c 0
 114 86 86 173 86 261 c 0
 86 383 128 512 196 603 c 0
 263 691 349 737 447 737 c 0xcc
432 651 m 0
 287 651 169 482 169 274 c 0
 169 145 230 67 330 67 c 0
 415 67 491 121 540 216 c 0
 574 283 594 366 594 445 c 0
 594 573 533 651 432 651 c 0
578 917 m 1
 619 917 l 1
 597 846 562 808 517 808 c 0xec
 505 808 492 812 472 821 c 2
 452 830 l 2
 429 841 415 845 405 845 c 0
 385 845 372 833 358 801 c 1
 319 801 l 1
 342 875 374 908 423 908 c 0xdc
 439 908 458 903 476 893 c 2
 493 884 l 2
 508 876 522 871 531 871 c 0xec
 553 871 566 884 578 917 c 1
EndSplineSet
KernsSLIF: 89 -53 0 0 86 -34 0 0 84 -34 0 0
Ligature: 0 0 'liga' O tildecomb
EndChar
StartChar: Ohungarumlaut
Encoding: 291 336 185
Width: 638
Flags: W
HStem: -19 86<314 332> 651 86<430 449>
VStem: 86 83<252 286> 594 83<428 462>
Fore
447 737 m 0
 593 737 677 634 677 456 c 0
 677 335 635 207 566 115 c 0
 499 26 415 -19 316 -19 c 0
 251 -19 193 3 156 42 c 0
 114 86 86 173 86 261 c 0
 86 383 128 512 196 603 c 0
 263 691 349 737 447 737 c 0
432 651 m 0
 287 651 169 482 169 274 c 0
 169 145 230 67 330 67 c 0
 415 67 491 121 540 216 c 0
 574 283 594 366 594 445 c 0
 594 573 533 651 432 651 c 0
532 929 m 1
 400 788 l 1
 345 788 l 1
 442 929 l 1
 532 929 l 1
679 929 m 1
 547 788 l 1
 492 788 l 1
 590 929 l 1
 679 929 l 1
EndSplineSet
Ligature: 0 0 'liga' O uni030B
EndChar
StartChar: Racute
Encoding: 292 340 186
Width: 592
Flags: W
HStem: 0 21G<72 152 463 561> 308 83<220 409> 635 83<197 472>
VStem: 463 81<17 54> 486 82<230 263> 549 85<551 575>
DStem: 197 718 262 635 72 0 220 391 197 718 205 308 72 0 152 0
Fore
205 308 m 1xe8
 152 0 l 1
 72 0 l 1
 197 718 l 1
 470 718 l 2
 577 718 634 668 634 575 c 0xe4
 634 520 617 459 590 420 c 0
 572 393 555 378 518 353 c 1
 557 331 568 312 568 263 c 0xe8
 568 251 567 233 565 218 c 2
 547 88 l 2
 545 74 544 63 544 54 c 0
 544 38 549 29 564 16 c 1
 561 0 l 1
 463 0 l 1
 463 17 l 2xf0
 463 48 470 115 481 180 c 0
 484 200 486 217 486 230 c 0
 486 281 455 308 398 308 c 2
 205 308 l 1xe8
262 635 m 1
 220 391 l 1
 404 391 l 2
 459 391 496 408 520 444 c 0
 537 470 549 514 549 552 c 0
 549 608 521 635 461 635 c 2
 262 635 l 1
583 929 m 1
 451 788 l 1
 396 788 l 1
 494 929 l 1
 583 929 l 1
EndSplineSet
Ligature: 0 0 'liga' R acutecomb
EndChar
StartChar: Rcaron
Encoding: 293 344 187
Width: 592
Flags: W
HStem: 0 21G<72 152 463 561> 308 83<220 409> 635 83<197 474>
VStem: 463 81<17 54> 486 82<230 263> 549 85<551 575>
DStem: 197 718 262 635 72 0 220 391 197 718 205 308 72 0 152 0 338 929 403 929 395 788 441 836 511 929 577 929 441 836 471 788
Fore
205 308 m 1xe8
 152 0 l 1
 72 0 l 1
 197 718 l 1
 470 718 l 2
 577 718 634 668 634 575 c 0xe4
 634 520 617 459 590 420 c 0
 572 393 555 378 518 353 c 1
 557 331 568 312 568 263 c 0xe8
 568 251 567 233 565 218 c 2
 547 88 l 2
 545 74 544 63 544 54 c 0
 544 38 549 29 564 16 c 1
 561 0 l 1
 463 0 l 1
 463 17 l 2xf0
 463 48 470 115 481 180 c 0
 484 200 486 217 486 230 c 0
 486 281 455 308 398 308 c 2
 205 308 l 1xe8
262 635 m 1
 220 391 l 1
 404 391 l 2
 459 391 496 408 520 444 c 0
 537 470 549 514 549 552 c 0
 549 608 521 635 461 635 c 2
 262 635 l 1
403 929 m 1
 441 836 l 1
 511 929 l 1
 577 929 l 1
 471 788 l 1
 395 788 l 1
 338 929 l 1
 403 929 l 1
EndSplineSet
Ligature: 0 0 'liga' R uni030C
EndChar
StartChar: Sacute
Encoding: 294 346 188
Width: 547
Flags: W
HStem: -19 83<270 299> 654 83<372 400>
VStem: 74 78<157 186> 146 81<475 506> 467 80<217 246> 507 77<539 569>
Fore
580 508 m 1xd4
 505 508 l 1
 506 521 507 532 507 541 c 0
 507 611 460 654 384 654 c 0
 292 654 227 593 227 506 c 0xd4
 227 470 245 448 283 437 c 2
 442 390 l 2
 511 370 547 320 547 246 c 0
 547 89 435 -19 272 -19 c 0
 193 -19 144 2 109 50 c 0
 87 82 74 120 74 157 c 0
 74 176 76 202 81 232 c 1
 156 232 l 1
 153 214 152 197 152 186 c 0
 152 110 205 64 291 64 c 0
 399 64 467 123 467 217 c 0xe8
 467 265 441 288 360 312 c 2
 246 346 l 2
 180 366 146 410 146 475 c 0
 146 532 169 598 205 645 c 0
 251 706 315 737 398 737 c 0
 515 737 584 674 584 569 c 0
 584 554 583 532 580 508 c 1xd4
561 929 m 1
 429 788 l 1
 374 788 l 1
 472 929 l 1
 561 929 l 1
EndSplineSet
Ligature: 0 0 'liga' S acutecomb
EndChar
StartChar: Scaron
Encoding: 295 352 189
Width: 547
Flags: W
HStem: -19 83<270 299> 654 83<372 400>
VStem: 74 78<157 186> 146 81<475 506> 467 80<217 246> 507 77<539 569>
DStem: 316 929 381 929 373 788 419 836 489 929 555 929 419 836 449 788
Fore
580 508 m 1xd4
 505 508 l 1
 506 521 507 532 507 541 c 0
 507 611 460 654 384 654 c 0
 292 654 227 593 227 506 c 0xd4
 227 470 245 448 283 437 c 2
 442 390 l 2
 511 370 547 320 547 246 c 0
 547 89 435 -19 272 -19 c 0
 193 -19 144 2 109 50 c 0
 87 82 74 120 74 157 c 0
 74 176 76 202 81 232 c 1
 156 232 l 1
 153 214 152 197 152 186 c 0
 152 110 205 64 291 64 c 0
 399 64 467 123 467 217 c 0xe8
 467 265 441 288 360 312 c 2
 246 346 l 2
 180 366 146 410 146 475 c 0
 146 532 169 598 205 645 c 0
 251 706 315 737 398 737 c 0
 515 737 584 674 584 569 c 0
 584 554 583 532 580 508 c 1xd4
381 929 m 1
 419 836 l 1
 489 929 l 1
 555 929 l 1
 449 788 l 1
 373 788 l 1
 316 929 l 1
 381 929 l 1
EndSplineSet
Ligature: 0 0 'liga' S uni030C
EndChar
StartChar: Scedilla
Encoding: 296 350 190
Width: 547
Flags: W
HStem: -225 47<197 219> -97 39<231 272> -19 83<278 299> 654 83<377 400>
VStem: 74 78<157 186> 146 81<475 506> 264 64<-130 -116> 467 80<217 246> 507 77<539 569>
DStem: 241 -17 278 -19 187 -86 245 -62
Fore
278 -19 m 1xf7
 245 -62 l 1
 258 -59 264 -58 272 -58 c 0
 307 -58 328 -80 328 -116 c 0
 328 -177 278 -225 214 -225 c 0
 189 -225 168 -219 139 -203 c 1
 160 -163 l 1
 181 -174 193 -178 209 -178 c 0
 242 -178 264 -158 264 -128 c 0
 264 -110 250 -97 231 -97 c 0
 224 -97 215 -99 198 -105 c 1
 187 -86 l 1
 241 -17 l 1
 181 -11 147 5 119 38 c 0
 90 72 74 115 74 157 c 0
 74 176 76 202 81 232 c 1
 156 232 l 1
 153 214 152 197 152 186 c 0
 152 110 205 64 291 64 c 0
 399 64 467 123 467 217 c 0xfb
 467 265 441 288 360 312 c 2
 246 346 l 2
 180 366 146 410 146 475 c 0
 146 532 169 598 205 645 c 0
 251 706 315 737 398 737 c 0
 515 737 584 674 584 569 c 0
 584 554 583 532 580 508 c 1
 505 508 l 1
 506 521 507 532 507 541 c 0xf680
 507 611 460 654 384 654 c 0
 292 654 227 593 227 506 c 0
 227 470 245 448 283 437 c 2
 442 390 l 2
 511 370 547 320 547 246 c 0
 547 174 519 103 474 57 c 0
 426 9 361 -17 278 -19 c 1xf7
EndSplineSet
Ligature: 0 0 'liga' S uni0327
EndChar
StartChar: Tcaron
Encoding: 297 356 191
Width: 501
Flags: W
HStem: 0 21G<211 291> 632 86<136 321 137 600>
DStem: 293 929 358 929 350 788 396 836 321 632 401 632 211 0 291 0 466 929 532 929 396 836 426 788
Fore
122 632 m 1
 137 718 l 1
 615 718 l 1
 600 632 l 1
 401 632 l 1
 291 0 l 1
 211 0 l 1
 321 632 l 1
 122 632 l 1
358 929 m 1
 396 836 l 1
 466 929 l 1
 532 929 l 1
 426 788 l 1
 350 788 l 1
 293 929 l 1
 358 929 l 1
EndSplineSet
Ligature: 0 0 'liga' T uni030C
EndChar
StartChar: Udieresis
Encoding: 298 220 192
Width: 592
Flags: W
HStem: -19 86<287 309> 698 20G<190 269 574 653> 799 102<349 407 481 539>
VStem: 101 84<176 202>
DStem: 190 718 269 718 106 239 191 266 350 901 424 901 332 799 407 799 482 901 557 901 465 799 539 799 574 718 653 718 494 264 572 252
Fore
574 718 m 1
 653 718 l 1
 572 252 l 1
 543 87 433 -19 289 -19 c 0
 169 -19 101 52 101 176 c 0
 101 197 103 218 106 239 c 1
 190 718 l 1
 269 718 l 1
 191 266 l 1
 187 245 185 223 185 202 c 0
 185 115 228 67 307 67 c 0
 404 67 473 139 494 264 c 1
 574 718 l 1
424 901 m 1
 407 799 l 1
 332 799 l 1
 350 901 l 1
 424 901 l 1
557 901 m 1
 539 799 l 1
 465 799 l 1
 482 901 l 1
 557 901 l 1
EndSplineSet
KernsSLIF: 114 -14 0 0 46 -27 0 0 112 -7 0 0 110 -9 0 0 109 -9 0 0 44 -30 0 0 98 -7 0 0 65 -37 0 0
Ligature: 0 0 'liga' U uni0308
EndChar
StartChar: Uacute
Encoding: 299 218 193
Width: 592
Flags: W
HStem: -19 86<287 309> 698 20G<190 269 574 653>
VStem: 101 84<176 202>
DStem: 190 718 269 718 106 239 191 266 574 718 653 718 494 264 572 252
Fore
574 718 m 1
 653 718 l 1
 572 252 l 1
 543 87 433 -19 289 -19 c 0
 169 -19 101 52 101 176 c 0
 101 197 103 218 106 239 c 1
 190 718 l 1
 269 718 l 1
 191 266 l 1
 187 245 185 223 185 202 c 0
 185 115 228 67 307 67 c 0
 404 67 473 139 494 264 c 1
 574 718 l 1
584 929 m 1
 452 788 l 1
 397 788 l 1
 495 929 l 1
 584 929 l 1
EndSplineSet
KernsSLIF: 114 -14 0 0 46 -27 0 0 112 -7 0 0 110 -9 0 0 109 -9 0 0 44 -30 0 0 65 -37 0 0
Ligature: 0 0 'liga' U acutecomb
EndChar
StartChar: Ugrave
Encoding: 300 217 194
Width: 592
Flags: W
HStem: -19 86<287 309> 698 20G<190 269 574 653>
VStem: 101 84<176 202>
DStem: 190 718 269 718 106 239 191 266 574 718 653 718 494 264 572 252
Fore
574 718 m 1
 653 718 l 1
 572 252 l 1
 543 87 433 -19 289 -19 c 0
 169 -19 101 52 101 176 c 0
 101 197 103 218 106 239 c 1
 190 718 l 1
 269 718 l 1
 191 266 l 1
 187 245 185 223 185 202 c 0
 185 115 228 67 307 67 c 0
 404 67 473 139 494 264 c 1
 574 718 l 1
415 788 m 1
 333 929 l 1
 422 929 l 1
 470 788 l 1
 415 788 l 1
EndSplineSet
KernsSLIF: 65 -37 0 0
Ligature: 0 0 'liga' U gravecomb
EndChar
StartChar: Ucircumflex
Encoding: 301 219 195
Width: 592
Flags: W
HStem: -19 86<287 309> 698 20G<190 269 574 653>
VStem: 101 84<176 202>
DStem: 190 718 269 718 106 239 191 266 421 929 450 881 315 788 380 788 450 881 497 929 488 788 553 788 574 718 653 718 494 264 572 252
Fore
574 718 m 1
 653 718 l 1
 572 252 l 1
 543 87 433 -19 289 -19 c 0
 169 -19 101 52 101 176 c 0
 101 197 103 218 106 239 c 1
 190 718 l 1
 269 718 l 1
 191 266 l 1
 187 245 185 223 185 202 c 0
 185 115 228 67 307 67 c 0
 404 67 473 139 494 264 c 1
 574 718 l 1
450 881 m 1
 380 788 l 1
 315 788 l 1
 421 929 l 1
 497 929 l 1
 553 788 l 1
 488 788 l 1
 450 881 l 1
EndSplineSet
KernsSLIF: 65 -37 0 0
Ligature: 0 0 'liga' U uni0302
EndChar
StartChar: Uring
Encoding: 302 366 196
Width: 592
Flags: W
HStem: -19 86<287 309> 698 20G<190 269 574 653> 767 40<427 438> 911 40<452 462>
VStem: 101 84<176 202> 368 34<837 850> 489 34<868 880>
DStem: 190 718 269 718 106 239 191 266 574 718 653 718 494 264 572 252
Fore
574 718 m 1
 653 718 l 1
 572 252 l 1
 543 87 433 -19 289 -19 c 0
 169 -19 101 52 101 176 c 0
 101 197 103 218 106 239 c 1
 190 718 l 1
 269 718 l 1
 191 266 l 1
 187 245 185 223 185 202 c 0
 185 115 228 67 307 67 c 0
 404 67 473 139 494 264 c 1
 574 718 l 1
462 951 m 0
 498 951 523 922 523 880 c 0
 523 819 479 767 429 767 c 0
 393 767 368 795 368 838 c 0
 368 899 411 951 462 951 c 0
455 911 m 0
 427 911 402 881 402 848 c 0
 402 824 416 807 436 807 c 0
 463 807 489 838 489 870 c 0
 489 894 474 911 455 911 c 0
EndSplineSet
Ligature: 0 0 'liga' U uni030A
EndChar
StartChar: Uhungarumlaut
Encoding: 303 368 197
Width: 592
Flags: W
HStem: -19 86<287 309> 698 20G<190 269 574 653>
VStem: 101 84<176 202>
DStem: 190 718 269 718 106 239 191 266 574 718 653 718 494 264 572 252
Fore
574 718 m 1
 653 718 l 1
 572 252 l 1
 543 87 433 -19 289 -19 c 0
 169 -19 101 52 101 176 c 0
 101 197 103 218 106 239 c 1
 190 718 l 1
 269 718 l 1
 191 266 l 1
 187 245 185 223 185 202 c 0
 185 115 228 67 307 67 c 0
 404 67 473 139 494 264 c 1
 574 718 l 1
509 929 m 1
 377 788 l 1
 322 788 l 1
 419 929 l 1
 509 929 l 1
656 929 m 1
 524 788 l 1
 469 788 l 1
 567 929 l 1
 656 929 l 1
EndSplineSet
Ligature: 0 0 'liga' U uni030B
EndChar
StartChar: Yacute
Encoding: 304 221 198
Width: 547
Flags: W
HStem: 0 21G<234 314> 698 20G<137 230 568 661>
DStem: 284 289 364 289 234 0 314 0
Fore
364 289 m 1
 314 0 l 1
 234 0 l 1
 284 289 l 1
 137 718 l 1
 230 718 l 1
 338 373 l 1
 568 718 l 1
 661 718 l 1
 364 289 l 1
562 929 m 1
 430 788 l 1
 375 788 l 1
 473 929 l 1
 562 929 l 1
EndSplineSet
MinimumDistance: x4,8 
Ligature: 0 0 'liga' Y acutecomb
EndChar
StartChar: Zacute
Encoding: 305 377 199
Width: 501
Flags: W
HStem: 0 86<135 482> 632 86<170 490>
DStem: 490 632 592 634 33 81 135 86
Fore
497 86 m 1
 482 0 l 1
 19 0 l 1
 33 81 l 1
 490 632 l 1
 156 632 l 1
 171 718 l 1
 607 718 l 1
 592 634 l 1
 135 86 l 1
 497 86 l 1
538 929 m 1
 406 788 l 1
 351 788 l 1
 449 929 l 1
 538 929 l 1
EndSplineSet
Ligature: 0 0 'liga' Z acutecomb
EndChar
StartChar: Zcaron
Encoding: 306 381 200
Width: 501
Flags: W
HStem: 0 86<135 482> 632 86<170 490>
DStem: 293 929 358 929 350 788 396 836 466 929 532 929 396 836 426 788 490 632 592 634 33 81 135 86
Fore
497 86 m 1
 482 0 l 1
 19 0 l 1
 33 81 l 1
 490 632 l 1
 156 632 l 1
 171 718 l 1
 607 718 l 1
 592 634 l 1
 135 86 l 1
 497 86 l 1
358 929 m 1
 396 836 l 1
 466 929 l 1
 532 929 l 1
 426 788 l 1
 350 788 l 1
 293 929 l 1
 358 929 l 1
EndSplineSet
Ligature: 0 0 'liga' Z uni030C
EndChar
StartChar: Zdotaccent
Encoding: 307 379 201
Width: 501
Flags: W
HStem: 0 86<135 482> 632 86<170 490>
DStem: 370 901 445 901 352 799 427 799 490 632 592 634 33 81 135 86
Fore
497 86 m 1
 482 0 l 1
 19 0 l 1
 33 81 l 1
 490 632 l 1
 156 632 l 1
 171 718 l 1
 607 718 l 1
 592 634 l 1
 135 86 l 1
 497 86 l 1
445 901 m 1
 427 799 l 1
 352 799 l 1
 370 901 l 1
 445 901 l 1
EndSplineSet
Ligature: 0 0 'liga' Z uni0307
EndChar
StartChar: Amacron
Encoding: 308 256 202
Width: 547
Flags: W
HStem: 0 21G<11 93 449 536> 209 86<231 427> 698 20G<358 448> 822 57<297 545>
DStem: 358 718 381 614 11 0 231 295 358 718 191 209 11 0 93 0
Fore
427 209 m 1
 191 209 l 1
 93 0 l 1
 11 0 l 1
 358 718 l 1
 448 718 l 1
 536 0 l 1
 449 0 l 1
 427 209 l 1
231 295 m 1
 414 295 l 1
 381 614 l 1
 231 295 l 1
555 879 m 1
 545 822 l 1
 288 822 l 1
 298 879 l 1
 555 879 l 1
EndSplineSet
Ligature: 0 0 'liga' A uni0304
EndChar
StartChar: Tcommaaccent
Encoding: 309 354 203
Width: 501
Flags: W
HStem: 0 21G<211 291> 632 86<136 321 137 600>
DStem: 200 -60 277 -60 182 -161 261 -154 321 632 401 632 211 0 291 0
Fore
122 632 m 1
 137 718 l 1
 615 718 l 1
 600 632 l 1
 401 632 l 1
 291 0 l 1
 211 0 l 1
 321 632 l 1
 122 632 l 1
200 -60 m 1
 277 -60 l 1
 261 -154 l 1
 247 -234 210 -282 161 -286 c 1
 168 -247 l 1
 196 -244 214 -215 222 -161 c 1
 182 -161 l 1
 200 -60 l 1
EndSplineSet
Ligature: 0 0 'liga' T uni0327
EndChar
StartChar: Ydieresis
Encoding: 310 376 204
Width: 547
Flags: W
HStem: 0 21G<234 314> 698 20G<137 230 568 661> 799 102<327 385 459 517>
DStem: 284 289 364 289 234 0 314 0 328 901 402 901 310 799 385 799 460 901 535 901 443 799 517 799
Fore
364 289 m 1
 314 0 l 1
 234 0 l 1
 284 289 l 1
 137 718 l 1
 230 718 l 1
 338 373 l 1
 568 718 l 1
 661 718 l 1
 364 289 l 1
402 901 m 1
 385 799 l 1
 310 799 l 1
 328 901 l 1
 402 901 l 1
535 901 m 1
 517 799 l 1
 443 799 l 1
 460 901 l 1
 535 901 l 1
EndSplineSet
MinimumDistance: x4,8 
Ligature: 0 0 'liga' Y uni0308
EndChar
StartChar: Emacron
Encoding: 311 274 205
Width: 547
Flags: W
HStem: 0 86<166 506> 326 86<222 530> 632 86<196 610> 822 57<297 545>
DStem: 196 718 261 632 71 0 222 412 196 718 207 326 71 0 166 86
Fore
521 86 m 1
 506 0 l 1
 71 0 l 1
 196 718 l 1
 625 718 l 1
 610 632 l 1
 261 632 l 1
 222 412 l 1
 545 412 l 1
 530 326 l 1
 207 326 l 1
 166 86 l 1
 521 86 l 1
555 879 m 1
 545 822 l 1
 288 822 l 1
 298 879 l 1
 555 879 l 1
EndSplineSet
Ligature: 0 0 'liga' E uni0304
EndChar
StartChar: Imacron
Encoding: 312 298 206
Width: 228
Flags: W
HStem: 0 21G<75 154> 698 20G<200 279> 822 57<137 385>
DStem: 200 718 279 718 75 0 154 0
Fore
279 718 m 1
 154 0 l 1
 75 0 l 1
 200 718 l 1
 279 718 l 1
395 879 m 1
 385 822 l 1
 128 822 l 1
 138 879 l 1
 395 879 l 1
EndSplineSet
Ligature: 0 0 'liga' I uni0304
EndChar
StartChar: Iogonek
Encoding: 313 302 207
Width: 228
Flags: W
HStem: -225 47<65 88> -20 20G<75 99> 698 20G<199 279>
VStem: -15 64<-153 -141>
DStem: 199 718 279 718 75 0 154 0
Fore
279 718 m 1
 154 0 l 1
 104 -34 84 -52 69 -76 c 0
 57 -94 49 -122 49 -143 c 0
 49 -166 63 -178 88 -178 c 0
 105 -178 117 -175 143 -163 c 1
 150 -203 l 1
 117 -218 91 -225 65 -225 c 0
 17 -225 -15 -196 -15 -152 c 0
 -15 -119 2 -77 27 -48 c 0
 47 -24 61 -15 99 0 c 1
 75 0 l 1
 199 718 l 1
 279 718 l 1
EndSplineSet
Ligature: 0 0 'liga' I uni0328
EndChar
StartChar: Kcommaaccent
Encoding: 314 310 208
Width: 547
Flags: W
HStem: 0 21G<62 142 440 543> 698 20G<187 267 552 662>
DStem: 187 718 267 718 62 0 206 370 187 718 185 252 62 0 142 0 223 -60 300 -60 205 -161 284 -154 297 360 366 428 440 0 543 0 552 718 662 718 206 370 366 428
Fore
185 252 m 1
 142 0 l 1
 62 0 l 1
 187 718 l 1
 267 718 l 1
 206 370 l 1
 552 718 l 1
 662 718 l 1
 366 428 l 1
 543 0 l 1
 440 0 l 1
 297 360 l 1
 185 252 l 1
223 -60 m 1
 300 -60 l 1
 284 -154 l 1
 270 -234 233 -282 184 -286 c 1
 191 -247 l 1
 219 -244 237 -215 245 -161 c 1
 205 -161 l 1
 223 -60 l 1
EndSplineSet
Ligature: 0 0 'liga' K uni0327
EndChar
StartChar: Lcommaaccent
Encoding: 315 315 209
Width: 456
Flags: W
HStem: 0 86<157 440> 698 20G<187 267>
DStem: 187 718 267 718 62 0 157 86 198 -60 275 -60 180 -161 259 -154
Fore
267 718 m 1
 157 86 l 1
 455 86 l 1
 440 0 l 1
 62 0 l 1
 187 718 l 1
 267 718 l 1
198 -60 m 1
 275 -60 l 1
 259 -154 l 1
 245 -234 208 -282 159 -286 c 1
 166 -247 l 1
 194 -244 212 -215 220 -161 c 1
 180 -161 l 1
 198 -60 l 1
EndSplineSet
Ligature: 0 0 'liga' L uni0327
EndChar
StartChar: Ncommaaccent
Encoding: 316 325 210
Width: 592
Flags: W
HStem: 0 21G<62 139 440 530> 698 20G<187 282 578 655>
DStem: 187 718 241 583 62 0 139 0 241 583 282 718 440 0 476 135 246 -60 323 -60 228 -161 307 -154 578 718 655 718 476 135 530 0
Fore
476 135 m 1
 578 718 l 1
 655 718 l 1
 530 0 l 1
 440 0 l 1
 241 583 l 1
 139 0 l 1
 62 0 l 1
 187 718 l 1
 282 718 l 1
 476 135 l 1
246 -60 m 1
 323 -60 l 1
 307 -154 l 1
 293 -234 256 -282 207 -286 c 1
 214 -247 l 1
 242 -244 260 -215 268 -161 c 1
 228 -161 l 1
 246 -60 l 1
EndSplineSet
Ligature: 0 0 'liga' N uni0327
EndChar
StartChar: Omacron
Encoding: 317 332 211
Width: 638
Flags: W
HStem: -19 86<314 336> 651 86<430 449> 822 57<342 590>
VStem: 86 83<252 286> 594 83<428 462>
Fore
447 737 m 0
 593 737 677 634 677 456 c 0
 677 335 635 207 566 115 c 0
 499 26 415 -19 316 -19 c 0
 251 -19 193 3 156 42 c 0
 114 86 86 173 86 261 c 0
 86 383 128 512 196 603 c 0
 263 691 349 737 447 737 c 0
432 651 m 0
 287 651 169 482 169 274 c 0
 169 145 230 67 330 67 c 0
 415 67 491 121 540 216 c 0
 574 283 594 366 594 445 c 0
 594 573 533 651 432 651 c 0
600 879 m 1
 590 822 l 1
 333 822 l 1
 343 879 l 1
 600 879 l 1
EndSplineSet
Ligature: 0 0 'liga' O uni0304
EndChar
StartChar: Rcommaaccent
Encoding: 318 342 212
Width: 592
Flags: W
HStem: 0 21G<72 152 463 561> 308 83<220 409> 635 83<197 472>
VStem: 463 81<17 54> 486 82<230 263> 549 85<551 575>
DStem: 197 718 262 635 72 0 220 391 197 718 205 308 72 0 152 0 246 -60 323 -60 228 -161 307 -154
Fore
205 308 m 1xe8
 152 0 l 1
 72 0 l 1
 197 718 l 1
 470 718 l 2
 577 718 634 668 634 575 c 0xe4
 634 520 617 459 590 420 c 0
 572 393 555 378 518 353 c 1
 557 331 568 312 568 263 c 0xe8
 568 251 567 233 565 218 c 2
 547 88 l 2
 545 74 544 63 544 54 c 0
 544 38 549 29 564 16 c 1
 561 0 l 1
 463 0 l 1
 463 17 l 2xf0
 463 48 470 115 481 180 c 0
 484 200 486 217 486 230 c 0
 486 281 455 308 398 308 c 2
 205 308 l 1xe8
262 635 m 1
 220 391 l 1
 404 391 l 2
 459 391 496 408 520 444 c 0
 537 470 549 514 549 552 c 0
 549 608 521 635 461 635 c 2
 262 635 l 1
246 -60 m 1
 323 -60 l 1
 307 -154 l 1
 293 -234 256 -282 207 -286 c 1
 214 -247 l 1
 242 -244 260 -215 268 -161 c 1
 228 -161 l 1
 246 -60 l 1
EndSplineSet
Ligature: 0 0 'liga' R uni0327
EndChar
StartChar: Gcommaaccent
Encoding: 319 290 213
Width: 638
Flags: W
HStem: -19 83<305 331> 301 83<385 555> 651 86<426 447>
VStem: 91 84<225 275>
DStem: 269 -60 346 -60 251 -161 330 -154
Fore
372 301 m 1
 386 384 l 1
 644 384 l 1
 578 0 l 1
 526 0 l 1
 523 93 l 1
 458 16 390 -19 305 -19 c 0
 240 -19 190 3 155 47 c 0
 113 100 91 168 91 246 c 0
 91 370 136 513 203 602 c 0
 270 690 354 737 445 737 c 0
 570 737 655 651 655 524 c 2
 655 500 l 1
 578 500 l 1
 574 557 564 585 538 612 c 1
 513 636 474 651 432 651 c 0
 288 651 175 476 175 252 c 0
 175 128 228 64 331 64 c 0
 387 64 436 85 478 129 c 0
 519 171 539 215 555 301 c 1
 372 301 l 1
269 -60 m 1
 346 -60 l 1
 330 -154 l 1
 316 -234 279 -282 230 -286 c 1
 237 -247 l 1
 265 -244 283 -215 291 -161 c 1
 251 -161 l 1
 269 -60 l 1
EndSplineSet
Ligature: 0 0 'liga' G uni0327
EndChar
StartChar: Umacron
Encoding: 320 362 214
Width: 592
Flags: W
HStem: -19 86<287 313> 698 20G<190 269 574 653> 822 57<319 567>
VStem: 101 84<176 202>
DStem: 190 718 269 718 106 239 191 266 574 718 653 718 494 264 572 252
Fore
574 718 m 1
 653 718 l 1
 572 252 l 1
 543 87 433 -19 289 -19 c 0
 169 -19 101 52 101 176 c 0
 101 197 103 218 106 239 c 1
 190 718 l 1
 269 718 l 1
 191 266 l 1
 187 245 185 223 185 202 c 0
 185 115 228 67 307 67 c 0
 404 67 473 139 494 264 c 1
 574 718 l 1
577 879 m 1
 567 822 l 1
 310 822 l 1
 320 879 l 1
 577 879 l 1
EndSplineSet
Ligature: 0 0 'liga' U uni0304
EndChar
StartChar: Uogonek
Encoding: 321 370 215
Width: 592
Flags: W
HStem: -225 47<341 364> -19 86<287 309> 698 20G<190 269 574 653>
VStem: 101 84<176 202> 261 64<-153 -141>
DStem: 190 718 269 718 106 239 191 266 574 718 653 718 494 264 572 252
Fore
269 718 m 1
 191 266 l 1
 187 245 185 223 185 202 c 0
 185 115 228 67 307 67 c 0
 404 67 473 139 494 264 c 1
 574 718 l 1
 653 718 l 1
 572 252 l 1
 562 196 538 135 509 95 c 0
 496 77 481 60 465 45 c 2
 384 -29 l 2
 347 -63 325 -105 325 -143 c 0
 325 -166 339 -178 364 -178 c 0
 381 -178 393 -175 419 -163 c 1
 426 -203 l 1
 393 -218 367 -225 341 -225 c 0
 293 -225 261 -196 261 -152 c 0
 261 -100 296 -41 344 -14 c 1
 322 -18 307 -19 289 -19 c 0
 169 -19 101 52 101 176 c 0
 101 197 103 218 106 239 c 1
 190 718 l 1
 269 718 l 1
EndSplineSet
Ligature: 0 0 'liga' U uni0328
EndChar
StartChar: adieresis
Encoding: 322 228 216
Width: 456
Flags: W
HStem: -15 73<164 190> 465 73<296 318> 604 102<246 304 378 436>
VStem: 50 77<101 123> 384 74<400 423>
DStem: 247 706 321 706 229 604 304 604 361 267 455 392 346 181 403 91 379 706 454 706 362 604 436 604
Fore
180 364 m 1
 114 364 l 1
 126 416 137 441 159 469 c 0
 193 513 250 538 316 538 c 0
 405 538 458 495 458 423 c 0
 458 413 457 402 455 392 c 1
 403 91 l 2
 402 85 401 81 401 80 c 0
 400 69 408 60 420 60 c 0
 426 60 433 61 446 64 c 1
 434 0 l 1
 425 -3 l 2
 409 -9 402 -10 391 -10 c 0
 351 -10 329 10 329 46 c 0
 329 51 330 61 331 70 c 1
 274 10 225 -15 164 -15 c 0
 93 -15 50 29 50 101 c 0
 50 206 115 286 212 300 c 2
 334 318 l 2
 366 323 384 353 384 400 c 0
 384 442 354 465 298 465 c 0
 235 465 203 438 180 364 c 1
346 181 m 1
 361 267 l 1
 344 253 322 248 236 234 c 0
 160 221 127 187 127 121 c 0
 127 80 149 58 190 58 c 0
 263 58 335 114 346 181 c 1
321 706 m 1
 304 604 l 1
 229 604 l 1
 247 706 l 1
 321 706 l 1
454 706 m 1
 436 604 l 1
 362 604 l 1
 379 706 l 1
 454 706 l 1
EndSplineSet
KernsSLIF: 121 -24 0 0 119 -16 0 0 118 -21 0 0
Ligature: 0 0 'liga' a uni0308
EndChar
StartChar: aacute
Encoding: 323 225 217
Width: 456
Flags: W
HStem: -15 73<164 190> 465 73<293 318> 714 20G<393 482>
VStem: 50 77<101 123> 384 74<400 423>
DStem: 361 267 455 392 346 181 403 91
Fore
180 364 m 1
 114 364 l 1
 126 416 137 441 159 469 c 0
 193 513 250 538 316 538 c 0
 405 538 458 495 458 423 c 0
 458 413 457 402 455 392 c 1
 403 91 l 2
 402 85 401 81 401 80 c 0
 400 69 408 60 420 60 c 0
 426 60 433 61 446 64 c 1
 434 0 l 1
 425 -3 l 2
 409 -9 402 -10 391 -10 c 0
 351 -10 329 10 329 46 c 0
 329 51 330 61 331 70 c 1
 274 10 225 -15 164 -15 c 0
 93 -15 50 29 50 101 c 0
 50 206 115 286 212 300 c 2
 334 318 l 2
 366 323 384 353 384 400 c 0
 384 442 354 465 298 465 c 0
 235 465 203 438 180 364 c 1
346 181 m 1
 361 267 l 1
 344 253 322 248 236 234 c 0
 160 221 127 187 127 121 c 0
 127 80 149 58 190 58 c 0
 263 58 335 114 346 181 c 1
482 734 m 1
 350 593 l 1
 295 593 l 1
 393 734 l 1
 482 734 l 1
EndSplineSet
KernsSLIF: 121 -24 0 0 119 -17 0 0 118 -22 0 0
Ligature: 0 0 'liga' a acutecomb
EndChar
StartChar: agrave
Encoding: 324 224 218
Width: 456
Flags: W
HStem: -15 73<164 190> 465 73<296 318> 714 20G<231 320>
VStem: 50 77<101 123> 384 74<400 423>
DStem: 361 267 455 392 346 181 403 91
Fore
180 364 m 1
 114 364 l 1
 126 416 137 441 159 469 c 0
 193 513 250 538 316 538 c 0
 405 538 458 495 458 423 c 0
 458 413 457 402 455 392 c 1
 403 91 l 2
 402 85 401 81 401 80 c 0
 400 69 408 60 420 60 c 0
 426 60 433 61 446 64 c 1
 434 0 l 1
 425 -3 l 2
 409 -9 402 -10 391 -10 c 0
 351 -10 329 10 329 46 c 0
 329 51 330 61 331 70 c 1
 274 10 225 -15 164 -15 c 0
 93 -15 50 29 50 101 c 0
 50 206 115 286 212 300 c 2
 334 318 l 2
 366 323 384 353 384 400 c 0
 384 442 354 465 298 465 c 0
 235 465 203 438 180 364 c 1
346 181 m 1
 361 267 l 1
 344 253 322 248 236 234 c 0
 160 221 127 187 127 121 c 0
 127 80 149 58 190 58 c 0
 263 58 335 114 346 181 c 1
313 593 m 1
 231 734 l 1
 320 734 l 1
 368 593 l 1
 313 593 l 1
EndSplineSet
KernsSLIF: 121 -24 0 0 119 -16 0 0 118 -21 0 0
Ligature: 0 0 'liga' a gravecomb
EndChar
StartChar: acircumflex
Encoding: 325 226 219
Width: 456
Flags: W
HStem: -15 73<164 190> 465 73<296 318> 714 20G<318 394>
VStem: 50 77<101 123> 384 74<400 423>
DStem: 318 734 347 686 212 593 277 593 347 686 394 734 385 593 450 593 361 267 455 392 346 181 403 91
Fore
180 364 m 1
 114 364 l 1
 126 416 137 441 159 469 c 0
 193 513 250 538 316 538 c 0
 405 538 458 495 458 423 c 0
 458 413 457 402 455 392 c 1
 403 91 l 2
 402 85 401 81 401 80 c 0
 400 69 408 60 420 60 c 0
 426 60 433 61 446 64 c 1
 434 0 l 1
 425 -3 l 2
 409 -9 402 -10 391 -10 c 0
 351 -10 329 10 329 46 c 0
 329 51 330 61 331 70 c 1
 274 10 225 -15 164 -15 c 0
 93 -15 50 29 50 101 c 0
 50 206 115 286 212 300 c 2
 334 318 l 2
 366 323 384 353 384 400 c 0
 384 442 354 465 298 465 c 0
 235 465 203 438 180 364 c 1
346 181 m 1
 361 267 l 1
 344 253 322 248 236 234 c 0
 160 221 127 187 127 121 c 0
 127 80 149 58 190 58 c 0
 263 58 335 114 346 181 c 1
347 686 m 1
 277 593 l 1
 212 593 l 1
 318 734 l 1
 394 734 l 1
 450 593 l 1
 385 593 l 1
 347 686 l 1
EndSplineSet
Ligature: 0 0 'liga' a uni0302
EndChar
StartChar: abreve
Encoding: 326 259 220
Width: 456
Flags: W
HStem: -15 73<164 190> 465 73<296 318> 595 57<328 348> 711 20G<229 269 443 482>
VStem: 50 77<101 123> 384 74<400 423>
DStem: 361 267 455 392 346 181 403 91
Fore
180 364 m 1
 114 364 l 1
 126 416 137 441 159 469 c 0
 193 513 250 538 316 538 c 0
 405 538 458 495 458 423 c 0
 458 413 457 402 455 392 c 1
 403 91 l 2
 402 85 401 81 401 80 c 0
 400 69 408 60 420 60 c 0
 426 60 433 61 446 64 c 1
 434 0 l 1
 425 -3 l 2
 409 -9 402 -10 391 -10 c 0
 351 -10 329 10 329 46 c 0
 329 51 330 61 331 70 c 1
 274 10 225 -15 164 -15 c 0
 93 -15 50 29 50 101 c 0
 50 206 115 286 212 300 c 2
 334 318 l 2
 366 323 384 353 384 400 c 0
 384 442 354 465 298 465 c 0
 235 465 203 438 180 364 c 1
346 181 m 1
 361 267 l 1
 344 253 322 248 236 234 c 0
 160 221 127 187 127 121 c 0
 127 80 149 58 190 58 c 0
 263 58 335 114 346 181 c 1
443 731 m 1
 482 731 l 1
 469 687 459 667 440 644 c 0
 413 612 374 595 329 595 c 0
 263 595 228 632 228 702 c 1
 229 731 l 1
 269 731 l 1
 271 709 272 703 276 693 c 0
 286 666 310 652 344 652 c 0
 393 652 418 673 443 731 c 1
EndSplineSet
Ligature: 0 0 'liga' a uni0306
EndChar
StartChar: atilde
Encoding: 327 227 221
Width: 456
Flags: W
HStem: -15 73<164 190> 465 73<296 318> 613 63<384 398> 650 63<272 290>
VStem: 50 77<101 123> 384 74<400 423>
DStem: 361 267 455 392 346 181 403 91
Fore
180 364 m 1xcc
 114 364 l 1
 126 416 137 441 159 469 c 0
 193 513 250 538 316 538 c 0
 405 538 458 495 458 423 c 0
 458 413 457 402 455 392 c 1
 403 91 l 2
 402 85 401 81 401 80 c 0
 400 69 408 60 420 60 c 0
 426 60 433 61 446 64 c 1
 434 0 l 1
 425 -3 l 2
 409 -9 402 -10 391 -10 c 0
 351 -10 329 10 329 46 c 0
 329 51 330 61 331 70 c 1
 274 10 225 -15 164 -15 c 0
 93 -15 50 29 50 101 c 0
 50 206 115 286 212 300 c 2
 334 318 l 2
 366 323 384 353 384 400 c 0
 384 442 354 465 298 465 c 0
 235 465 203 438 180 364 c 1xcc
346 181 m 1
 361 267 l 1
 344 253 322 248 236 234 c 0
 160 221 127 187 127 121 c 0
 127 80 149 58 190 58 c 0
 263 58 335 114 346 181 c 1
445 722 m 1
 486 722 l 1
 464 651 429 613 384 613 c 0xec
 372 613 359 617 339 626 c 2
 319 635 l 2
 296 646 282 650 272 650 c 0
 252 650 239 638 225 606 c 1
 186 606 l 1
 209 680 241 713 290 713 c 0xdc
 306 713 325 708 343 698 c 2
 360 689 l 2
 375 681 389 676 398 676 c 0xec
 420 676 433 689 445 722 c 1
EndSplineSet
Ligature: 0 0 'liga' a tildecomb
EndChar
StartChar: aring
Encoding: 328 229 222
Width: 456
Flags: W
HStem: -15 73<164 190> 465 73<296 318> 585 40<328 339> 729 40<353 363>
VStem: 50 77<101 123> 269 34<655 668> 384 74<400 423> 390 34<686 698>
DStem: 361 267 455 392 346 181 403 91
Fore
180 364 m 1xfe
 114 364 l 1
 126 416 137 441 159 469 c 0
 193 513 250 538 316 538 c 0
 405 538 458 495 458 423 c 0
 458 413 457 402 455 392 c 1
 403 91 l 2
 402 85 401 81 401 80 c 0
 400 69 408 60 420 60 c 0
 426 60 433 61 446 64 c 1
 434 0 l 1
 425 -3 l 2
 409 -9 402 -10 391 -10 c 0
 351 -10 329 10 329 46 c 0
 329 51 330 61 331 70 c 1
 274 10 225 -15 164 -15 c 0
 93 -15 50 29 50 101 c 0
 50 206 115 286 212 300 c 2
 334 318 l 2
 366 323 384 353 384 400 c 0
 384 442 354 465 298 465 c 0
 235 465 203 438 180 364 c 1xfe
346 181 m 1
 361 267 l 1
 344 253 322 248 236 234 c 0
 160 221 127 187 127 121 c 0
 127 80 149 58 190 58 c 0
 263 58 335 114 346 181 c 1
363 769 m 0
 399 769 424 740 424 698 c 0xfd
 424 637 380 585 330 585 c 0
 294 585 269 613 269 656 c 0
 269 717 312 769 363 769 c 0
356 729 m 0
 328 729 303 699 303 666 c 0
 303 642 317 625 337 625 c 0
 364 625 390 656 390 688 c 0
 390 712 375 729 356 729 c 0
EndSplineSet
KernsSLIF: 121 -24 0 0 119 -16 0 0 118 -21 0 0
Ligature: 0 0 'liga' a uni030A
EndChar
StartChar: aogonek
Encoding: 329 261 223
Width: 456
Flags: W
HStem: -225 47<345 369> -15 73<164 190> 465 73<296 318>
VStem: 50 77<101 123> 265 64<-153 -141> 384 74<400 423>
DStem: 361 267 455 392 346 181 403 91
Fore
446 64 m 1
 434 0 l 1
 384 -34 364 -52 349 -75 c 0
 337 -94 329 -122 329 -143 c 0
 329 -166 343 -178 369 -178 c 0
 385 -178 397 -175 423 -163 c 1
 430 -203 l 1
 397 -218 371 -225 345 -225 c 0
 297 -225 265 -196 265 -152 c 0
 265 -93 307 -31 364 -6 c 1
 340 2 329 18 329 46 c 0
 329 51 330 60 331 70 c 1
 274 10 225 -15 164 -15 c 0
 93 -15 50 29 50 101 c 0
 50 206 115 286 212 300 c 2
 334 318 l 2
 366 323 384 353 384 400 c 0
 384 442 354 465 298 465 c 0
 235 465 203 438 180 364 c 1
 114 364 l 1
 126 416 137 441 159 469 c 0
 193 513 250 538 316 538 c 0
 405 538 458 495 458 423 c 0
 458 413 457 402 455 392 c 1
 403 91 l 2
 402 85 401 81 401 80 c 0
 400 69 408 60 420 60 c 0
 426 60 433 61 446 64 c 1
346 181 m 1
 361 267 l 1
 344 253 322 248 236 234 c 0
 160 221 127 187 127 121 c 0
 127 80 149 58 190 58 c 0
 263 58 335 114 346 181 c 1
EndSplineSet
Ligature: 0 0 'liga' a uni0328
EndChar
StartChar: cacute
Encoding: 330 263 224
Width: 410
Flags: W
HStem: -15 76<212 229> 459 79<300 323> 714 20G<391 480>
VStem: 61 78<160 194>
Fore
452 347 m 1
 382 347 l 1
 381 384 381 387 377 403 c 0
 366 440 340 459 300 459 c 0
 252 459 211 429 182 372 c 0
 156 321 139 245 139 180 c 0
 139 103 170 61 227 61 c 0
 282 61 324 102 354 185 c 1
 424 185 l 1
 383 52 313 -15 214 -15 c 0
 119 -15 61 55 61 172 c 0
 61 269 94 375 145 443 c 0
 192 505 253 538 323 538 c 0
 404 538 454 482 454 390 c 0
 454 379 453 364 452 347 c 1
480 734 m 1
 348 593 l 1
 293 593 l 1
 391 734 l 1
 480 734 l 1
EndSplineSet
Ligature: 0 0 'liga' c acutecomb
EndChar
StartChar: ccaron
Encoding: 331 269 225
Width: 410
Flags: W
HStem: -15 76<212 229> 459 79<300 323> 714 20G<245 310 418 484>
VStem: 61 78<160 194>
DStem: 245 734 310 734 302 593 348 641 418 734 484 734 348 641 378 593
Fore
452 347 m 1
 382 347 l 1
 381 384 381 387 377 403 c 0
 366 440 340 459 300 459 c 0
 252 459 211 429 182 372 c 0
 156 321 139 245 139 180 c 0
 139 103 170 61 227 61 c 0
 282 61 324 102 354 185 c 1
 424 185 l 1
 383 52 313 -15 214 -15 c 0
 119 -15 61 55 61 172 c 0
 61 269 94 375 145 443 c 0
 192 505 253 538 323 538 c 0
 404 538 454 482 454 390 c 0
 454 379 453 364 452 347 c 1
310 734 m 1
 348 641 l 1
 418 734 l 1
 484 734 l 1
 378 593 l 1
 302 593 l 1
 245 734 l 1
 310 734 l 1
EndSplineSet
Ligature: 0 0 'liga' c uni030C
EndChar
StartChar: ccedilla
Encoding: 332 231 226
Width: 410
Flags: W
HStem: -225 47<128 147> -97 39<162 203> -15 76<213 229> 459 79<300 323>
VStem: 61 78<158 192> 196 64<-130 -116>
DStem: 177 -11 213 -15 118 -86 176 -62
Fore
213 -15 m 1
 176 -62 l 1
 192 -58 195 -58 203 -58 c 0
 239 -58 260 -79 260 -116 c 0
 260 -177 209 -225 145 -225 c 0
 120 -225 99 -219 70 -203 c 1
 91 -163 l 1
 113 -175 124 -178 141 -178 c 0
 174 -178 196 -158 196 -128 c 0
 196 -110 182 -97 162 -97 c 0
 155 -97 146 -99 129 -105 c 1
 118 -86 l 1
 177 -11 l 1
 103 5 61 72 61 172 c 0
 61 269 94 375 145 443 c 0
 192 505 253 538 323 538 c 0
 404 538 454 482 454 390 c 0
 454 379 453 364 452 347 c 1
 382 347 l 1
 381 384 381 387 377 403 c 0
 366 440 340 459 300 459 c 0
 252 459 211 429 182 372 c 0
 156 321 139 245 139 180 c 0
 139 103 170 61 227 61 c 0
 282 61 324 102 354 185 c 1
 424 185 l 1
 388 58 311 -16 213 -15 c 1
EndSplineSet
Ligature: 0 0 'liga' c uni0327
EndChar
StartChar: dcaron
Encoding: 333 271 227
Width: 503
Flags: W
HStem: -15 76<214 230> 459 79<292 310> 698 20G<462 534 566 643>
VStem: 69 74<176 210>
DStem: 354 75 534 718 341 0 409 0 462 718 534 718 414 444 409 0 566 718 643 718 548 617 627 624
Fore
534 718 m 1
 409 0 l 1
 341 0 l 1
 354 75 l 1
 311 10 272 -15 214 -15 c 0
 121 -15 69 57 69 185 c 0
 69 381 171 538 300 538 c 0
 358 538 392 511 414 444 c 1
 462 718 l 1
 534 718 l 1
299 459 m 0
 251 459 209 430 185 380 c 0
 159 328 143 253 143 186 c 0
 143 107 174 61 228 61 c 0
 269 61 309 85 337 128 c 0
 366 170 387 257 387 334 c 0
 387 417 358 459 299 459 c 0
566 718 m 1
 643 718 l 1
 627 624 l 1
 613 544 576 496 527 492 c 1
 534 531 l 1
 562 534 580 563 588 617 c 1
 548 617 l 1
 566 718 l 1
EndSplineSet
Ligature: 0 0 'liga' d uni030C
EndChar
StartChar: edieresis
Encoding: 334 235 228
Width: 456
Flags: W
HStem: -15 76<226 248> 233 70<162 463> 459 79<308 329> 604 102<246 304 378 436>
VStem: 69 75<160 194> 403 71<336 370>
DStem: 247 706 321 706 229 604 304 604 379 706 454 706 362 604 436 604
Fore
373 164 m 1
 445 164 l 1
 407 51 326 -15 226 -15 c 0
 126 -15 69 53 69 172 c 0
 69 269 102 375 153 443 c 0
 199 505 261 538 329 538 c 0
 380 538 421 518 442 482 c 0
 461 449 474 399 474 354 c 0
 474 323 470 282 463 233 c 1
 150 233 l 1
 146 208 144 187 144 171 c 0
 144 103 181 61 242 61 c 0
 300 61 355 104 373 164 c 1
162 303 m 1
 401 303 l 1
 402 321 403 337 403 350 c 0
 403 417 368 459 312 459 c 0
 243 459 183 396 162 303 c 1
321 706 m 1
 304 604 l 1
 229 604 l 1
 247 706 l 1
 321 706 l 1
454 706 m 1
 436 604 l 1
 362 604 l 1
 379 706 l 1
 454 706 l 1
EndSplineSet
Ligature: 0 0 'liga' e uni0308
EndChar
StartChar: eacute
Encoding: 335 233 229
Width: 456
Flags: W
HStem: -15 76<226 246> 233 70<162 463> 459 79<308 329> 714 20G<393 482>
VStem: 69 75<160 194> 403 71<336 370>
Fore
373 164 m 1
 445 164 l 1
 407 51 326 -15 226 -15 c 0
 126 -15 69 53 69 172 c 0
 69 269 102 375 153 443 c 0
 199 505 261 538 329 538 c 0
 380 538 421 518 442 482 c 0
 461 449 474 399 474 354 c 0
 474 323 470 282 463 233 c 1
 150 233 l 1
 146 208 144 187 144 171 c 0
 144 103 181 61 242 61 c 0
 300 61 355 104 373 164 c 1
162 303 m 1
 401 303 l 1
 402 321 403 337 403 350 c 0
 403 417 368 459 312 459 c 0
 243 459 183 396 162 303 c 1
482 734 m 1
 350 593 l 1
 295 593 l 1
 393 734 l 1
 482 734 l 1
EndSplineSet
KernsSLIF: 121 -22 0 0 119 -13 0 0 118 -18 0 0
Ligature: 0 0 'liga' e acutecomb
EndChar
StartChar: egrave
Encoding: 336 232 230
Width: 456
Flags: W
HStem: -15 76<226 246> 233 70<162 463> 459 79<308 329> 714 20G<231 320>
VStem: 69 75<160 194> 403 71<336 370>
Fore
373 164 m 1
 445 164 l 1
 407 51 326 -15 226 -15 c 0
 126 -15 69 53 69 172 c 0
 69 269 102 375 153 443 c 0
 199 505 261 538 329 538 c 0
 380 538 421 518 442 482 c 0
 461 449 474 399 474 354 c 0
 474 323 470 282 463 233 c 1
 150 233 l 1
 146 208 144 187 144 171 c 0
 144 103 181 61 242 61 c 0
 300 61 355 104 373 164 c 1
162 303 m 1
 401 303 l 1
 402 321 403 337 403 350 c 0
 403 417 368 459 312 459 c 0
 243 459 183 396 162 303 c 1
313 593 m 1
 231 734 l 1
 320 734 l 1
 368 593 l 1
 313 593 l 1
EndSplineSet
Ligature: 0 0 'liga' e gravecomb
EndChar
StartChar: ecircumflex
Encoding: 337 234 231
Width: 456
Flags: W
HStem: -15 76<226 246> 233 70<162 463> 459 79<308 329> 714 20G<318 394>
VStem: 69 75<160 194> 403 71<336 370>
DStem: 318 734 347 686 212 593 277 593 347 686 394 734 385 593 450 593
Fore
373 164 m 1
 445 164 l 1
 407 51 326 -15 226 -15 c 0
 126 -15 69 53 69 172 c 0
 69 269 102 375 153 443 c 0
 199 505 261 538 329 538 c 0
 380 538 421 518 442 482 c 0
 461 449 474 399 474 354 c 0
 474 323 470 282 463 233 c 1
 150 233 l 1
 146 208 144 187 144 171 c 0
 144 103 181 61 242 61 c 0
 300 61 355 104 373 164 c 1
162 303 m 1
 401 303 l 1
 402 321 403 337 403 350 c 0
 403 417 368 459 312 459 c 0
 243 459 183 396 162 303 c 1
347 686 m 1
 277 593 l 1
 212 593 l 1
 318 734 l 1
 394 734 l 1
 450 593 l 1
 385 593 l 1
 347 686 l 1
EndSplineSet
KernsSLIF: 121 -22 0 0 119 -12 0 0 118 -18 0 0
Ligature: 0 0 'liga' e uni0302
EndChar
StartChar: ecaron
Encoding: 338 283 232
Width: 456
Flags: W
HStem: -15 76<226 246> 233 70<162 463> 459 79<308 329> 714 20G<237 302 410 476>
VStem: 69 75<160 194> 403 71<336 370>
DStem: 237 734 302 734 294 593 340 641 410 734 476 734 340 641 370 593
Fore
373 164 m 1
 445 164 l 1
 407 51 326 -15 226 -15 c 0
 126 -15 69 53 69 172 c 0
 69 269 102 375 153 443 c 0
 199 505 261 538 329 538 c 0
 380 538 421 518 442 482 c 0
 461 449 474 399 474 354 c 0
 474 323 470 282 463 233 c 1
 150 233 l 1
 146 208 144 187 144 171 c 0
 144 103 181 61 242 61 c 0
 300 61 355 104 373 164 c 1
162 303 m 1
 401 303 l 1
 402 321 403 337 403 350 c 0
 403 417 368 459 312 459 c 0
 243 459 183 396 162 303 c 1
302 734 m 1
 340 641 l 1
 410 734 l 1
 476 734 l 1
 370 593 l 1
 294 593 l 1
 237 734 l 1
 302 734 l 1
EndSplineSet
Ligature: 0 0 'liga' e uni030C
EndChar
StartChar: edotaccent
Encoding: 339 279 233
Width: 456
Flags: W
HStem: -15 76<226 246> 233 70<162 463> 459 79<308 329>
VStem: 69 75<160 194> 403 71<336 370>
DStem: 314 706 389 706 296 604 371 604
Fore
373 164 m 1
 445 164 l 1
 407 51 326 -15 226 -15 c 0
 126 -15 69 53 69 172 c 0
 69 269 102 375 153 443 c 0
 199 505 261 538 329 538 c 0
 380 538 421 518 442 482 c 0
 461 449 474 399 474 354 c 0
 474 323 470 282 463 233 c 1
 150 233 l 1
 146 208 144 187 144 171 c 0
 144 103 181 61 242 61 c 0
 300 61 355 104 373 164 c 1
162 303 m 1
 401 303 l 1
 402 321 403 337 403 350 c 0
 403 417 368 459 312 459 c 0
 243 459 183 396 162 303 c 1
389 706 m 1
 371 604 l 1
 296 604 l 1
 314 706 l 1
 389 706 l 1
EndSplineSet
Ligature: 0 0 'liga' e uni0307
EndChar
StartChar: eogonek
Encoding: 340 281 234
Width: 456
Flags: W
HStem: -225 47<260 283> -15 76<226 246> 233 70<162 463> 459 79<308 329>
VStem: 69 75<158 192> 180 63<-152 -136> 403 71<334 368>
Fore
463 233 m 1
 150 233 l 1
 146 208 144 187 144 171 c 0
 144 103 181 61 242 61 c 0
 300 61 355 104 373 164 c 1
 445 164 l 1
 422 99 410 82 318 -12 c 0
 257 -76 243 -98 243 -136 c 0
 243 -166 255 -178 283 -178 c 0
 299 -178 312 -175 338 -163 c 1
 345 -203 l 1
 312 -218 286 -225 260 -225 c 0
 212 -225 180 -196 180 -152 c 0
 180 -98 216 -39 267 -12 c 1
 248 -14 239 -15 227 -15 c 0
 126 -15 69 53 69 172 c 0
 69 269 102 375 153 443 c 0
 199 505 261 538 329 538 c 0
 380 538 421 518 442 482 c 0
 461 449 474 399 474 354 c 0
 474 323 470 282 463 233 c 1
162 303 m 1
 401 303 l 1
 402 321 403 337 403 350 c 0
 403 417 368 459 312 459 c 0
 243 459 183 396 162 303 c 1
EndSplineSet
Ligature: 0 0 'liga' e uni0328
EndChar
StartChar: gbreve
Encoding: 341 287 235
Width: 456
Flags: W
HStem: -220 73<171 195> -15 76<216 234> 459 79<289 307> 595 57<328 348> 711 20G<229 269 443 482>
VStem: 72 74<163 213>
DStem: 432 523 500 523 418 446 416 43
Fore
500 523 m 1
 416 43 l 1
 402 -41 382 -93 350 -136 c 0
 309 -191 247 -220 173 -220 c 0
 130 -220 96 -209 72 -188 c 0
 44 -162 34 -133 34 -74 c 2
 34 -64 l 1
 106 -64 l 1
 109 -122 133 -147 188 -147 c 0
 238 -147 276 -128 302 -88 c 0
 321 -60 332 -27 343 37 c 1
 347 58 l 1
 309 7 270 -15 216 -15 c 0
 125 -15 72 58 72 184 c 0
 72 381 175 538 303 538 c 0
 361 538 391 514 418 446 c 1
 432 523 l 1
 500 523 l 1
302 459 m 0
 254 459 212 430 188 380 c 0
 162 329 146 253 146 185 c 0
 146 107 178 61 232 61 c 0
 272 61 313 85 341 128 c 0
 370 170 391 257 391 334 c 0
 391 417 361 459 302 459 c 0
443 731 m 1
 482 731 l 1
 469 687 459 667 440 644 c 0
 413 612 374 595 329 595 c 0
 263 595 228 632 228 702 c 1
 229 731 l 1
 269 731 l 1
 271 709 272 703 276 693 c 0
 286 666 310 652 344 652 c 0
 393 652 418 673 443 731 c 1
EndSplineSet
Ligature: 0 0 'liga' g uni0306
EndChar
StartChar: idieresis
Encoding: 342 239 236
Width: 228
Flags: W
HStem: 0 21G<78 150> 503 20G<169 241> 604 102<133 191 265 323>
DStem: 134 706 208 706 116 604 191 604 169 523 241 523 78 0 150 0 266 706 341 706 249 604 323 604
Fore
241 523 m 1
 150 0 l 1
 78 0 l 1
 169 523 l 1
 241 523 l 1
208 706 m 1
 191 604 l 1
 116 604 l 1
 134 706 l 1
 208 706 l 1
341 706 m 1
 323 604 l 1
 249 604 l 1
 266 706 l 1
 341 706 l 1
EndSplineSet
Ligature: 0 0 'liga' i uni0308
EndChar
StartChar: iacute
Encoding: 343 237 237
Width: 228
Flags: W
HStem: 0 21G<78 150> 503 20G<169 241> 714 20G<279 368>
DStem: 169 523 241 523 78 0 150 0
Fore
241 523 m 1
 150 0 l 1
 78 0 l 1
 169 523 l 1
 241 523 l 1
368 734 m 1
 236 593 l 1
 181 593 l 1
 279 734 l 1
 368 734 l 1
EndSplineSet
Ligature: 0 0 'liga' i acutecomb
EndChar
StartChar: igrave
Encoding: 344 236 238
Width: 228
Flags: W
HStem: 0 21G<78 150> 503 20G<169 241> 714 20G<117 206>
DStem: 169 523 241 523 78 0 150 0
Fore
241 523 m 1
 150 0 l 1
 78 0 l 1
 169 523 l 1
 241 523 l 1
199 593 m 1
 117 734 l 1
 206 734 l 1
 254 593 l 1
 199 593 l 1
EndSplineSet
Ligature: 0 0 'liga' i gravecomb
EndChar
StartChar: icircumflex
Encoding: 345 238 239
Width: 228
Flags: W
HStem: 0 21G<78 150> 503 20G<169 241> 714 20G<204 280>
DStem: 169 523 241 523 78 0 150 0 204 734 233 686 98 593 163 593 233 686 280 734 271 593 336 593
Fore
241 523 m 1
 150 0 l 1
 78 0 l 1
 169 523 l 1
 241 523 l 1
233 686 m 1
 163 593 l 1
 98 593 l 1
 204 734 l 1
 280 734 l 1
 336 593 l 1
 271 593 l 1
 233 686 l 1
EndSplineSet
Ligature: 0 0 'liga' i uni0302
EndChar
StartChar: lacute
Encoding: 346 314 240
Width: 182
Flags: W
HStem: 0 21G<55 127> 698 20G<180 252>
DStem: 180 718 252 718 55 0 127 0
Fore
252 718 m 1
 127 0 l 1
 55 0 l 1
 180 718 l 1
 252 718 l 1
378 929 m 1
 246 788 l 1
 191 788 l 1
 289 929 l 1
 378 929 l 1
EndSplineSet
Ligature: 0 0 'liga' l acutecomb
EndChar
StartChar: lcaron
Encoding: 347 318 241
Width: 217
Flags: W
HStem: 0 21G<55 127> 698 20G<180 252 280 357>
DStem: 180 718 252 718 55 0 127 0 280 718 357 718 262 617 341 624
Fore
252 718 m 1
 127 0 l 1
 55 0 l 1
 180 718 l 1
 252 718 l 1
280 718 m 1
 357 718 l 1
 341 624 l 1
 327 544 290 496 241 492 c 1
 248 531 l 1
 276 534 294 563 302 617 c 1
 262 617 l 1
 280 718 l 1
EndSplineSet
Ligature: 0 0 'liga' l uni030C
EndChar
StartChar: nacute
Encoding: 348 324 242
Width: 456
Flags: W
HStem: 0 21G<53 125 331 403> 459 79<323 352> 714 20G<393 482>
VStem: 392 78<382 410>
DStem: 144 523 212 523 53 0 199 446 144 523 175 285 53 0 125 0 387 322 465 356 331 0 403 0
Fore
212 523 m 1
 199 446 l 1
 249 511 293 538 352 538 c 0
 426 538 470 490 470 410 c 0
 470 393 468 375 465 356 c 1
 403 0 l 1
 331 0 l 1
 387 322 l 1
 390 342 392 362 392 382 c 0
 392 433 369 459 323 459 c 0
 250 459 194 393 175 285 c 2
 125 0 l 1
 53 0 l 1
 144 523 l 1
 212 523 l 1
482 734 m 1
 350 593 l 1
 295 593 l 1
 393 734 l 1
 482 734 l 1
EndSplineSet
Ligature: 0 0 'liga' n acutecomb
EndChar
StartChar: ncaron
Encoding: 349 328 243
Width: 456
Flags: W
HStem: 0 21G<53 125 331 403> 459 79<323 352> 714 20G<237 302 410 476>
VStem: 392 78<382 410>
DStem: 144 523 212 523 53 0 199 446 144 523 175 285 53 0 125 0 237 734 302 734 294 593 340 641 387 322 465 356 331 0 403 0 410 734 476 734 340 641 370 593
Fore
212 523 m 1
 199 446 l 1
 249 511 293 538 352 538 c 0
 426 538 470 490 470 410 c 0
 470 393 468 375 465 356 c 1
 403 0 l 1
 331 0 l 1
 387 322 l 1
 390 342 392 362 392 382 c 0
 392 433 369 459 323 459 c 0
 250 459 194 393 175 285 c 2
 125 0 l 1
 53 0 l 1
 144 523 l 1
 212 523 l 1
302 734 m 1
 340 641 l 1
 410 734 l 1
 476 734 l 1
 370 593 l 1
 294 593 l 1
 237 734 l 1
 302 734 l 1
EndSplineSet
Ligature: 0 0 'liga' n uni030C
EndChar
StartChar: ntilde
Encoding: 350 241 244
Width: 456
Flags: W
HStem: 0 21G<53 125 331 403> 459 79<323 352> 613 63<384 398> 650 63<272 290>
VStem: 392 78<382 410>
DStem: 144 523 212 523 53 0 199 446 144 523 175 285 53 0 125 0 387 322 465 356 331 0 403 0
Fore
212 523 m 1xc8
 199 446 l 1
 249 511 293 538 352 538 c 0
 426 538 470 490 470 410 c 0
 470 393 468 375 465 356 c 1
 403 0 l 1
 331 0 l 1
 387 322 l 1
 390 342 392 362 392 382 c 0
 392 433 369 459 323 459 c 0
 250 459 194 393 175 285 c 2
 125 0 l 1
 53 0 l 1
 144 523 l 1
 212 523 l 1xc8
445 722 m 1
 486 722 l 1
 464 651 429 613 384 613 c 0xe8
 372 613 359 617 339 626 c 2
 319 635 l 2
 296 646 282 650 272 650 c 0
 252 650 239 638 225 606 c 1
 186 606 l 1
 209 680 241 713 290 713 c 0xd8
 306 713 325 708 343 698 c 2
 360 689 l 2
 375 681 389 676 398 676 c 0xe8
 420 676 433 689 445 722 c 1
EndSplineSet
Ligature: 0 0 'liga' n tildecomb
EndChar
StartChar: odieresis
Encoding: 351 246 245
Width: 456
Flags: W
HStem: -14 76<224 245> 462 76<302 322> 604 102<246 304 378 436>
VStem: 68 75<177 211> 404 75<321 338>
DStem: 247 706 321 706 229 604 304 604 379 706 454 706 362 604 436 604
Fore
322 538 m 0
 420 538 479 462 479 336 c 0
 479 244 448 149 397 81 c 0
 350 18 292 -14 225 -14 c 0
 127 -14 68 62 68 189 c 0
 68 278 100 377 150 443 c 0
 197 505 256 538 322 538 c 0
308 462 m 0
 258 462 215 430 184 370 c 0
 158 320 143 256 143 198 c 0
 143 110 177 62 239 62 c 0
 289 62 332 94 363 154 c 0
 389 204 404 268 404 325 c 0
 404 413 370 462 308 462 c 0
321 706 m 1
 304 604 l 1
 229 604 l 1
 247 706 l 1
 321 706 l 1
454 706 m 1
 436 604 l 1
 362 604 l 1
 379 706 l 1
 454 706 l 1
EndSplineSet
KernsSLIF: 121 -20 0 0 120 -20 0 0 119 -10 0 0 118 -16 0 0 116 -10 0 0
Ligature: 0 0 'liga' o uni0308
EndChar
StartChar: oacute
Encoding: 352 243 246
Width: 456
Flags: W
HStem: -14 76<224 245> 462 76<306 322> 714 20G<393 482>
VStem: 68 75<177 211> 404 75<321 338>
Fore
322 538 m 0
 420 538 479 462 479 336 c 0
 479 244 448 149 397 81 c 0
 350 18 292 -14 225 -14 c 0
 127 -14 68 62 68 189 c 0
 68 278 100 377 150 443 c 0
 197 505 256 538 322 538 c 0
308 462 m 0
 258 462 215 430 184 370 c 0
 158 320 143 256 143 198 c 0
 143 110 177 62 239 62 c 0
 289 62 332 94 363 154 c 0
 389 204 404 268 404 325 c 0
 404 413 370 462 308 462 c 0
482 734 m 1
 350 593 l 1
 295 593 l 1
 393 734 l 1
 482 734 l 1
EndSplineSet
KernsSLIF: 121 -20 0 0 119 -10 0 0 118 -16 0 0
Ligature: 0 0 'liga' o acutecomb
EndChar
StartChar: ograve
Encoding: 353 242 247
Width: 456
Flags: W
HStem: -14 76<224 245> 462 76<306 322> 714 20G<231 320>
VStem: 68 75<177 211> 404 75<321 338>
Fore
322 538 m 0
 420 538 479 462 479 336 c 0
 479 244 448 149 397 81 c 0
 350 18 292 -14 225 -14 c 0
 127 -14 68 62 68 189 c 0
 68 278 100 377 150 443 c 0
 197 505 256 538 322 538 c 0
308 462 m 0
 258 462 215 430 184 370 c 0
 158 320 143 256 143 198 c 0
 143 110 177 62 239 62 c 0
 289 62 332 94 363 154 c 0
 389 204 404 268 404 325 c 0
 404 413 370 462 308 462 c 0
313 593 m 1
 231 734 l 1
 320 734 l 1
 368 593 l 1
 313 593 l 1
EndSplineSet
KernsSLIF: 121 -20 0 0 119 -10 0 0 118 -16 0 0
Ligature: 0 0 'liga' o gravecomb
EndChar
StartChar: ocircumflex
Encoding: 354 244 248
Width: 456
Flags: W
HStem: -14 76<224 245> 462 76<306 322> 714 20G<318 394>
VStem: 68 75<177 211> 404 75<321 338>
DStem: 318 734 347 686 212 593 277 593 347 686 394 734 385 593 450 593
Fore
322 538 m 0
 420 538 479 462 479 336 c 0
 479 244 448 149 397 81 c 0
 350 18 292 -14 225 -14 c 0
 127 -14 68 62 68 189 c 0
 68 278 100 377 150 443 c 0
 197 505 256 538 322 538 c 0
308 462 m 0
 258 462 215 430 184 370 c 0
 158 320 143 256 143 198 c 0
 143 110 177 62 239 62 c 0
 289 62 332 94 363 154 c 0
 389 204 404 268 404 325 c 0
 404 413 370 462 308 462 c 0
347 686 m 1
 277 593 l 1
 212 593 l 1
 318 734 l 1
 394 734 l 1
 450 593 l 1
 385 593 l 1
 347 686 l 1
EndSplineSet
KernsSLIF: 116 -10 0 0
Ligature: 0 0 'liga' o uni0302
EndChar
StartChar: otilde
Encoding: 355 245 249
Width: 456
Flags: W
HStem: -14 76<224 245> 462 76<306 322> 613 63<392 406> 650 63<280 298>
VStem: 68 75<177 211> 404 75<321 338>
Fore
322 538 m 0xcc
 420 538 479 462 479 336 c 0
 479 244 448 149 397 81 c 0
 350 18 292 -14 225 -14 c 0
 127 -14 68 62 68 189 c 0
 68 278 100 377 150 443 c 0
 197 505 256 538 322 538 c 0xcc
308 462 m 0
 258 462 215 430 184 370 c 0
 158 320 143 256 143 198 c 0
 143 110 177 62 239 62 c 0
 289 62 332 94 363 154 c 0
 389 204 404 268 404 325 c 0
 404 413 370 462 308 462 c 0
453 722 m 1
 494 722 l 1
 472 651 437 613 392 613 c 0xec
 380 613 367 617 347 626 c 2
 327 635 l 2
 304 646 290 650 280 650 c 0
 260 650 247 638 233 606 c 1
 194 606 l 1
 217 680 249 713 298 713 c 0xdc
 314 713 333 708 351 698 c 2
 368 689 l 2
 383 681 397 676 406 676 c 0xec
 428 676 441 689 453 722 c 1
EndSplineSet
Ligature: 0 0 'liga' o tildecomb
EndChar
StartChar: ohungarumlaut
Encoding: 356 337 250
Width: 456
Flags: W
HStem: -14 76<224 245> 462 76<306 322> 714 20G<318 408 466 555>
VStem: 68 75<177 211> 404 75<321 338>
Fore
322 538 m 0
 420 538 479 462 479 336 c 0
 479 244 448 149 397 81 c 0
 350 18 292 -14 225 -14 c 0
 127 -14 68 62 68 189 c 0
 68 278 100 377 150 443 c 0
 197 505 256 538 322 538 c 0
308 462 m 0
 258 462 215 430 184 370 c 0
 158 320 143 256 143 198 c 0
 143 110 177 62 239 62 c 0
 289 62 332 94 363 154 c 0
 389 204 404 268 404 325 c 0
 404 413 370 462 308 462 c 0
408 734 m 1
 276 593 l 1
 221 593 l 1
 318 734 l 1
 408 734 l 1
555 734 m 1
 423 593 l 1
 368 593 l 1
 466 734 l 1
 555 734 l 1
EndSplineSet
Ligature: 0 0 'liga' o uni030B
EndChar
StartChar: racute
Encoding: 357 341 251
Width: 273
Flags: W
HStem: 0 21G<63 135> 444 94<334 349> 714 20G<301 390>
DStem: 154 523 222 523 63 0 206 433 154 523 188 304 63 0 135 0
Fore
349 444 m 1
 322 444 l 2
 259 444 202 385 188 304 c 2
 135 0 l 1
 63 0 l 1
 154 523 l 1
 222 523 l 1
 206 433 l 1
 258 509 296 538 347 538 c 0
 354 538 359 537 365 535 c 1
 349 444 l 1
390 734 m 1
 258 593 l 1
 203 593 l 1
 301 734 l 1
 390 734 l 1
EndSplineSet
Ligature: 0 0 'liga' r acutecomb
EndChar
StartChar: sacute
Encoding: 358 347 252
Width: 410
Flags: W
HStem: -15 76<202 220> 462 76<279 298> 714 20G<370 459>
VStem: 52 72<116 141> 103 74<342 372> 335 76<158 189> 364 70<394 408>
Fore
432 374 m 1xea
 362 374 l 1
 363 383 364 391 364 396 c 0
 364 438 333 462 281 462 c 0
 219 462 177 425 177 372 c 0xea
 177 346 191 335 243 318 c 2
 312 296 l 2
 382 273 411 242 411 189 c 0
 411 147 394 97 367 62 c 0
 328 12 271 -15 204 -15 c 0
 107 -15 52 33 52 116 c 0
 52 128 53 147 56 168 c 1
 126 168 l 1
 125 157 124 147 124 139 c 0
 124 89 158 61 218 61 c 0
 286 61 335 101 335 158 c 0xf4
 335 186 316 202 261 219 c 2
 182 244 l 2
 129 261 103 293 103 342 c 0
 103 452 189 538 298 538 c 0
 382 538 434 489 434 408 c 0
 434 400 433 388 432 374 c 1xea
459 734 m 1
 327 593 l 1
 272 593 l 1
 370 734 l 1
 459 734 l 1
EndSplineSet
Ligature: 0 0 'liga' s acutecomb
EndChar
StartChar: scaron
Encoding: 359 353 253
Width: 410
Flags: W
HStem: -15 76<202 220> 462 76<277 298> 714 20G<214 279 387 453>
VStem: 52 72<116 141> 103 74<342 372> 335 76<158 189> 364 70<394 408>
DStem: 214 734 279 734 271 593 317 641 387 734 453 734 317 641 347 593
Fore
432 374 m 1xea
 362 374 l 1
 363 383 364 391 364 396 c 0
 364 438 333 462 281 462 c 0
 219 462 177 425 177 372 c 0xea
 177 346 191 335 243 318 c 2
 312 296 l 2
 382 273 411 242 411 189 c 0
 411 147 394 97 367 62 c 0
 328 12 271 -15 204 -15 c 0
 107 -15 52 33 52 116 c 0
 52 128 53 147 56 168 c 1
 126 168 l 1
 125 157 124 147 124 139 c 0
 124 89 158 61 218 61 c 0
 286 61 335 101 335 158 c 0xf4
 335 186 316 202 261 219 c 2
 182 244 l 2
 129 261 103 293 103 342 c 0
 103 452 189 538 298 538 c 0
 382 538 434 489 434 408 c 0
 434 400 433 388 432 374 c 1xea
279 734 m 1
 317 641 l 1
 387 734 l 1
 453 734 l 1
 347 593 l 1
 271 593 l 1
 214 734 l 1
 279 734 l 1
EndSplineSet
Ligature: 0 0 'liga' s uni030C
EndChar
StartChar: scommaaccent
Encoding: 360 537 254
Width: 410
Flags: W
HStem: -15 76<202 220> 462 76<279 298>
VStem: 52 72<116 141> 103 74<342 372> 335 76<158 189> 364 70<394 408>
DStem: 155 -60 232 -60 137 -161 216 -154
Fore
432 374 m 1xd4
 362 374 l 1
 363 383 364 391 364 396 c 0
 364 438 333 462 281 462 c 0
 219 462 177 425 177 372 c 0xd4
 177 346 191 335 243 318 c 2
 312 296 l 2
 382 273 411 242 411 189 c 0
 411 147 394 97 367 62 c 0
 328 12 271 -15 204 -15 c 0
 107 -15 52 33 52 116 c 0
 52 128 53 147 56 168 c 1
 126 168 l 1
 125 157 124 147 124 139 c 0
 124 89 158 61 218 61 c 0
 286 61 335 101 335 158 c 0xe8
 335 186 316 202 261 219 c 2
 182 244 l 2
 129 261 103 293 103 342 c 0
 103 452 189 538 298 538 c 0
 382 538 434 489 434 408 c 0
 434 400 433 388 432 374 c 1xd4
155 -60 m 1
 232 -60 l 1
 216 -154 l 1
 202 -234 165 -282 116 -286 c 1
 123 -247 l 1
 151 -244 169 -215 177 -161 c 1
 137 -161 l 1
 155 -60 l 1
EndSplineSet
Ligature: 0 0 'liga' s uni0326
EndChar
StartChar: tcaron
Encoding: 361 357 255
Width: 254
Flags: W
HStem: -7 76<151 197> 450 73<102 148 233 289> 698 20G<317 394>
VStem: 84 76<63 98>
DStem: 148 450 220 450 88 105 161 110 186 669 259 669 161 523 233 523 317 718 394 718 299 617 378 624
Fore
283 523 m 1
 285 531 l 1
 313 535 331 563 339 617 c 1
 299 617 l 1
 317 718 l 1
 394 718 l 1
 378 624 l 1
 365 553 339 513 297 496 c 1
 289 450 l 1
 220 450 l 1
 161 110 l 1
 160 106 160 103 160 98 c 0
 160 77 171 69 197 69 c 2
 223 69 l 1
 211 0 l 1
 194 -2 189 -3 177 -4 c 0
 163 -6 157 -7 151 -7 c 0
 108 -7 84 18 84 63 c 0
 84 76 85 91 88 105 c 1
 148 450 l 1
 90 450 l 1
 103 523 l 1
 161 523 l 1
 186 669 l 1
 259 669 l 1
 233 523 l 1
 283 523 l 1
EndSplineSet
Ligature: 0 0 'liga' t uni030C
EndChar
StartChar: udieresis
Encoding: 362 252 256
Width: 456
Flags: W
HStem: -15 76<195 222> 503 20G<146 219 420 492> 604 102<246 304 378 436>
VStem: 77 78<103 136>
DStem: 146 523 219 523 81 147 158 176 247 706 321 706 229 604 304 604 347 81 492 523 333 0 401 0 379 706 454 706 362 604 436 604 420 523 492 523 370 235 401 0
Fore
401 0 m 1
 333 0 l 1
 347 81 l 1
 296 9 258 -15 195 -15 c 0
 120 -15 77 28 77 103 c 0
 77 118 78 132 81 147 c 1
 146 523 l 1
 219 523 l 1
 158 176 l 1
 156 163 155 153 155 136 c 0
 155 87 178 61 222 61 c 0
 294 61 351 128 370 235 c 1
 420 523 l 1
 492 523 l 1
 401 0 l 1
321 706 m 1
 304 604 l 1
 229 604 l 1
 247 706 l 1
 321 706 l 1
454 706 m 1
 436 604 l 1
 362 604 l 1
 379 706 l 1
 454 706 l 1
EndSplineSet
Ligature: 0 0 'liga' u uni0308
EndChar
StartChar: uacute
Encoding: 363 250 257
Width: 456
Flags: W
HStem: -15 76<195 222> 503 20G<146 219 420 492> 714 20G<393 482>
VStem: 77 78<103 136>
DStem: 146 523 219 523 81 147 158 176 347 81 492 523 333 0 401 0 420 523 492 523 370 235 401 0
Fore
401 0 m 1
 333 0 l 1
 347 81 l 1
 296 9 258 -15 195 -15 c 0
 120 -15 77 28 77 103 c 0
 77 118 78 132 81 147 c 1
 146 523 l 1
 219 523 l 1
 158 176 l 1
 156 163 155 153 155 136 c 0
 155 87 178 61 222 61 c 0
 294 61 351 128 370 235 c 1
 420 523 l 1
 492 523 l 1
 401 0 l 1
482 734 m 1
 350 593 l 1
 295 593 l 1
 393 734 l 1
 482 734 l 1
EndSplineSet
Ligature: 0 0 'liga' u acutecomb
EndChar
StartChar: ugrave
Encoding: 364 249 258
Width: 456
Flags: W
HStem: -15 76<195 222> 503 20G<146 219 420 492> 714 20G<231 320>
VStem: 77 78<103 136>
DStem: 146 523 219 523 81 147 158 176 347 81 492 523 333 0 401 0 420 523 492 523 370 235 401 0
Fore
401 0 m 1
 333 0 l 1
 347 81 l 1
 296 9 258 -15 195 -15 c 0
 120 -15 77 28 77 103 c 0
 77 118 78 132 81 147 c 1
 146 523 l 1
 219 523 l 1
 158 176 l 1
 156 163 155 153 155 136 c 0
 155 87 178 61 222 61 c 0
 294 61 351 128 370 235 c 1
 420 523 l 1
 492 523 l 1
 401 0 l 1
313 593 m 1
 231 734 l 1
 320 734 l 1
 368 593 l 1
 313 593 l 1
EndSplineSet
Ligature: 0 0 'liga' u gravecomb
EndChar
StartChar: ucircumflex
Encoding: 365 251 259
Width: 456
Flags: W
HStem: -15 76<195 222> 503 20G<146 219 420 492> 714 20G<318 394>
VStem: 77 78<103 136>
DStem: 146 523 219 523 81 147 158 176 318 734 347 686 212 593 277 593 347 686 394 734 385 593 450 593 347 81 492 523 333 0 401 0 420 523 492 523 370 235 401 0
Fore
401 0 m 1
 333 0 l 1
 347 81 l 1
 296 9 258 -15 195 -15 c 0
 120 -15 77 28 77 103 c 0
 77 118 78 132 81 147 c 1
 146 523 l 1
 219 523 l 1
 158 176 l 1
 156 163 155 153 155 136 c 0
 155 87 178 61 222 61 c 0
 294 61 351 128 370 235 c 1
 420 523 l 1
 492 523 l 1
 401 0 l 1
347 686 m 1
 277 593 l 1
 212 593 l 1
 318 734 l 1
 394 734 l 1
 450 593 l 1
 385 593 l 1
 347 686 l 1
EndSplineSet
Ligature: 0 0 'liga' u uni0302
EndChar
StartChar: uring
Encoding: 366 367 260
Width: 456
Flags: W
HStem: -15 76<195 222> 503 20G<146 219 420 492> 572 40<325 336> 716 40<347 360>
VStem: 77 78<103 136> 266 34<642 658> 387 34<672 685>
DStem: 146 523 219 523 81 147 158 176 347 81 492 523 333 0 401 0 420 523 492 523 370 235 401 0
Fore
401 0 m 1
 333 0 l 1
 347 81 l 1
 296 9 258 -15 195 -15 c 0
 120 -15 77 28 77 103 c 0
 77 118 78 132 81 147 c 1
 146 523 l 1
 219 523 l 1
 158 176 l 1
 156 163 155 153 155 136 c 0
 155 87 178 61 222 61 c 0
 294 61 351 128 370 235 c 1
 420 523 l 1
 492 523 l 1
 401 0 l 1
360 756 m 0
 396 756 421 727 421 685 c 0
 421 624 377 572 327 572 c 0
 291 572 266 600 266 643 c 0
 266 704 309 756 360 756 c 0
353 716 m 0
 325 716 300 686 300 653 c 0
 300 629 314 612 334 612 c 0
 361 612 387 643 387 675 c 0
 387 699 372 716 353 716 c 0
EndSplineSet
Ligature: 0 0 'liga' u uni030A
EndChar
StartChar: uhungarumlaut
Encoding: 367 369 261
Width: 456
Flags: W
HStem: -15 76<195 222> 503 20G<146 219 420 492> 714 20G<318 408 466 555>
VStem: 77 78<103 136>
DStem: 146 523 219 523 81 147 158 176 347 81 492 523 333 0 401 0 420 523 492 523 370 235 401 0
Fore
401 0 m 1
 333 0 l 1
 347 81 l 1
 296 9 258 -15 195 -15 c 0
 120 -15 77 28 77 103 c 0
 77 118 78 132 81 147 c 1
 146 523 l 1
 219 523 l 1
 158 176 l 1
 156 163 155 153 155 136 c 0
 155 87 178 61 222 61 c 0
 294 61 351 128 370 235 c 1
 420 523 l 1
 492 523 l 1
 401 0 l 1
408 734 m 1
 276 593 l 1
 221 593 l 1
 318 734 l 1
 408 734 l 1
555 734 m 1
 423 593 l 1
 368 593 l 1
 466 734 l 1
 555 734 l 1
EndSplineSet
Ligature: 0 0 'liga' u uni030B
EndChar
StartChar: yacute
Encoding: 368 253 262
Width: 410
Flags: W
HStem: -214 79<47 70> 503 20G<100 182 412 492> 714 20G<370 459>
Fore
222 94 m 1
 412 523 l 1
 492 523 l 1
 248 10 l 1
 148 -195 131 -214 47 -214 c 0
 35 -214 31 -213 18 -208 c 2
 15 -207 l 1
 12 -206 l 1
 26 -126 l 1
 40 -132 53 -135 68 -135 c 0
 98 -135 113 -121 138 -68 c 1
 165 -14 l 1
 100 523 l 1
 182 523 l 1
 222 94 l 1
459 734 m 1
 327 593 l 1
 272 593 l 1
 370 734 l 1
 459 734 l 1
EndSplineSet
Ligature: 0 0 'liga' y acutecomb
EndChar
StartChar: zacute
Encoding: 369 378 263
Width: 410
Flags: W
HStem: 0 73<134 384> 450 73<135 362> 714 20G<370 459>
DStem: 362 450 455 451 37 69 134 73
Fore
455 451 m 1
 134 73 l 1
 397 73 l 1
 384 0 l 1
 25 0 l 1
 37 69 l 1
 362 450 l 1
 123 450 l 1
 136 523 l 1
 468 523 l 1
 455 451 l 1
459 734 m 1
 327 593 l 1
 272 593 l 1
 370 734 l 1
 459 734 l 1
EndSplineSet
Ligature: 0 0 'liga' z acutecomb
EndChar
StartChar: zcaron
Encoding: 370 382 264
Width: 410
Flags: W
HStem: 0 73<134 384> 450 73<135 362> 714 20G<213 278 386 452>
DStem: 213 734 278 734 270 593 316 641 362 450 455 451 37 69 134 73 386 734 452 734 316 641 346 593
Fore
455 451 m 1
 134 73 l 1
 397 73 l 1
 384 0 l 1
 25 0 l 1
 37 69 l 1
 362 450 l 1
 123 450 l 1
 136 523 l 1
 468 523 l 1
 455 451 l 1
278 734 m 1
 316 641 l 1
 386 734 l 1
 452 734 l 1
 346 593 l 1
 270 593 l 1
 213 734 l 1
 278 734 l 1
EndSplineSet
Ligature: 0 0 'liga' z uni030C
EndChar
StartChar: zdotaccent
Encoding: 371 380 265
Width: 410
Flags: W
HStem: 0 73<134 384> 450 73<135 362>
DStem: 291 706 366 706 273 604 348 604 362 450 455 451 37 69 134 73
Fore
455 451 m 1
 134 73 l 1
 397 73 l 1
 384 0 l 1
 25 0 l 1
 37 69 l 1
 362 450 l 1
 123 450 l 1
 136 523 l 1
 468 523 l 1
 455 451 l 1
366 706 m 1
 348 604 l 1
 273 604 l 1
 291 706 l 1
 366 706 l 1
EndSplineSet
Ligature: 0 0 'liga' z uni0307
EndChar
StartChar: ydieresis
Encoding: 372 255 266
Width: 410
Flags: W
HStem: -214 79<47 70> 503 20G<100 182 412 492> 604 102<223 281 355 413>
DStem: 224 706 298 706 206 604 281 604 356 706 431 706 339 604 413 604
Fore
222 94 m 1
 412 523 l 1
 492 523 l 1
 248 10 l 1
 148 -195 131 -214 47 -214 c 0
 35 -214 31 -213 18 -208 c 2
 15 -207 l 1
 12 -206 l 1
 26 -126 l 1
 40 -132 53 -135 68 -135 c 0
 98 -135 113 -121 138 -68 c 1
 165 -14 l 1
 100 523 l 1
 182 523 l 1
 222 94 l 1
298 706 m 1
 281 604 l 1
 206 604 l 1
 224 706 l 1
 298 706 l 1
431 706 m 1
 413 604 l 1
 339 604 l 1
 356 706 l 1
 431 706 l 1
EndSplineSet
Ligature: 0 0 'liga' y uni0308
EndChar
StartChar: tcommaaccent
Encoding: 373 355 267
Width: 228
Flags: W
HStem: -7 76<152 198> 450 73<102 148 233 290>
VStem: 84 76<63 98>
DStem: 64 -60 141 -60 46 -161 125 -154 148 450 221 450 88 105 161 110 187 669 259 669 161 523 233 523
Fore
290 450 m 1
 221 450 l 1
 161 110 l 1
 160 98 l 1
 160 77 171 69 198 69 c 2
 223 69 l 1
 211 0 l 1
 194 -2 189 -3 178 -4 c 0
 163 -6 157 -7 152 -7 c 0
 108 -7 84 18 84 63 c 0
 84 74 86 90 88 105 c 1
 148 450 l 1
 90 450 l 1
 103 523 l 1
 161 523 l 1
 187 669 l 1
 259 669 l 1
 233 523 l 1
 302 523 l 1
 290 450 l 1
64 -60 m 1
 141 -60 l 1
 125 -154 l 1
 111 -234 74 -282 25 -286 c 1
 32 -247 l 1
 60 -244 78 -215 86 -161 c 1
 46 -161 l 1
 64 -60 l 1
EndSplineSet
Ligature: 0 0 'liga' t uni0327
EndChar
StartChar: amacron
Encoding: 374 257 268
Width: 456
Flags: W
HStem: -15 73<164 190> 465 73<296 318> 627 57<218 466>
VStem: 50 77<101 123> 384 74<400 423>
DStem: 361 267 455 392 346 181 403 91
Fore
180 364 m 1
 114 364 l 1
 126 416 137 441 159 469 c 0
 193 513 250 538 316 538 c 0
 405 538 458 495 458 423 c 0
 458 413 457 402 455 392 c 1
 403 91 l 2
 402 85 401 81 401 80 c 0
 400 69 408 60 420 60 c 0
 426 60 433 61 446 64 c 1
 434 0 l 1
 425 -3 l 2
 409 -9 402 -10 391 -10 c 0
 351 -10 329 10 329 46 c 0
 329 51 330 61 331 70 c 1
 274 10 225 -15 164 -15 c 0
 93 -15 50 29 50 101 c 0
 50 206 115 286 212 300 c 2
 334 318 l 2
 366 323 384 353 384 400 c 0
 384 442 354 465 298 465 c 0
 235 465 203 438 180 364 c 1
346 181 m 1
 361 267 l 1
 344 253 322 248 236 234 c 0
 160 221 127 187 127 121 c 0
 127 80 149 58 190 58 c 0
 263 58 335 114 346 181 c 1
476 684 m 1
 466 627 l 1
 209 627 l 1
 219 684 l 1
 476 684 l 1
EndSplineSet
Ligature: 0 0 'liga' a uni0304
EndChar
StartChar: emacron
Encoding: 375 275 269
Width: 456
Flags: W
HStem: -15 76<226 246> 233 70<162 463> 459 79<308 329> 627 57<218 466>
VStem: 69 75<160 194> 403 71<336 370>
Fore
373 164 m 1
 445 164 l 1
 407 51 326 -15 226 -15 c 0
 126 -15 69 53 69 172 c 0
 69 269 102 375 153 443 c 0
 199 505 261 538 329 538 c 0
 380 538 421 518 442 482 c 0
 461 449 474 399 474 354 c 0
 474 323 470 282 463 233 c 1
 150 233 l 1
 146 208 144 187 144 171 c 0
 144 103 181 61 242 61 c 0
 300 61 355 104 373 164 c 1
162 303 m 1
 401 303 l 1
 402 321 403 337 403 350 c 0
 403 417 368 459 312 459 c 0
 243 459 183 396 162 303 c 1
476 684 m 1
 466 627 l 1
 209 627 l 1
 219 684 l 1
 476 684 l 1
EndSplineSet
Ligature: 0 0 'liga' e uni0304
EndChar
StartChar: imacron
Encoding: 376 299 270
Width: 228
Flags: W
HStem: 0 21G<78 150> 503 20G<169 241> 627 57<104 352>
DStem: 169 523 241 523 78 0 150 0
Fore
241 523 m 1
 150 0 l 1
 78 0 l 1
 169 523 l 1
 241 523 l 1
362 684 m 1
 352 627 l 1
 95 627 l 1
 105 684 l 1
 362 684 l 1
EndSplineSet
Ligature: 0 0 'liga' i uni0304
EndChar
StartChar: kcommaaccent
Encoding: 377 311 271
Width: 410
Flags: W
HStem: 0 21G<55 125 318 411> 503 20G<400 492> 698 20G<180 250>
DStem: 155 -60 232 -60 137 -161 216 -154 180 718 250 718 55 0 177 302 180 718 159 198 55 0 125 0 231 264 294 328 318 0 411 0 400 523 492 523 177 302 294 328
Fore
294 328 m 1
 411 0 l 1
 318 0 l 1
 231 264 l 1
 159 198 l 1
 125 0 l 1
 55 0 l 1
 180 718 l 1
 250 718 l 1
 177 302 l 1
 400 523 l 1
 492 523 l 1
 294 328 l 1
155 -60 m 1
 232 -60 l 1
 216 -154 l 1
 202 -234 165 -282 116 -286 c 1
 123 -247 l 1
 151 -244 169 -215 177 -161 c 1
 137 -161 l 1
 155 -60 l 1
EndSplineSet
Ligature: 0 0 'liga' k uni0327
EndChar
StartChar: lcommaaccent
Encoding: 378 316 272
Width: 182
Flags: W
HStem: 0 21G<55 127> 698 20G<180 252>
DStem: 41 -60 118 -60 23 -161 102 -154 180 718 252 718 55 0 127 0
Fore
252 718 m 1
 127 0 l 1
 55 0 l 1
 180 718 l 1
 252 718 l 1
41 -60 m 1
 118 -60 l 1
 102 -154 l 1
 88 -234 51 -282 2 -286 c 1
 9 -247 l 1
 37 -244 55 -215 63 -161 c 1
 23 -161 l 1
 41 -60 l 1
EndSplineSet
Ligature: 0 0 'liga' l uni0327
EndChar
StartChar: ncommaaccent
Encoding: 379 326 273
Width: 456
Flags: W
HStem: 0 21G<53 125 331 403> 459 79<323 352>
VStem: 392 78<382 410>
DStem: 144 523 212 523 53 0 199 446 144 523 175 285 53 0 125 0 178 -60 255 -60 160 -161 239 -154 387 322 465 356 331 0 403 0
Fore
212 523 m 1
 199 446 l 1
 249 511 293 538 352 538 c 0
 426 538 470 490 470 410 c 0
 470 393 468 375 465 356 c 1
 403 0 l 1
 331 0 l 1
 387 322 l 1
 390 342 392 362 392 382 c 0
 392 433 369 459 323 459 c 0
 250 459 194 393 175 285 c 2
 125 0 l 1
 53 0 l 1
 144 523 l 1
 212 523 l 1
178 -60 m 1
 255 -60 l 1
 239 -154 l 1
 225 -234 188 -282 139 -286 c 1
 146 -247 l 1
 174 -244 192 -215 200 -161 c 1
 160 -161 l 1
 178 -60 l 1
EndSplineSet
Ligature: 0 0 'liga' n uni0327
EndChar
StartChar: omacron
Encoding: 380 333 274
Width: 456
Flags: W
HStem: -14 76<224 245> 462 76<306 322> 627 57<218 466>
VStem: 68 75<177 211> 404 75<321 338>
Fore
322 538 m 0
 420 538 479 462 479 336 c 0
 479 244 448 149 397 81 c 0
 350 18 292 -14 225 -14 c 0
 127 -14 68 62 68 189 c 0
 68 278 100 377 150 443 c 0
 197 505 256 538 322 538 c 0
308 462 m 0
 258 462 215 430 184 370 c 0
 158 320 143 256 143 198 c 0
 143 110 177 62 239 62 c 0
 289 62 332 94 363 154 c 0
 389 204 404 268 404 325 c 0
 404 413 370 462 308 462 c 0
476 684 m 1
 466 627 l 1
 209 627 l 1
 219 684 l 1
 476 684 l 1
EndSplineSet
Ligature: 0 0 'liga' o uni0304
EndChar
StartChar: rcommaaccent
Encoding: 381 343 275
Width: 273
Flags: W
HStem: 0 21G<63 135> 444 94<330.93 350>
DStem: 47 -60 124 -60 29 -161 108 -154 154 523 222 523 63 0 206 433 154 523 188 304 63 0 135 0
Fore
349 444 m 1
 322 444 l 2
 259 444 202 385 188 304 c 2
 135 0 l 1
 63 0 l 1
 154 523 l 1
 222 523 l 1
 206 433 l 1
 258 509 296 538 347 538 c 0
 354 538 359 537 365 535 c 1
 349 444 l 1
47 -60 m 1
 124 -60 l 1
 108 -154 l 1
 94 -234 57 -282 8 -286 c 1
 15 -247 l 1
 43 -244 61 -215 69 -161 c 1
 29 -161 l 1
 47 -60 l 1
EndSplineSet
Ligature: 0 0 'liga' r uni0327
EndChar
StartChar: umacron
Encoding: 382 363 276
Width: 456
Flags: W
HStem: -15 76<195 222> 503 20G<146 219 420 492> 627 57<218 466>
VStem: 77 78<103 136>
DStem: 146 523 219 523 81 147 158 176 347 81 492 523 333 0 401 0 420 523 492 523 370 235 401 0
Fore
401 0 m 1
 333 0 l 1
 347 81 l 1
 296 9 258 -15 195 -15 c 0
 120 -15 77 28 77 103 c 0
 77 118 78 132 81 147 c 1
 146 523 l 1
 219 523 l 1
 158 176 l 1
 156 163 155 153 155 136 c 0
 155 87 178 61 222 61 c 0
 294 61 351 128 370 235 c 1
 420 523 l 1
 492 523 l 1
 401 0 l 1
476 684 m 1
 466 627 l 1
 209 627 l 1
 219 684 l 1
 476 684 l 1
EndSplineSet
Ligature: 0 0 'liga' u uni0304
EndChar
StartChar: uogonek
Encoding: 383 371 277
Width: 456
Flags: W
HStem: -225 47<312 335> -15 76<195 222> 503 20G<146 219 420 492>
VStem: 77 78<103 136> 232 64<-153 -141>
DStem: 146 523 219 523 81 147 158 176 347 81 492 523 333 0 401 0 420 523 492 523 370 235 401 0
Fore
492 523 m 1
 401 0 l 1
 352 -34 329 -54 316 -75 c 0
 304 -94 296 -122 296 -143 c 0
 296 -166 310 -178 335 -178 c 0
 351 -178 364 -175 390 -163 c 1
 397 -203 l 1
 363 -218 337 -225 312 -225 c 0
 264 -225 232 -196 232 -152 c 0
 232 -119 249 -77 274 -48 c 0
 293 -24 308 -15 346 0 c 1
 333 0 l 1
 347 81 l 1
 296 9 258 -15 195 -15 c 0
 120 -15 77 28 77 103 c 0
 77 118 78 132 81 147 c 1
 146 523 l 1
 219 523 l 1
 158 176 l 1
 156 163 155 153 155 136 c 0
 155 87 178 61 222 61 c 0
 294 61 351 128 370 235 c 1
 420 523 l 1
 492 523 l 1
EndSplineSet
Ligature: 0 0 'liga' u uni0328
EndChar
StartChar: rcaron
Encoding: 384 345 278
Width: 273
Flags: W
HStem: 0 21G<63 135> 444 94<334 349> 714 20G<145 210 318 384>
DStem: 145 734 210 734 202 593 248 641 154 523 222 523 63 0 206 433 154 523 188 304 63 0 135 0 318 734 384 734 248 641 278 593
Fore
349 444 m 1
 322 444 l 2
 259 444 202 385 188 304 c 2
 135 0 l 1
 63 0 l 1
 154 523 l 1
 222 523 l 1
 206 433 l 1
 258 509 296 538 347 538 c 0
 354 538 359 537 365 535 c 1
 349 444 l 1
210 734 m 1
 248 641 l 1
 318 734 l 1
 384 734 l 1
 278 593 l 1
 202 593 l 1
 145 734 l 1
 210 734 l 1
EndSplineSet
Ligature: 0 0 'liga' r uni030C
EndChar
StartChar: scedilla
Encoding: 385 351 279
Width: 410
Flags: W
HStem: -225 47<129 148> -97 39<162 203> 462 76<279 298>
VStem: 52 72<116 141> 103 74<342 372> 196 64<-130 -116> 335 76<158 189> 364 70<394 408>
DStem: 176 -13 213 -15 119 -86 176 -62
Fore
213 -15 m 1xee
 176 -62 l 1
 190 -59 196 -58 203 -58 c 0
 239 -58 260 -80 260 -116 c 0
 260 -177 210 -225 146 -225 c 0
 121 -225 99 -219 71 -203 c 1
 91 -163 l 1
 113 -174 124 -178 141 -178 c 0
 174 -178 196 -158 196 -128 c 0
 196 -110 182 -97 162 -97 c 0
 156 -97 146 -99 129 -105 c 1
 119 -86 l 1
 176 -13 l 1
 94 -3 52 40 52 116 c 0
 52 128 53 147 56 168 c 1
 126 168 l 1
 125 157 124 147 124 139 c 0
 124 89 158 61 218 61 c 0
 286 61 335 101 335 158 c 0xf6
 335 186 316 202 261 219 c 2
 182 244 l 2
 129 261 103 293 103 342 c 0
 103 452 189 538 298 538 c 0
 382 538 434 489 434 408 c 0
 434 400 433 388 432 374 c 1
 362 374 l 1
 363 383 364 391 364 396 c 0xed
 364 438 333 462 281 462 c 0
 219 462 177 425 177 372 c 0
 177 346 191 335 243 318 c 2
 312 296 l 2
 382 273 411 242 411 189 c 0
 411 137 387 80 350 43 c 0
 314 6 271 -12 213 -15 c 1xee
EndSplineSet
Ligature: 0 0 'liga' s uni0327
EndChar
StartChar: gcommaaccent
Encoding: 386 291 280
Width: 456
Flags: W
HStem: -220 73<171 195> -15 76<216 234> 459 79<289 311> 693 21G<348 388>
VStem: 72 74<163 213>
DStem: 309 686 388 693 293 592 370 592 432 523 500 523 418 446 416 43
Fore
500 523 m 1
 416 43 l 1
 402 -41 382 -93 350 -136 c 0
 309 -191 247 -220 173 -220 c 0
 130 -220 96 -209 72 -188 c 0
 44 -162 34 -133 34 -74 c 2
 34 -64 l 1
 106 -64 l 1
 109 -122 133 -147 188 -147 c 0
 238 -147 276 -128 302 -88 c 0
 321 -60 332 -27 343 37 c 1
 347 58 l 1
 309 7 270 -15 216 -15 c 0
 125 -15 72 58 72 184 c 0
 72 381 175 538 303 538 c 0
 361 538 391 514 418 446 c 1
 432 523 l 1
 500 523 l 1
302 459 m 0
 254 459 212 430 188 380 c 0
 162 329 146 253 146 185 c 0
 146 107 178 61 232 61 c 0
 272 61 313 85 341 128 c 0
 370 170 391 257 391 334 c 0
 391 417 361 459 302 459 c 0
370 592 m 1
 293 592 l 1
 309 686 l 1
 323 766 359 814 409 818 c 1
 402 779 l 1
 374 776 356 747 348 693 c 1
 388 693 l 1
 370 592 l 1
EndSplineSet
Ligature: 0 0 'liga' g uni0327
EndChar
StartChar: iogonek
Encoding: 387 303 281
Width: 182
Flags: W
HStem: -225 47<38 61> -20 20G<55 72> 503 20G<146 218> 698 20G<180 252>
VStem: -42 64<-153 -141>
DStem: 146 523 218 523 55 0 127 0 180 718 252 718 162 618 234 618
Fore
218 523 m 1
 127 0 l 1
 77 -34 55 -54 42 -75 c 0
 30 -94 22 -122 22 -143 c 0
 22 -166 36 -178 61 -178 c 0
 78 -178 90 -175 116 -163 c 1
 123 -203 l 1
 90 -218 64 -225 38 -225 c 0
 -10 -225 -42 -196 -42 -152 c 0
 -42 -119 -25 -77 0 -48 c 0
 20 -24 34 -15 72 0 c 1
 55 0 l 1
 146 523 l 1
 218 523 l 1
234 618 m 1
 162 618 l 1
 180 718 l 1
 252 718 l 1
 234 618 l 1
EndSplineSet
Ligature: 0 0 'liga' i uni0328
EndChar
StartChar: Scommaaccent
Encoding: 388 536 282
Width: 547
Flags: W
HStem: -19 83<270 299> 654 83<377 400>
VStem: 74 78<157 186> 146 81<475 506> 467 80<217 246> 507 77<539 569>
DStem: 223 -60 300 -60 205 -161 284 -154
Fore
580 508 m 1xd4
 505 508 l 1
 506 521 507 532 507 541 c 0
 507 611 460 654 384 654 c 0
 292 654 227 593 227 506 c 0xd4
 227 470 245 448 283 437 c 2
 442 390 l 2
 511 370 547 320 547 246 c 0
 547 89 435 -19 272 -19 c 0
 193 -19 144 2 109 50 c 0
 87 82 74 120 74 157 c 0
 74 176 76 202 81 232 c 1
 156 232 l 1
 153 214 152 197 152 186 c 0
 152 110 205 64 291 64 c 0
 399 64 467 123 467 217 c 0xe8
 467 265 441 288 360 312 c 2
 246 346 l 2
 180 366 146 410 146 475 c 0
 146 532 169 598 205 645 c 0
 251 706 315 737 398 737 c 0
 515 737 584 674 584 569 c 0
 584 554 583 532 580 508 c 1xd4
223 -60 m 1
 300 -60 l 1
 284 -154 l 1
 270 -234 233 -282 184 -286 c 1
 191 -247 l 1
 219 -244 237 -215 245 -161 c 1
 205 -161 l 1
 223 -60 l 1
EndSplineSet
Ligature: 0 0 'liga' S uni0326
EndChar
StartChar: Eth
Encoding: 389 208 283
Width: 592
Flags: W
HStem: 0 83<161 318> 326 86<71 123 218 360> 635 83<192 410>
VStem: 542 84<447 481>
DStem: 123 326 203 326 67 0 161 83 192 718 257 635 138 412 218 412
Fore
57 326 m 1
 72 412 l 1
 138 412 l 1
 192 718 l 1
 430 718 l 2
 553 718 626 625 626 470 c 0
 626 375 599 267 553 178 c 0
 494 61 407 0 302 0 c 2
 67 0 l 1
 123 326 l 1
 57 326 l 1
375 412 m 1
 360 326 l 1
 203 326 l 1
 161 83 l 1
 315 83 l 2
 374 83 427 116 468 178 c 0
 511 245 542 361 542 461 c 0
 542 573 494 635 405 635 c 2
 257 635 l 1
 218 412 l 1
 375 412 l 1
EndSplineSet
EndChar
StartChar: Dcroat
Encoding: 390 272 284
Width: 592
Flags: W
HStem: 0 83<161 318> 326 86<71 123 218 360> 635 83<192 410>
VStem: 542 84<447 481>
DStem: 123 326 203 326 67 0 161 83 192 718 257 635 138 412 218 412
Fore
57 326 m 1
 72 412 l 1
 138 412 l 1
 192 718 l 1
 430 718 l 2
 553 718 626 625 626 470 c 0
 626 375 599 267 553 178 c 0
 494 61 407 0 302 0 c 2
 67 0 l 1
 123 326 l 1
 57 326 l 1
375 412 m 1
 360 326 l 1
 203 326 l 1
 161 83 l 1
 315 83 l 2
 374 83 427 116 468 178 c 0
 511 245 542 361 542 461 c 0
 542 573 494 635 405 635 c 2
 257 635 l 1
 218 412 l 1
 375 412 l 1
EndSplineSet
EndChar
StartChar: Thorn
Encoding: 391 222 285
Width: 547
Flags: W
HStem: 0 21G<71 151> 184 83<197 376> 516 83<255 408> 516 202<196 402>
VStem: 501 83<428 447>
DStem: 196 718 276 718 71 0 255 599 196 718 241 516 71 0 197 267 196 718 183 184 71 0 151 0
Fore
71 0 m 1xe8
 196 718 l 1
 276 718 l 1xd8
 255 599 l 1
 440 599 l 2
 529 599 584 540 584 445 c 0
 584 382 561 313 524 264 c 0
 484 211 431 184 368 184 c 2
 183 184 l 1
 151 0 l 1
 71 0 l 1xe8
241 516 m 1
 197 267 l 1
 355 267 l 2
 408 267 446 285 471 321 c 0
 489 348 501 392 501 430 c 0
 501 487 467 516 402 516 c 2xe8
 241 516 l 1
EndSplineSet
EndChar
StartChar: dcroat
Encoding: 392 273 286
Width: 456
Flags: W
HStem: -15 76<214 230> 459 79<292 310> 600 53<316 441 523 564> 698 20G<462 534>
VStem: 69 74<176 210>
DStem: 354 75 513 600 341 0 409 0 441 600 513 600 414 444 409 0
Fore
523 653 m 1
 573 653 l 1
 564 600 l 1
 513 600 l 1
 409 0 l 1
 341 0 l 1
 354 75 l 1
 311 10 272 -15 214 -15 c 0
 121 -15 69 57 69 185 c 0
 69 381 171 538 300 538 c 0
 358 538 392 511 414 444 c 1
 441 600 l 1
 308 600 l 1
 317 653 l 1
 451 653 l 1
 462 718 l 1
 534 718 l 1
 523 653 l 1
299 459 m 0
 251 459 209 430 185 380 c 0
 159 328 143 253 143 186 c 0
 143 107 174 61 228 61 c 0
 269 61 309 85 337 128 c 0
 366 170 387 257 387 334 c 0
 387 417 358 459 299 459 c 0
EndSplineSet
EndChar
StartChar: eth
Encoding: 393 240 287
Width: 456
Flags: W
HStem: -15 76<226 248> 447 76<304 316>
VStem: 67 76<176 210> 402 86<308 389>
DStem: 310 649 343 612 203 592 230 550 474 737 506 697 379 686 409 646
Fore
506 697 m 1
 409 646 l 1
 467 556 488 487 488 389 c 0
 488 278 450 151 395 79 c 0
 348 17 291 -15 228 -15 c 0
 129 -15 67 62 67 184 c 0
 67 272 97 364 148 431 c 0
 194 492 249 523 310 523 c 0
 356 523 382 507 410 463 c 1
 401 521 381 565 343 612 c 1
 230 550 l 1
 203 592 l 1
 310 649 l 1
 290 671 271 687 246 701 c 1
 313 737 l 1
 342 721 358 709 379 686 c 1
 474 737 l 1
 506 697 l 1
306 447 m 0
 256 447 212 414 181 353 c 0
 156 304 143 251 143 200 c 0
 143 110 177 61 239 61 c 0
 289 61 333 94 364 155 c 0
 389 204 402 257 402 308 c 0
 402 398 368 447 306 447 c 0
EndSplineSet
EndChar
StartChar: thorn
Encoding: 394 254 288
Width: 456
Flags: W
HStem: -15 76<232 252> 459 79<313 340> 698 20G<172 245>
VStem: 404 75<336 357>
DStem: 172 718 245 718 11 -207 198 448 172 718 130 58 11 -207 83 -207
Fore
11 -207 m 1
 172 718 l 1
 245 718 l 1
 198 448 l 1
 244 513 283 538 340 538 c 0
 426 538 479 469 479 355 c 0
 479 256 445 145 391 73 c 0
 348 15 295 -15 234 -15 c 0
 181 -15 149 7 130 58 c 1
 83 -207 l 1
 11 -207 l 1
313 459 m 0
 266 459 226 430 200 378 c 0
 172 320 153 239 153 178 c 0
 153 107 189 61 245 61 c 0
 283 61 319 84 346 125 c 0
 378 173 404 273 404 348 c 0
 404 419 372 459 313 459 c 0
EndSplineSet
EndChar
StartChar: Euro
Encoding: 395 8364 289
Width: 481
Flags: W
HStem: -13 62<255 275> 245 58<34 89 173 312> 361 58<59 106 200 384> 608 62<365 384>
VStem: 86 75<178 196>
Fore
200 419 m 1
 419 419 l 1
 384 361 l 1
 185 361 l 1
 181 341 177 324 173 303 c 1
 347 303 l 1
 312 245 l 1
 165 245 l 1
 163 220 161 197 161 183 c 0
 161 94 198 49 273 49 c 0
 320 49 358 64 391 95 c 1
 373 10 l 1
 333 -6 300 -13 261 -13 c 0
 148 -13 86 60 86 191 c 0
 86 208 87 224 89 245 c 1
 0 245 l 1
 35 303 l 1
 96 303 l 1
 100 332 103 347 106 361 c 1
 25 361 l 1
 60 419 l 1
 120 419 l 1
 135 473 154 521 179 563 c 0
 222 636 280 670 365 670 c 0
 441 670 481 655 535 604 c 1
 493 537 l 1
 459 586 420 608 365 608 c 0
 287 608 240 554 200 419 c 1
EndSplineSet
EndChar
StartChar: onesuperior
Encoding: 396 185 290
Width: 273
Flags: W
HStem: 683 20G<259 305>
DStem: 225 577 305 703 173 281 231 281
Fore
225 577 m 1
 136 577 l 1
 144 623 l 1
 215 628 234 641 259 703 c 1
 305 703 l 1
 231 281 l 1
 173 281 l 1
 225 577 l 1
EndSplineSet
EndChar
StartChar: twosuperior
Encoding: 397 178 291
Width: 273
Flags: W
HStem: 281 61<124 314> 656 58<250 268>
VStem: 311 57<598 607>
Fore
161 552 m 1
 112 552 l 1
 123 610 136 641 163 669 c 0
 190 698 228 714 268 714 c 0
 329 714 368 671 368 605 c 0
 368 569 357 535 337 508 c 0
 318 482 295 464 243 435 c 2
 202 412 l 2
 166 391 143 371 124 342 c 1
 325 342 l 1
 314 281 l 1
 52 281 l 1
 69 359 104 410 167 448 c 2
 222 481 l 2
 272 511 283 519 294 537 c 0
 304 552 311 580 311 600 c 0
 311 634 288 656 252 656 c 0
 205 656 177 624 161 552 c 1
EndSplineSet
EndChar
StartChar: threesuperior
Encoding: 398 179 292
Width: 273
Flags: W
HStem: 270 58<176 191> 513 20G<197 219> 656 58<241 258>
VStem: 74 56<381 399> 281 59<422 442> 299 59<610 625>
Fore
76 421 m 1xf8
 132 421 l 1
 131 410 130 400 130 393 c 0
 130 350 150 328 189 328 c 0
 245 328 281 368 281 429 c 0xf8
 281 467 260 482 207 482 c 2
 188 482 l 1
 197 533 l 1
 219 533 l 2
 268 533 299 564 299 612 c 0
 299 640 279 656 243 656 c 0
 200 656 176 633 162 576 c 1
 112 576 l 1
 132 668 181 714 258 714 c 0
 320 714 358 680 358 625 c 0xf4
 358 573 332 532 290 515 c 1
 327 500 340 481 340 442 c 0
 340 346 269 270 178 270 c 0
 112 270 74 312 74 383 c 0
 74 392 75 406 76 421 c 1xf8
EndSplineSet
EndChar
StartChar: degree
Encoding: 399 176 293
Width: 328
Flags: W
HStem: 411 43<233 251> 660 43<277 289>
VStem: 138 41<522 539> 343 41<570 591>
Fore
287 703 m 0
 344 703 384 657 384 589 c 0
 384 495 314 411 236 411 c 0
 178 411 138 457 138 525 c 0
 138 619 208 703 287 703 c 0
279 660 m 0
 230 660 179 597 179 537 c 0
 179 490 207 454 243 454 c 0
 292 454 343 517 343 577 c 0
 343 623 315 660 279 660 c 0
EndSplineSet
EndChar
StartChar: minus
Encoding: 400 8722 294
Width: 479
Flags: W
HStem: 216 73<82 484>
Fore
484 216 m 1
 70 216 l 1
 83 289 l 1
 497 289 l 1
 484 216 l 1
EndSplineSet
EndChar
StartChar: multiply
Encoding: 401 215 295
Width: 479
Flags: W
DStem: 111 455 163 506 242 253 293 305 242 253 274 201 41 51 74 0 274 201 326 253 405 0 456 51 493 506 526 455 293 305 326 253
Fore
242 253 m 1
 111 455 l 1
 163 506 l 1
 293 305 l 1
 493 506 l 1
 526 455 l 1
 326 253 l 1
 456 51 l 1
 405 0 l 1
 274 201 l 1
 74 0 l 1
 41 51 l 1
 242 253 l 1
EndSplineSet
EndChar
StartChar: divide
Encoding: 402 247 296
Width: 479
Flags: W
HStem: -19 136<236 260> 216 73<82 484> 388 136<307 331>
VStem: 191 114<36 63> 262 114<442 469>
CounterMasks: 1 00
Fore
484 216 m 1xe0
 70 216 l 1
 83 289 l 1
 497 289 l 1
 484 216 l 1xe0
331 524 m 0
 357 524 376 500 376 469 c 0
 376 429 341 388 307 388 c 0
 282 388 262 412 262 442 c 0xe8
 262 484 296 524 331 524 c 0
260 117 m 0
 286 117 305 94 305 63 c 0
 305 22 270 -19 236 -19 c 0
 211 -19 191 5 191 36 c 0xf0
 191 77 225 117 260 117 c 0
EndSplineSet
EndChar
StartChar: trademark
Encoding: 403 8482 297
Width: 820
Flags: W
HStem: 658 60<161 256 162 420>
DStem: 256 658 316 658 195 306 255 306 490 718 537 646 418 306 478 306 537 646 582 718 586 306 626 415 774 718 794 646 626 415 627 306 794 646 866 718 734 306 794 306
Fore
582 718 m 1
 626 415 l 1
 774 718 l 1
 866 718 l 1
 794 306 l 1
 734 306 l 1
 794 646 l 1
 627 306 l 1
 586 306 l 1
 537 646 l 1
 478 306 l 1
 418 306 l 1
 490 718 l 1
 582 718 l 1
431 718 m 1
 420 658 l 1
 316 658 l 1
 255 306 l 1
 195 306 l 1
 256 658 l 1
 152 658 l 1
 162 718 l 1
 431 718 l 1
EndSplineSet
Ligature: 0 1 'liga' T M
EndChar
StartChar: plusminus
Encoding: 404 177 298
Width: 479
Flags: W
HStem: 0 73<44 447> 272 73<91 257 330 494>
DStem: 257 272 317 272 229 111 289 111 308 561 368 561 270 345 330 345
Fore
270 345 m 1
 308 561 l 1
 368 561 l 1
 330 345 l 1
 507 345 l 1
 494 272 l 1
 317 272 l 1
 289 111 l 1
 229 111 l 1
 257 272 l 1
 79 272 l 1
 92 345 l 1
 270 345 l 1
32 0 m 1
 45 73 l 1
 460 73 l 1
 447 0 l 1
 32 0 l 1
EndSplineSet
EndChar
StartChar: onehalf
Encoding: 405 189 299
Width: 684
Flags: W
HStem: 0 61<444 634> 375 58<570 588> 683 20G<258 304 582 629>
VStem: 631 57<316 326>
DStem: 224 577 304 703 172 281 231 281 582 703 629 703 93 -19 140 -19
Fore
629 703 m 1
 140 -19 l 1
 93 -19 l 1
 582 703 l 1
 629 703 l 1
224 577 m 1
 135 577 l 1
 143 623 l 1
 215 628 233 641 258 703 c 1
 304 703 l 1
 231 281 l 1
 172 281 l 1
 224 577 l 1
481 271 m 1
 432 271 l 1
 444 330 457 360 483 388 c 0
 510 417 548 433 588 433 c 0
 649 433 688 390 688 324 c 0
 688 289 677 254 657 227 c 0
 638 201 615 183 563 154 c 2
 522 131 l 2
 487 110 463 90 444 61 c 1
 645 61 l 1
 634 0 l 1
 372 0 l 1
 389 78 424 129 487 167 c 2
 542 200 l 2
 592 230 603 239 614 256 c 0
 624 271 631 299 631 319 c 0
 631 353 608 375 572 375 c 0
 525 375 497 343 481 271 c 1
EndSplineSet
Ligature: 0 1 'frac' one slash two
Ligature: 0 1 'frac' one fraction two
EndChar
StartChar: onequarter
Encoding: 406 188 300
Width: 684
Flags: W
HStem: 0 21G<513 565> 94 58<421 529 591 636> 683 20G<283 327 611 658>
DStem: 250 580 327 703 197 281 253 281 529 94 581 94 513 0 565 0 572 342 639 422 539 152 591 152 586 422 572 342 370 154 421 152 611 703 658 703 123 -19 170 -19
Fore
360 94 m 1
 370 154 l 1
 586 422 l 1
 639 422 l 1
 591 152 l 1
 646 152 l 1
 636 94 l 1
 581 94 l 1
 565 0 l 1
 513 0 l 1
 529 94 l 1
 360 94 l 1
539 152 m 1
 572 342 l 1
 421 152 l 1
 539 152 l 1
658 703 m 1
 170 -19 l 1
 123 -19 l 1
 611 703 l 1
 658 703 l 1
250 580 m 1
 161 580 l 1
 168 623 l 1
 239 628 258 641 283 703 c 1
 327 703 l 1
 253 281 l 1
 197 281 l 1
 250 580 l 1
EndSplineSet
Ligature: 0 1 'frac' one slash four
Ligature: 0 1 'frac' one fraction four
EndChar
StartChar: threequarters
Encoding: 407 190 301
Width: 684
Flags: W
HStem: 0 21G<556 609> 94 58<465 573 635 680> 270 58<208 223> 513 20G<229 251> 656 58<273 290>
VStem: 106 56<380 398> 313 59<423 443> 331 59<610 625>
DStem: 573 94 625 94 556 0 609 0 616 342 682 422 583 152 635 152 630 422 616 342 414 154 465 152 659 703 706 703 171 -19 218 -19
Fore
404 94 m 1xfc
 414 154 l 1
 630 422 l 1
 682 422 l 1
 635 152 l 1
 690 152 l 1
 680 94 l 1
 625 94 l 1
 609 0 l 1
 556 0 l 1
 573 94 l 1
 404 94 l 1xfc
616 342 m 1
 465 152 l 1
 583 152 l 1
 616 342 l 1
706 703 m 1
 218 -19 l 1
 171 -19 l 1
 659 703 l 1
 706 703 l 1
108 421 m 1
 164 421 l 1
 163 410 162 400 162 393 c 0
 162 350 182 328 221 328 c 0
 277 328 313 368 313 429 c 0xfe
 313 467 292 482 239 482 c 2
 220 482 l 1
 229 533 l 1
 251 533 l 2
 300 533 331 564 331 612 c 0
 331 640 311 656 275 656 c 0
 232 656 208 633 194 576 c 1
 144 576 l 1
 164 668 213 714 290 714 c 0
 352 714 390 681 390 625 c 0xfd
 390 573 365 532 322 515 c 1
 359 500 372 480 372 443 c 0xfe
 372 346 301 270 210 270 c 0
 144 270 106 312 106 383 c 0
 106 392 107 406 108 421 c 1
EndSplineSet
Ligature: 0 1 'frac' three slash four
Ligature: 0 1 'frac' three fraction four
EndChar
StartChar: commaaccent
Encoding: 408 63171 302
Width: 273
Flags: W
DStem: 86 -60 163 -60 68 -161 147 -154
Fore
86 -60 m 1
 163 -60 l 1
 147 -154 l 1
 133 -234 96 -282 47 -286 c 1
 54 -247 l 1
 82 -244 100 -215 108 -161 c 1
 68 -161 l 1
 86 -60 l 1
EndSplineSet
EndChar
StartChar: copyright
Encoding: 409 169 303
Width: 604
Flags: W
HStem: -19 63<295 317> 128 66<333 350> 526 66<395 415> 674 63<411 435>
VStem: 44 63<268 306> 189 64<300 320> 624 63<412 446>
Fore
462 289 m 1
 517 289 l 1
 478 184 415 128 334 128 c 0
 246 128 189 197 189 303 c 0
 189 462 290 592 413 592 c 0
 476 592 520 559 536 501 c 0
 541 481 542 477 542 435 c 1
 487 435 l 1
 484 496 456 526 403 526 c 0
 320 526 253 433 253 318 c 0
 253 243 290 194 348 194 c 0
 400 194 441 228 462 289 c 1
433 737 m 0
 581 737 687 613 687 439 c 0
 687 199 502 -19 297 -19 c 0
 150 -19 44 106 44 279 c 0
 44 519 229 737 433 737 c 0
420 674 m 0
 254 674 107 492 107 286 c 0
 107 143 190 44 310 44 c 0
 476 44 624 227 624 430 c 0
 624 575 541 674 420 674 c 0
EndSplineSet
EndChar
StartChar: registered
Encoding: 410 174 304
Width: 604
Flags: W
HStem: -19 63<294 317> 521 56<284 421> 674 63<410 435>
VStem: 44 63<268 302> 471 58<471 488> 624 63<408 446>
DStem: 284 577 329 521 208 141 305 386 284 577 296 330 208 141 263 141 358 330 412 333 419 141 480 141
Fore
296 330 m 1
 263 141 l 1
 208 141 l 1
 284 577 l 1
 421 577 l 2
 494 577 529 548 529 488 c 0
 529 444 514 399 490 373 c 0
 470 351 450 340 412 333 c 1
 480 141 l 1
 419 141 l 1
 358 330 l 1
 296 330 l 1
305 386 m 1
 370 386 l 2
 411 386 432 392 447 407 c 0
 461 421 471 448 471 473 c 0
 471 505 449 521 403 521 c 2
 329 521 l 1
 305 386 l 1
433 737 m 0
 581 737 687 613 687 439 c 0
 687 199 502 -19 297 -19 c 0
 150 -19 44 106 44 279 c 0
 44 519 229 737 433 737 c 0
420 674 m 0
 254 674 107 492 107 286 c 0
 107 143 190 44 310 44 c 0
 476 44 624 227 624 430 c 0
 624 575 541 674 420 674 c 0
EndSplineSet
EndChar
StartChar: lozenge
Encoding: 411 9674 305
Width: 405
Flags: W
HStem: 0 21G<171 220>
DStem: 80 377 139 376 171 0 210 77 304 740 316 664 80 377 139 376 316 664 355 740 387 374 447 374 387 374 447 374 210 77 220 0
Fore
171 0 m 1
 80 377 l 1
 304 740 l 1
 355 740 l 1
 447 374 l 1
 220 0 l 1
 171 0 l 1
210 77 m 1
 387 374 l 1
 316 664 l 1
 139 376 l 1
 210 77 l 1
EndSplineSet
EndChar
StartChar: Delta
Encoding: 412 8710 306
Width: 502
Flags: W
HStem: 0 51<63 499>
DStem: 238 509 268 688 393 51 499 0 268 688 238 509 5 0 63 51
Fore
5 0 m 1
 268 688 l 1
 499 0 l 1
 5 0 l 1
63 51 m 1
 393 51 l 1
 238 509 l 1
 63 51 l 1
EndSplineSet
EndChar
StartChar: notequal
Encoding: 413 8800 307
Width: 479
Flags: W
HStem: 115 73<64 169 279 467> 317 73<99 288 398 502>
DStem: 169 115 236 115 127 43 175 10 288 317 355 317 212 188 279 188 392 495 440 462 331 390 398 390
Fore
355 317 m 1
 279 188 l 1
 480 188 l 1
 467 115 l 1
 236 115 l 1
 175 10 l 1
 127 43 l 1
 169 115 l 1
 52 115 l 1
 65 188 l 1
 212 188 l 1
 288 317 l 1
 87 317 l 1
 100 390 l 1
 331 390 l 1
 392 495 l 1
 440 462 l 1
 398 390 l 1
 515 390 l 1
 502 317 l 1
 355 317 l 1
EndSplineSet
Ligature: 0 1 'liga' equal uni0338
EndChar
StartChar: radical
Encoding: 414 8730 308
Width: 450
Flags: W
DStem: 172 445 226 536 289 -74 311 165 545 927 593 918 311 165 289 -74
Fore
289 -74 m 1
 172 445 l 1
 86 398 l 1
 74 454 l 1
 226 536 l 1
 311 165 l 1
 545 927 l 1
 593 918 l 1
 289 -74 l 1
EndSplineSet
EndChar
StartChar: lessequal
Encoding: 415 8804 309
Width: 479
Flags: W
HStem: 0 73<51 439>
DStem: 94 316 182 351 458 109 472 190 543 594 528 513 106 387 182 351
Fore
458 109 m 1
 94 316 l 1
 106 387 l 1
 543 594 l 1
 528 513 l 1
 182 351 l 1
 472 190 l 1
 458 109 l 1
439 0 m 1
 39 0 l 1
 52 73 l 1
 452 73 l 1
 439 0 l 1
EndSplineSet
EndChar
StartChar: greaterequal
Encoding: 416 8805 310
Width: 479
Flags: W
HStem: 0 73<51 439>
DStem: 128 513 142 594 419 351 507 387 419 351 494 316 72 190 58 109
Fore
58 109 m 1
 72 190 l 1
 419 351 l 1
 128 513 l 1
 142 594 l 1
 507 387 l 1
 494 316 l 1
 58 109 l 1
39 0 m 1
 52 73 l 1
 452 73 l 1
 439 0 l 1
 39 0 l 1
EndSplineSet
EndChar
StartChar: logicalnot
Encoding: 417 172 311
Width: 479
Flags: W
HStem: 317 73<99 442>
DStem: 442 317 515 390 406 108 466 108
Fore
406 108 m 1
 442 317 l 1
 87 317 l 1
 100 390 l 1
 515 390 l 1
 466 108 l 1
 406 108 l 1
EndSplineSet
EndChar
StartChar: summation
Encoding: 418 8721 312
Width: 585
Flags: W
HStem: -123 112<134 526> 587 165<19 519> 711 41<19 381>
DStem: 19 752 145 711 210 285 299 341 210 285 299 341 12 -123 134 -11
Fore
145 711 m 1xa0
 299 341 l 1
 134 -11 l 1
 403 -11 l 2
 498 -11 523 6 549 87 c 1
 570 87 l 1
 526 -123 l 1
 12 -123 l 1
 210 285 l 1
 19 752 l 1
 511 752 l 1
 519 587 l 1
 497 587 l 1xc0
 483 689 459 711 364 711 c 2
 145 711 l 1xa0
EndSplineSet
EndChar
StartChar: partialdiff
Encoding: 419 8706 313
Width: 405
Flags: W
HStem: -10 31<159 175> 367 45<181 213> 706 47<160 181>
VStem: 21 71<159 186> 311 68<402 448>
Fore
87 674 m 1
 54 725 l 1
 99 745 128 753 160 753 c 0
 285 753 379 602 379 402 c 0
 379 287 352 152 314 86 c 0
 279 23 232 -10 175 -10 c 0
 89 -10 21 76 21 184 c 0
 21 246 41 307 78 355 c 0
 107 393 140 412 181 412 c 0
 223 412 253 396 305 346 c 1
 310 395 311 420 311 448 c 0
 311 610 262 706 181 706 c 0
 151 706 124 697 87 674 c 1
300 312 m 1
 263 355 245 367 213 367 c 0
 147 367 92 272 92 159 c 0
 92 74 120 21 164 21 c 0
 200 21 236 54 257 107 c 0
 278 159 287 202 300 312 c 1
EndSplineSet
EndChar
StartChar: brokenbar
Encoding: 420 166 314
Width: 213
Flags: W
HStem: -19 21G<74 134> 717 20G<205 265>
DStem: 125 275 185 275 74 -19 134 -19 205 737 265 737 157 460 217 460
Fore
74 -19 m 1
 125 275 l 1
 185 275 l 1
 134 -19 l 1
 74 -19 l 1
157 460 m 1
 205 737 l 1
 265 737 l 1
 217 460 l 1
 157 460 l 1
EndSplineSet
EndChar
StartChar: mu
Encoding: 421 181 315
Width: 456
Flags: W
HStem: -15 76<196 222> 503 20G<147 219 420 492>
DStem: 147 523 219 523 20 -207 159 176 147 523 132 21 20 -207 92 -207 347 81 492 523 333 0 401 0 420 523 492 523 370 235 401 0
Fore
401 0 m 1
 333 0 l 1
 347 81 l 1
 297 10 258 -15 196 -15 c 0
 163 -15 146 -5 132 21 c 1
 92 -207 l 1
 20 -207 l 1
 147 523 l 1
 219 523 l 1
 159 176 l 1
 156 163 155 148 155 136 c 0
 155 86 178 61 222 61 c 0
 294 61 351 129 370 235 c 1
 420 523 l 1
 492 523 l 1
 401 0 l 1
EndSplineSet
EndChar
StartChar: afii10017
Encoding: 422 1040 316
Width: 547
Flags: W
HStem: 0 21G<11 93 449 536> 209 86<231 427> 698 20G<358 448>
DStem: 358 718 381 614 11 0 231 295 358 718 191 209 11 0 93 0
Fore
427 209 m 1
 191 209 l 1
 93 0 l 1
 11 0 l 1
 358 718 l 1
 448 718 l 1
 536 0 l 1
 449 0 l 1
 427 209 l 1
231 295 m 1
 414 295 l 1
 381 614 l 1
 231 295 l 1
EndSplineSet
EndChar
StartChar: afii10018
Encoding: 423 1041 317
Width: 568
Flags: W
HStem: 0 83<156 334> 336 78<214 366> 631 87<188 589>
VStem: 475 84<244 272>
DStem: 188 718 253 631 61 0 214 414 188 718 200 336 61 0 156 83
Fore
589 631 m 1
 253 631 l 1
 214 414 l 1
 358 414 l 2
 523 414 559 345 559 272 c 0
 559 122 462 0 315 0 c 1
 61 0 l 1
 188 718 l 1
 605 718 l 1
 589 631 l 1
200 336 m 1
 156 83 l 1
 326 83 l 2
 412 83 475 154 475 244 c 0
 475 305 435 336 356 336 c 2
 200 336 l 1
EndSplineSet
EndChar
StartChar: afii10019
Encoding: 424 1042 318
Width: 547
Flags: W
HStem: 0 83<155 334> 335 79<212 366> 635 83<186 414>
VStem: 474 81<239 260> 501 82<556 577>
DStem: 186 718 251 635 61 0 212 414 186 718 199 335 61 0 155 83
Fore
61 0 m 1xf0
 186 718 l 1
 445 718 l 2
 531 718 583 665 583 577 c 0xe8
 583 542 574 503 558 472 c 0
 539 434 517 412 475 387 c 1
 534 355 555 321 555 258 c 0
 555 114 449 0 314 0 c 2
 61 0 l 1xf0
251 635 m 1
 212 414 l 1
 356 414 l 2
 413 414 451 431 475 465 c 0
 490 488 501 526 501 558 c 0
 501 610 466 635 395 635 c 2
 251 635 l 1
199 335 m 1
 155 83 l 1
 324 83 l 2
 413 83 474 149 474 244 c 0xf0
 474 305 434 335 355 335 c 2
 199 335 l 1
EndSplineSet
EndChar
StartChar: afii10020
Encoding: 425 1043 319
Width: 501
Flags: W
HStem: 0 21G<71 150> 632 86<196 588>
DStem: 196 718 260 632 71 0 150 0
Fore
150 0 m 1
 71 0 l 1
 196 718 l 1
 603 718 l 1
 588 632 l 1
 260 632 l 1
 150 0 l 1
EndSplineSet
EndChar
StartChar: afii10021
Encoding: 426 1044 320
Width: 666
Flags: W
HStem: 0 88<160 513> 633 85<258 545>
DStem: -16 86 49 0 -52 -120 28 -120 513 0 608 86 492 -120 572 -120 545 633 640 718 450 88 530 86
Fore
37 86 m 2
 140 86 205 413 258 718 c 1
 640 718 l 1
 530 86 l 1
 608 86 l 1
 572 -120 l 1
 492 -120 l 1
 513 0 l 1
 49 0 l 1
 28 -120 l 1
 -52 -120 l 1
 -16 86 l 1
 37 86 l 2
160 88 m 1
 450 88 l 1
 545 633 l 1
 324 633 l 1
 296 473 252 221 160 88 c 1
EndSplineSet
EndChar
StartChar: afii10022
Encoding: 427 1045 321
Width: 547
Flags: W
HStem: 0 86<166 506> 326 86<222 530> 632 86<196 610>
DStem: 196 718 261 632 71 0 222 412 196 718 207 326 71 0 166 86
Fore
521 86 m 1
 506 0 l 1
 71 0 l 1
 196 718 l 1
 625 718 l 1
 610 632 l 1
 261 632 l 1
 222 412 l 1
 545 412 l 1
 530 326 l 1
 207 326 l 1
 166 86 l 1
 521 86 l 1
EndSplineSet
EndChar
StartChar: afii10023
Encoding: 428 1025 322
Width: 547
Flags: W
HStem: 0 86<166 506> 326 86<222 530> 632 86<196 610> 799 102<327 385 459 517>
DStem: 196 718 261 632 71 0 222 412 196 718 207 326 71 0 166 86 328 901 402 901 310 799 385 799 460 901 535 901 443 799 517 799
Fore
521 86 m 1
 506 0 l 1
 71 0 l 1
 196 718 l 1
 625 718 l 1
 610 632 l 1
 261 632 l 1
 222 412 l 1
 545 412 l 1
 530 326 l 1
 207 326 l 1
 166 86 l 1
 521 86 l 1
402 901 m 1
 385 799 l 1
 310 799 l 1
 328 901 l 1
 402 901 l 1
535 901 m 1
 517 799 l 1
 443 799 l 1
 460 901 l 1
 535 901 l 1
EndSplineSet
Ligature: 0 1 'liga' afii10022 uni0308
LCarets: 0 65535 '    ' 1 0 
EndChar
StartChar: afii10024
Encoding: 429 1046 323
Width: 902
Flags: W
HStem: 0 21G<16 119 418 498 797 900> 698 20G<149 259 545 625 911 1021>
DStem: 149 718 259 718 378 382 457 428 378 382 453 350 16 0 119 0 480 350 560 350 418 0 498 0 545 718 625 718 493 428 573 428 587 350 672 382 797 0 900 0 911 718 1021 718 609 428 672 382
Fore
480 350 m 1
 453 350 l 1
 119 0 l 1
 16 0 l 1
 378 382 l 1
 149 718 l 1
 259 718 l 1
 457 428 l 1
 493 428 l 1
 545 718 l 1
 625 718 l 1
 573 428 l 1
 609 428 l 1
 911 718 l 1
 1021 718 l 1
 672 382 l 1
 900 0 l 1
 797 0 l 1
 587 350 l 1
 560 350 l 1
 498 0 l 1
 418 0 l 1
 480 350 l 1
EndSplineSet
EndChar
StartChar: afii10025
Encoding: 430 1047 324
Width: 557
Flags: W
HStem: -19 83<258 286> 331 71<240 365> 654 83<361 388>
Fore
241 402 m 1
 363 402 l 2
 432 402 474 479 483 530 c 0
 496 608 455 654 371 654 c 0
 316 654 269 632 237 593 c 1
 219 569 209 548 199 508 c 1
 124 508 l 1
 140 572 152 602 176 637 c 1
 223 701 297 737 386 737 c 0
 457 737 507 715 535 670 c 0
 559 630 568 576 558 518 c 0
 546 454 517 406 470 375 c 1
 527 343 545 282 530 197 c 0
 506 63 404 -19 260 -19 c 0
 170 -19 117 8 83 71 c 0
 59 114 56 155 68 232 c 1
 143 232 l 1
 136 185 138 161 149 134 c 0
 168 89 212 64 278 64 c 0
 373 64 437 109 451 188 c 0
 463 257 447 331 347 331 c 1
 231 331 l 1
 241 402 l 1
EndSplineSet
EndChar
StartChar: afii10026
Encoding: 431 1048 325
Width: 594
Flags: W
HStem: 0 21G<63 152 454 531> 698 20G<190 267 564 658>
DStem: 190 718 267 718 63 0 164 135 557 583 658 718 454 0 531 0 564 718 557 583 164 135 152 0
Fore
164 135 m 1
 564 718 l 1
 658 718 l 1
 531 0 l 1
 454 0 l 1
 557 583 l 1
 152 0 l 1
 63 0 l 1
 190 718 l 1
 267 718 l 1
 164 135 l 1
EndSplineSet
EndChar
